<?xml version="1.0" encoding="utf-8"?>
<!-- Generator: Adobe Illustrator 21.0.0, SVG Export Plug-In . SVG Version: 6.00 Build 0)  -->
<svg version="1.0" id="图层_1" xmlns="http://www.w3.org/2000/svg" xmlns:xlink="http://www.w3.org/1999/xlink" x="0px" y="0px"
	 viewBox="0 0 230 130" enable-background="new 0 0 230 130" xml:space="preserve">
<path fill="#2C97E8" d="M35.453,69.83c-0.014-1.872-0.059-3.745-0.029-5.617c0.016-1.009-0.317-1.814-1.03-2.505
	c-1.031-0.999-1.95-2.109-2.138-3.578c-0.312-2.442-0.453-4.878,1.312-6.952c0.442-0.52,0.425-1.082-0.018-1.666
	c-1.056-1.391-0.911-3.747,0.384-4.903c1.108-0.989,1.572-2.071,1.511-3.599c-0.213-5.373,0.599-10.606,2.795-15.543
	C42.822,15.169,50.456,8.303,61.397,5.325c3.169-0.863,6.433-1.279,9.74-1.13c7.81,0.353,14.825,2.813,20.858,7.873
	c0.066,0.055,0.136,0.104,0.261,0.199c0.474-1.02,0.962-2.002,1.618-2.889c2.191-2.963,5.155-4.841,8.598-5.97
	c4.397-1.443,8.932-2,13.557-1.942c2.526,0.032,5.049,0.072,7.559,0.373c5.991,0.719,11.585,2.516,16.466,6.183
	c1.292,0.971,2.438,2.108,3.394,3.419c0.272,0.373,0.451,0.487,0.9,0.179c2.947-2.017,6.273-3.03,9.756-3.652
	c3.983-0.712,7.993-0.287,11.99-0.374c3.019-0.066,5.959,0.653,8.911,1.167c2.447,0.426,4.826,1.116,7.101,2.138
	c5.343,2.401,8.892,6.44,10.868,11.904c0.966,2.672,1.625,5.419,1.528,8.283c-0.208,6.136-1.925,11.865-4.773,17.277
	c-0.42,0.799-0.387,0.929,0.4,1.393c2.695,1.592,3.885,3.977,3.641,7.061c-0.244,3.074-1.905,5.152-4.696,6.374
	c-0.239,0.105-0.48,0.207-0.724,0.299c-0.984,0.371-0.998,0.369-0.982,1.434c0.03,1.957,0.098,3.923,0.026,5.87
	c-0.084,2.278-0.655,4.515-1.546,6.639c-2.159,5.151-6.14,8.332-11.224,10.282c-1.907,0.732-3.841,1.405-5.903,1.588
	c-0.479,0.043-0.739,0.326-0.722,0.834c0.016,0.457,0.045,0.916,0.016,1.371c-0.046,0.718,0.324,1.146,0.917,1.435
	c2.834,1.381,5.678,2.742,8.505,4.138c4.092,2.022,6.617,5.273,7.548,9.749c0.017,0.083,0.009,0.172,0.012,0.258
	c-0.12,0.226-0.06,0.47-0.06,0.704c-0.005,2.413-0.001,4.827-0.007,7.24c-0.001,0.207,0.076,0.431-0.064,0.623
	c0.142,0.013,0.074-0.085,0.074-0.156c-0.003-2.609-0.002-5.218-0.001-7.827c0-0.127-0.027-0.264,0.084-0.367
	c0.162,0.243,0.06,0.511,0.061,0.764c0.012,3.615,0.024,7.229,0.005,10.844c-0.003,0.512,0.173,0.605,0.639,0.603
	c3.68-0.017,7.36-0.008,11.041-0.012c0.353,0,0.703,0.005,1.004,0.211c0.435,0.298,0.634,0.722,0.543,1.241
	c-0.091,0.517-0.416,0.857-0.927,0.988c-0.186,0.048-0.388,0.044-0.583,0.044c-17.203,0.002-34.407,0.002-51.61,0.001
	c-0.109,0-0.217-0.01-0.326-0.015c-0.149-0.789-0.03-1.585-0.065-2.377c0.199-0.378,0.565-0.264,0.869-0.267
	c1.633-0.015,3.266-0.003,4.9-0.009c0.73-0.003,0.775-0.048,0.776-0.781c0.002-7.447,0.003-14.895,0-22.342
	c0-0.741-0.083-0.792-0.729-0.48c-2.684,1.299-5.403,2.527-8.028,3.945c-1.334,0.72-2.548,1.591-3.544,2.743
	c-0.469,0.542-0.452,0.637,0.132,1.07c1.178,0.875,2.159,1.949,3.157,3.14c0.282-0.712,0.633-1.328,0.91-1.982
	c0.315-0.743,0.716-1.445,1.137-2.129c0.529-0.861,1.306-1.018,2.051-0.492c0.622,0.438,0.787,1.1,0.436,1.774
	c-0.151,0.29-0.354,0.549-0.525,0.827c-0.977,1.59-1.042,3.242-0.301,4.933c0.42,0.958,1.002,1.834,1.451,2.779
	c0.254,0.535,0.464,1.083,0.53,1.673c0.088,0.791-0.251,1.388-0.868,1.571c-0.75,0.223-1.326-0.039-1.716-0.79
	c-0.204-0.394-0.417-0.785-0.498-1.072c-0.128,1.876,0.135,3.897-0.144,5.91c-0.027,0.802,0.055,1.605-0.046,2.404
	c-0.006,1.546,0.007,3.092-0.029,4.638c-0.011,0.469,0.134,0.6,0.586,0.571c0.585-0.038,1.176-0.022,1.763-0.006
	c0.793,0.022,1.32,0.525,1.321,1.236c0.001,0.71-0.525,1.209-1.316,1.243c-0.13,0.006-0.261,0.001-0.392,0.001
	c-20.425,0-40.849,0-61.274,0c-0.109,0-0.218,0.002-0.327-0.001c-0.848-0.019-1.394-0.497-1.399-1.224
	c-0.005-0.759,0.545-1.251,1.432-1.257c1.132-0.008,2.265-0.018,3.397,0.006c0.447,0.01,0.567-0.09,0.549-0.58
	c-0.057-1.544-0.028-3.091-0.032-4.637c-0.117-0.789-0.022-1.583-0.053-2.374c-0.095-0.335-0.116-0.678-0.12-1.026
	c-0.015-1.277-0.003-2.544-0.21-3.824c-0.339-2.099,0.44-4.022,1.261-5.902c0.693-1.586,1.656-2.997,2.855-4.246
	c0.15-0.156,0.311-0.305,0.383-0.519c0.057-1.258,0.015-2.514,0.018-3.771c-0.017-0.687-0.219-1.329-0.47-1.959
	c-0.224-0.561-0.631-0.889-1.242-0.898c-1.961-0.03-3.922-0.043-5.882,0.006c-0.714,0.018-0.964,0.287-1.129,1.118
	c-0.356,1.799-0.823,3.565-1.438,5.293c-0.917,2.575-2.194,4.953-4.093,6.926c-2.107,2.189-4.717,3.481-7.739,3.88
	c-4.233,0.56-7.856-0.783-10.98-3.606c-0.517-0.467-0.952-1.018-1.33-1.607c-0.419-0.652-0.528-0.691-1.287-0.461
	c-0.772,0.234-1.511,0.562-2.28,0.805c-1.647,0.52-3.018,0.117-4.099-1.202c-0.617-0.753-0.72-1.665-0.774-2.583
	c-0.036-0.608,0.007-1.22-0.015-1.83c-0.025-0.668-0.185-0.818-0.835-0.773c-0.611,0.042-1.215,0.014-1.824-0.057
	c-0.919-0.106-1.257,0.197-1.259,1.111c-0.009,4.663-0.006,9.325-0.001,13.988c0.001,0.784,0.049,0.815,1.027,0.815
	c13.225,0.001,26.45,0,39.675,0.001c0.37,0,0.741-0.009,1.111,0.006c0.237,0.01,0.487-0.005,0.658,0.215
	c-0.002,0.812,0.089,1.626-0.05,2.435c-0.239,0.007-0.478,0.019-0.718,0.019c-18.601,0.001-37.202,0.001-55.804,0
	c-0.239,0-0.483,0.016-0.717-0.019c-0.623-0.094-1.064-0.613-1.061-1.218c0.003-0.617,0.431-1.125,1.056-1.225
	c0.213-0.034,0.434-0.02,0.652-0.02c3.659-0.001,7.319-0.01,10.978,0.01c0.482,0.003,0.628-0.116,0.633-0.611
	c0.047-4.269,0.052-8.538,0.006-12.807c-0.001-0.087-0.001-0.175-0.01-0.261c-0.209-2.035-0.513-2.309-2.417-2.269
	c-2.81,0.06-5.501-0.522-7.895-2.078c-4.653-3.024-5.916-8.996-2.937-13.79c1.113-1.791,2.256-3.563,3.369-5.354
	c0.914-1.471,1.415-3.057,1.376-4.816c-0.036-1.609,0.016-3.221,0.029-4.831C35.55,71.743,35.547,70.786,35.453,69.83z"/>
<path fill="#2C97E8" d="M75.481,129.572c-1.459,0-2.918,0.003-4.376-0.001c-0.871-0.003-1.415-0.471-1.405-1.192
	c0.01-0.7,0.54-1.157,1.373-1.158c2.961-0.005,5.922-0.005,8.883,0c0.836,0.001,1.361,0.456,1.373,1.159
	c0.012,0.721-0.531,1.187-1.406,1.19C78.442,129.576,76.961,129.572,75.481,129.572z"/>
<path fill="#2C97E8" d="M156.21,127.349c1.459,0,2.918-0.004,4.376,0.001c0.874,0.003,1.415,0.469,1.405,1.193
	c-0.009,0.697-0.54,1.155-1.374,1.157c-2.961,0.005-5.922,0.005-8.883,0c-0.832-0.001-1.362-0.459-1.371-1.159
	c-0.01-0.724,0.53-1.188,1.405-1.191C153.249,127.346,154.73,127.349,156.21,127.349z"/>
<path fill="#3B6DF9" d="M185.025,107.304c0,2.845,0,5.69,0,8.534c-0.051,0-0.102,0-0.152,0.001c0-0.319,0-0.637,0-0.956
	c0-2.372-0.002-4.744,0.004-7.117c0.001-0.229-0.086-0.484,0.123-0.679C185.008,107.159,185.017,107.232,185.025,107.304z"/>
<path fill="#3267F8" d="M35.453,69.83c0.2,0.957,0.204,1.913-0.002,2.869C35.452,71.743,35.452,70.786,35.453,69.83z"/>
<path fill="#6188FA" d="M88.91,121.969c-0.001-0.815-0.002-1.631-0.002-2.446c0.033-0.052,0.076-0.062,0.129-0.03
	c-0.001,0.839-0.002,1.677-0.002,2.516C88.992,122,88.95,121.987,88.91,121.969z"/>
<path fill="#2C97E8" d="M144.874,119.518c-0.001,0.819-0.001,1.637-0.002,2.456c-0.036,0.023-0.075,0.038-0.117,0.046
	c0-0.845,0-1.689-0.001-2.534C144.804,119.461,144.843,119.471,144.874,119.518z"/>
<path fill="#FEFEFE" d="M144.606,52.868c0,3.092,0.038,6.185-0.009,9.277c-0.066,4.325-3.623,7.789-7.95,7.817
	c-0.325,0.002-0.653,0.023-0.975,0.068c-2.36,0.328-3.872-0.465-4.81-2.662c-0.728-1.703-1.823-3.051-3.401-4.012
	c-1.203-0.732-2.516-1.181-3.882-1.488c-0.983-0.221-1.151-0.439-1.101-1.424c0.042-0.826-0.353-1.345-1.094-1.437
	c-0.776-0.097-1.315,0.323-1.424,1.17c-0.061,0.472-0.02,0.957-0.054,1.434c-0.112,1.54-1.316,2.72-2.794,2.755
	c-1.644,0.039-2.813-0.983-2.995-2.638c-0.055-0.497-0.07-0.998-0.104-1.497c-0.054-0.791-0.551-1.257-1.31-1.231
	c-0.777,0.027-1.216,0.503-1.202,1.305c0.017,1-0.168,1.294-1.189,1.562c-2.398,0.629-4.496,1.736-6.104,3.669
	c-0.786,0.945-1.391,1.996-1.851,3.135c-0.496,1.227-0.648,1.333-1.999,1.291c-1.585-0.049-3.181,0.14-4.752-0.223
	c-3.423-0.791-6.124-4.104-6.141-7.614c-0.027-5.793-0.063-11.586-0.014-17.379c0.055-6.481,2.358-12.151,6.441-17.132
	c0.791-0.965,1.456-0.996,2.47-0.221c2.705,2.065,5.494,3.966,8.778,5.046c5.078,1.67,10.143,1.508,15.228,0.084
	c4.576-1.282,8.822-3.313,12.933-5.656c0.284-0.162,0.568-0.322,0.852-0.483c0.553-0.313,0.94-0.175,1.328,0.343
	c0.637,0.852,1.399,1.61,2.036,2.462c2.926,3.911,4.529,8.344,5.106,13.17C145.041,45.857,144.622,49.365,144.606,52.868z"/>
<path fill="#FEFEFE" d="M86.813,58.485c0,1.143,0.03,2.253-0.005,3.36c-0.165,5.188,3.803,9.973,8.949,10.675
	c1.287,0.176,2.605,0.149,3.912,0.073c1.58-0.092,1.895,0.223,1.844,1.786c-0.023,0.71,0.431,1.188,1.157,1.217
	c0.858,0.035,1.386-0.382,1.4-1.185c0.019-1.111-0.01-2.225,0.245-3.314c0.832-3.564,3.105-5.743,6.57-6.731
	c0.78-0.223,1.455,0.049,1.97,0.692c0.456,0.569,1.025,1.006,1.67,1.34c2.089,1.081,4.648,0.721,6.287-1.079
	c0.961-1.055,1.918-1.135,3.149-0.712c3.239,1.114,5.602,4.181,5.872,7.715c0.053,0.694,0.091,1.39,0.132,2.085
	c0.042,0.716,0.36,1.102,0.976,1.174c0.771,0.09,1.265-0.2,1.462-0.884c0.084-0.291,0.123-0.596,0.18-0.895
	c0.193-1.018,0.448-1.253,1.504-1.189c1.134,0.069,2.263,0.073,3.392-0.043c4.276-0.438,7.307-2.641,9.009-6.559
	c0.79-1.818,0.878-3.801,0.794-5.775c-0.014-0.326-0.042-0.653-0.04-0.979c0.001-0.209-0.131-0.511,0.054-0.608
	c0.255-0.134,0.477,0.134,0.675,0.286c0.633,0.487,0.77,1.199,0.77,1.93c0.002,4.312,0.184,8.625,0.038,12.936
	c-0.136,4.024-0.762,7.977-3.029,11.405c-4.116,6.225-9.853,9.669-17.446,9.755c-7.559,0.086-15.117,0.071-22.676,0.05
	c-9.241-0.026-17.686-6.761-19.764-15.769c-0.581-2.521-0.633-5.088-0.616-7.662c0.023-3.398,0.009-6.796,0.004-10.194
	c-0.002-1.075,0.287-2.02,1.146-2.729c0.067-0.055,0.136-0.11,0.21-0.154C86.64,58.487,86.689,58.496,86.813,58.485z"/>
<path fill="#FEFEFE" d="M82.226,75.197c0.084,2.648,0.606,5.211,1.55,7.683c0.149,0.39,0.074,0.56-0.272,0.755
	c-4.889,2.753-10.129,3.965-15.707,3.339c-9.861-1.106-17.046-6.247-21.75-14.887c-1.895-3.481-2.884-7.243-3.066-11.241
	c-0.135-2.962-0.024-5.918-0.06-8.876c-0.011-0.921,0.16-1.105,1.095-1.157c5.699-0.32,11.065-1.825,16.067-4.571
	c4.907-2.694,9.072-6.299,12.729-10.513c1.213-1.398,2.424-2.798,3.637-4.195c0.186-0.214,0.372-0.436,0.637-0.553
	c0.465-0.205,0.859-0.213,1.157,0.317c1.717,3.053,3.473,6.086,5.17,9.15c0.679,1.227,1.455,2.371,2.379,3.419
	c0.204,0.231,0.384,0.47,0.517,0.747c0.229,0.475,0.118,0.868-0.331,1.111c-0.398,0.216-0.833,0.366-1.255,0.537
	c-1.334,0.539-2.513,1.296-3.4,2.448c-0.248,0.323-0.524,0.479-0.942,0.441c-0.367-0.034-0.741-0.019-1.109,0.013
	c-0.731,0.064-1.125,0.477-1.158,1.17c-0.031,0.67,0.289,1.149,0.984,1.244c0.552,0.075,0.631,0.248,0.491,0.762
	c-0.24,0.886-0.293,1.806-0.182,2.721c0.037,0.305-0.049,0.465-0.28,0.65c-1.071,0.859-1.408,2.159-0.894,3.333
	c0.543,1.239,1.714,1.869,3.143,1.64c0.382-0.061,0.507,0.104,0.606,0.401c0.281,0.843,0.272,1.712,0.246,2.584
	c-0.101,0.268-0.276,0.485-0.455,0.706c-1.352,1.677-1.399,3.415-0.09,5.114c0.368,0.478,0.513,0.955,0.509,1.551
	C82.181,72.426,82.122,73.813,82.226,75.197z"/>
<path fill="#FEFEFE" d="M38.348,40.667c-0.282-6.653,1.403-12.705,4.78-18.314C48.726,13.059,57.062,8.135,67.755,7.2
	C76.55,6.43,84.28,9.153,90.977,14.877c0.34,0.29,0.49,0.577,0.37,1.014c-0.063,0.228-0.062,0.473-0.095,0.709
	c-0.132,0.925-0.533,1.399-1.459,1.606c-1.765,0.395-3.407,1.023-4.796,2.231c-1.95,1.696-3.105,3.826-3.539,6.359
	c-0.266,1.551-0.335,3.11-0.231,4.725c-0.123-0.249-0.261-0.492-0.367-0.748c-1.241-2.99-4.421-2.932-6.194-0.925
	c-1.355,1.534-2.671,3.102-4.022,4.638c-6.074,6.903-13.376,11.752-22.555,13.447c-2.688,0.496-5.408,0.577-8.132,0.569
	c-0.958-0.003-1.917-0.015-2.875-0.011c-0.65,0.003-1.08-0.322-1.306-0.899c-0.209-0.534,0.099-0.917,0.473-1.252
	c1.625-1.453,3.228-2.926,4.552-4.672c1.185-1.562,2.087-3.261,2.541-5.179c0.186-0.786-0.016-1.294-0.588-1.555
	c-0.828-0.379-1.513-0.043-1.752,0.945c-0.377,1.556-1.114,2.92-2.073,4.179c-0.119,0.156-0.245,0.306-0.374,0.454
	C38.516,40.558,38.459,40.586,38.348,40.667z"/>
<path fill="#FEFEFE" d="M147.073,40.515c-0.296-1.166-0.546-2.214-0.83-3.252c-1.203-4.397-3.303-8.312-6.333-11.724
	c-0.13-0.147-0.266-0.289-0.391-0.439c-0.491-0.59-0.47-0.912,0.147-1.344c0.505-0.354,0.929-0.79,1.354-1.225
	c0.62-0.633,0.652-1.266,0.12-1.843c-0.555-0.602-1.218-0.633-1.896-0.014c-4.172,3.811-9.135,6.271-14.33,8.291
	c-3.006,1.169-6.138,1.958-9.381,2.113c-4.113,0.197-7.924-0.869-11.482-2.91c-1.55-0.889-2.959-1.978-4.392-3.034
	c-1.937-1.428-3.993-1.199-5.57,0.641c-3.476,4.053-5.708,8.712-6.733,13.95c-0.038,0.196,0.047,0.499-0.251,0.519
	c-0.262,0.017-0.405-0.229-0.513-0.446c-1.215-2.438-2.026-4.995-2.255-7.72c-0.15-1.789-0.078-3.573,0.308-5.326
	c0.688-3.121,2.985-5.141,6.399-5.684c0.665-0.106,1.341-0.144,2.006-0.248c0.895-0.14,1.231-0.531,1.184-1.41
	c-0.412-7.747,4.647-11.852,9.855-13.375c3.421-1,6.935-1.424,10.486-1.615c5.606-0.301,11.077,0.403,16.406,2.154
	c3.457,1.136,6.586,2.827,9.106,5.535c2.202,2.366,3.403,5.177,3.856,8.336c0.188,1.307,0.498,2.563,1.257,3.667
	c0.921,1.339,2.173,1.888,3.786,1.556c0.34-0.07,0.682-0.148,1.027-0.176c1.195-0.097,1.726,0.275,2.04,1.432
	c0.378,1.393,0.404,2.806,0.058,4.199c-0.614,2.472-1.636,4.769-3.135,6.839C148.385,38.784,147.765,39.59,147.073,40.515z"/>
<path fill="#B1D3FC" d="M116.974,127.219c-8.17,0-16.34-0.007-24.51,0.014c-0.613,0.002-0.816-0.131-0.806-0.779
	c0.039-2.57-0.075-5.146,0.048-7.71c0.099-2.059-0.066-4.131,0.327-6.181c0.636-3.321,2.44-5.827,5.372-7.402
	c3.295-1.77,6.694-3.347,10.051-5.001c0.545-0.268,0.701-0.173,0.779,0.573c0.231,2.207,1.269,3.989,2.809,5.527
	c1.388,1.386,3.114,2.004,5.01,2.278c1.833,0.265,3.575-0.08,5.184-0.904c2.746-1.406,4.272-3.744,4.789-6.758
	c0.131-0.765,0.357-0.935,1.031-0.596c3.133,1.572,6.298,3.088,9.375,4.762c3.412,1.857,5.261,4.823,5.717,8.684
	c0.118,1.002,0.073,1.999,0.112,2.998c0.127,3.263-0.052,6.528,0.021,9.79c0.013,0.591-0.17,0.719-0.735,0.717
	C133.357,127.213,125.166,127.219,116.974,127.219z"/>
<path fill="#FEFEFE" d="M160.447,9.96c6.187,0.15,11.236,0.313,16.172,1.565c2.202,0.559,4.339,1.292,6.308,2.451
	c4.542,2.673,7.149,6.733,8.497,11.734c1.296,4.806,0.703,9.492-0.761,14.135c-0.503,1.596-0.991,3.202-1.716,4.719
	c-0.084,0.176-0.177,0.349-0.259,0.527c-0.184,0.402-0.508,0.52-0.915,0.433c-0.428-0.092-0.418-0.438-0.418-0.773
	c0.001-2.309-0.005-4.618,0.003-6.927c0.003-0.765-0.044-1.519-0.209-2.269c-0.149-0.681,0.094-1.069,0.759-1.301
	c0.205-0.071,0.419-0.121,0.616-0.21c0.518-0.234,0.78-0.626,0.644-1.205c-0.132-0.564-0.458-0.935-1.079-0.949
	c-0.195-0.004-0.4-0.011-0.585,0.04c-2.685,0.733-5.441,0.954-8.2,1.127c-2.846,0.178-5.691,0.375-8.548,0.264
	c-5.141-0.2-10.249-0.658-15.281-1.791c-0.573-0.129-0.72-0.356-0.64-0.923c0.181-1.287,0.48-2.578,0.242-3.886
	c-0.514-2.821-2.7-4.747-5.759-4.248c-1.468,0.239-1.861-0.033-2.208-1.498c-0.28-1.182-0.466-2.387-0.741-3.57
	c-0.212-0.911-0.514-1.805-0.947-2.635c-0.268-0.514-0.112-0.759,0.319-1.047c2.554-1.705,5.354-2.788,8.356-3.379
	C156.574,9.856,159.079,9.931,160.447,9.96z"/>
<path fill="#FEFEFE" d="M185.092,58.337c0,3.072,0.058,6.145-0.017,9.216c-0.066,2.714-0.097,5.444-0.996,8.067
	c-1.519,4.432-4.648,7.325-8.8,9.226c-3.465,1.586-7.134,2.373-10.923,2.638c-4.494,0.314-8.967,0.186-13.401-0.67
	c-0.747-0.144-1.481-0.359-2.226-0.517c-0.421-0.089-0.518-0.218-0.283-0.637c1.322-2.353,2.219-4.86,2.639-7.532
	c0.166-1.057,0.218-2.12,0.217-3.189c-0.007-4.14-0.002-8.28-0.017-12.419c-0.001-0.415,0.083-0.604,0.546-0.677
	c3.211-0.502,5.388-3.021,5.444-6.285c0.022-1.285-0.024-2.571-0.021-3.856c0.003-1.055,0.216-1.241,1.281-1.231
	c0.893,0.009,1.786,0.002,2.678,0c0.909-0.002,1.134,0.28,1.119,1.179c-0.028,1.652-0.195,3.312,0.062,4.956
	c0.363,2.317,2.277,5.06,5.654,5.279c2.03,0.131,4.048-0.086,6.072-0.026c1.258,0.037,2.511,0.19,3.782,0.022
	c2.641-0.348,5.454-2.592,5.516-5.942c0.044-2.352,0.016-4.706,0.028-7.058c0.004-0.804,0.202-0.965,0.973-0.917
	c0.596,0.037,0.691,0.408,0.692,0.896c0.001,2.702,0.009,5.403,0.015,8.105c0.001,0.458,0,0.915,0,1.373
	C185.114,58.337,185.103,58.337,185.092,58.337z"/>
<path fill="#B1D3FC" d="M42.242,100.679c-2.119-0.009-4.229-0.087-6.162-1.11c-2.415-1.278-3.728-3.294-4.059-6.003
	c-0.191-1.56,0.297-2.922,1.08-4.201c1.239-2.022,2.542-4.004,3.782-6.024c0.905-1.474,1.4-3.108,1.417-4.829
	c0.045-4.661,0.023-9.322,0.024-13.983c0-0.195-0.04-0.389-0.055-0.584c-0.017-0.215,0.059-0.383,0.264-0.476
	c1.148-0.522,2.281,0.057,2.521,1.295c0.917,4.747,2.689,9.127,5.615,13.004c2.434,3.224,5.455,5.777,8.96,7.771
	c1.516,0.862,3.096,1.587,4.711,2.244c1.108,0.451,1.451,1.126,1.315,2.317c-0.074,0.643,0.027,1.301,0.007,1.94
	c-0.099,3.074,0.116,6.191-0.927,9.164c-1.061,3.027-3.061,5.123-6.203,6.013c-0.966,0.274-1.32-0.018-1.324-1.051
	c-0.009-1.873-0.007-3.746,0.001-5.62c0.001-0.332-0.04-0.651-0.144-0.962c-0.197-0.59-0.628-0.772-1.22-0.749
	c-0.572,0.022-0.885,0.301-1.004,0.836c-0.033,0.148-0.085,0.298-0.082,0.446c0.008,0.526-0.327,0.595-0.738,0.591
	c-1.067-0.011-2.134-0.018-3.201-0.026C45.294,100.566,43.768,100.569,42.242,100.679z"/>
<path fill="#B1D3FC" d="M89.037,119.493c-0.043,0.01-0.086,0.02-0.129,0.03c-0.283-0.006-0.566-0.017-0.849-0.017
	c-13.638-0.001-27.276-0.001-40.915-0.001c-0.847,0-0.846,0-0.845-0.835c0.002-4.749,0.003-9.498,0.005-14.247
	c0-1.046,0.229-1.29,1.273-1.228c0.76,0.045,1.51,0.104,2.276,0.019c0.507-0.056,0.78,0.258,0.782,0.81
	c0.004,0.999-0.064,1.998,0.086,2.998c0.302,2.01,2.219,3.293,4.198,2.723c1.002-0.289,1.979-0.663,2.96-1.02
	c0.449-0.163,0.743-0.043,0.982,0.359c1.352,2.273,3.397,3.752,5.803,4.642c5.172,1.911,9.877,0.944,13.886-2.819
	c2.213-2.077,3.52-4.782,4.486-7.643c0.544-1.61,0.923-3.259,1.27-4.919c0.175-0.839,0.437-1.048,1.303-1.053
	c1.939-0.01,3.878-0.001,5.817-0.005c0.712-0.001,1.216,0.301,1.448,0.987c0.222,0.657,0.522,1.296,0.48,2.017
	c-0.113,1.345-0.078,2.691-0.018,4.037c-2.41,2.322-3.829,5.179-4.489,8.428c-0.164,0.806-0.159,1.631,0.037,2.449
	C89.221,116.621,88.985,118.064,89.037,119.493z"/>
<path fill="#FEFEFE" d="M178.598,35.445c1.502-0.037,2.997-0.167,4.486-0.361c1.683-0.22,1.705-0.179,1.812,1.491
	c0.161,2.501,0.103,5.006,0.214,7.507c0.056,1.268-0.221,1.538-1.497,1.533c-5.662-0.02-11.325-0.047-16.987-0.068
	c-0.744-0.003-1.477,0.07-2.178,0.348c-0.808,0.321-1.387,0.89-1.775,1.653c-0.202,0.397-0.495,0.57-0.938,0.565
	c-1.307-0.014-2.613-0.015-3.92-0.009c-0.41,0.002-0.731-0.134-0.913-0.505c-0.777-1.583-2.16-2.042-3.785-2.048
	c-1.633-0.005-3.267,0.01-4.9-0.003c-0.285-0.002-0.717,0.171-0.83-0.152c-0.143-0.41-0.204-0.91,0.113-1.31
	c0.39-0.493,0.815-0.958,1.207-1.449c0.208-0.26,0.448-0.31,0.749-0.226c0.649,0.181,1.303,0.346,1.95,0.536
	c0.819,0.24,1.412,0.004,1.662-0.685c0.27-0.744-0.008-1.322-0.828-1.649c-0.463-0.185-0.943-0.323-1.471-0.501
	c1.017-1.471,1.958-2.949,2.624-4.582c0.156-0.382,0.372-0.751,0.458-1.149c0.149-0.688,0.489-0.718,1.109-0.573
	c4.206,0.984,8.479,1.512,12.789,1.753c0.303,0.017,0.608,0.004,0.913,0.006c0.646-0.158,1.29,0.013,1.935,0.008
	c1.711-0.012,3.423,0.032,5.133-0.061c0.212-0.011,0.434-0.051,0.64,0.052c0.539,0.011,1.081,0.058,1.61-0.103
	C178.183,35.322,178.39,35.355,178.598,35.445z"/>
<path fill="#FEFEFE" d="M63.965,98.628c0.195-1.145,0.084-2.3,0.096-3.45c0.02-1.83,0.023-3.66-0.005-5.489
	c-0.008-0.551,0.026-0.788,0.712-0.655c3.428,0.663,6.873,0.717,10.323,0.125c0.697-0.12,0.86,0.015,0.856,0.738
	c-0.013,2.046-0.05,4.092-0.072,6.138c-0.008,0.714-0.083,1.436,0.411,2.064c0.482,0.612,0.963,0.682,1.54,0.144
	c0.237-0.221,0.41-0.512,0.653-0.725c0.423-0.373,0.956-0.21,1.444-0.218c2.006-0.034,2.133,0.124,1.687,2.058
	c-0.7,3.034-1.7,5.939-3.602,8.466c-1.623,2.156-3.704,3.589-6.359,4.159c-0.851,0.183-1.066,0.01-1.051-0.859
	c0.011-0.631,0.027-1.264-0.005-1.894c-0.041-0.799-0.445-1.201-1.159-1.223c-0.725-0.022-1.123,0.356-1.226,1.149
	c-0.093,0.716-0.072,1.434-0.063,2.153c0.009,0.659-0.181,0.786-0.834,0.673c-2.773-0.483-4.867-2.001-6.505-4.229
	c-0.229-0.312-0.359-0.573,0.005-0.896c2.435-2.17,3.152-5.012,3.151-8.129c-0.045-0.024-0.059-0.046-0.043-0.067
	C63.933,98.638,63.948,98.628,63.965,98.628z"/>
<path fill="#B1D3FC" d="M168.022,107.405c0-3.726,0-7.451,0-11.177c0-0.196-0.006-0.393,0.011-0.588
	c0.034-0.382,0.198-0.47,0.562-0.287c2.897,1.46,5.857,2.805,8.689,4.382c3.545,1.975,5.404,5.105,5.492,9.179
	c0.072,3.332,0.015,6.667,0.035,10c0.003,0.443-0.11,0.602-0.579,0.6c-4.554-0.016-9.107-0.019-13.661,0.003
	c-0.559,0.003-0.571-0.256-0.57-0.674c0.01-3.813,0.006-7.626,0.006-11.438C168.012,107.405,168.017,107.405,168.022,107.405z"/>
<path fill="#B1D3FC" d="M144.874,119.518c-0.039-0.012-0.079-0.023-0.12-0.032c0-2.084,0-4.168,0-6.252
	c0.032-0.015,0.064-0.03,0.096-0.046c0.237,0.485,0.473,0.97,0.711,1.455c0.377,0.769,0.842,1.002,1.559,0.783
	c0.569-0.174,0.879-0.813,0.726-1.559c-0.222-1.083-0.767-2.029-1.31-2.973c-0.6-1.042-1.13-2.095-1.175-3.347
	c-0.05-1.382,0.452-2.539,1.225-3.634c0.571-0.808,0.333-1.56-0.56-1.941c-0.585-0.249-1.156-0.06-1.52,0.627
	c-0.757,1.432-1.571,2.841-2.096,4.475c-0.612-0.867-1.287-1.623-2.017-2.329c-0.533-0.515-1.09-1.003-1.719-1.393
	c-0.328-0.204-0.34-0.339-0.107-0.644c0.968-1.273,2.193-2.232,3.575-3.001c2.874-1.6,5.889-2.917,8.831-4.38
	c0.534-0.265,0.564-0.027,0.564,0.414c-0.004,7.732-0.004,15.463,0.013,23.195c0.001,0.471-0.156,0.582-0.6,0.578
	C148.924,119.498,146.899,119.514,144.874,119.518z"/>
<path fill="#FDFDFD" d="M172.834,59.606c-1.329,0.001-2.658,0.013-3.987-0.002c-2.43-0.027-4.168-1.713-4.217-4.14
	c-0.04-1.96-0.024-3.921-0.007-5.881c0.011-1.224,0.408-1.614,1.619-1.613c4.639,0.002,9.278,0.014,13.917,0.028
	c0.741,0.002,0.94,0.192,0.94,0.93c0.001,2.243,0.018,4.488-0.033,6.73c-0.051,2.255-1.752,3.891-4.051,3.941
	C175.623,59.63,174.229,59.606,172.834,59.606z"/>
<path fill="#FEFEFE" d="M153.909,89.99c0.165-0.296,0.43-0.32,0.73-0.288c3.385,0.366,6.775,0.286,10.166,0.112
	c0.404-0.021,0.808,0.019,0.791,0.526c-0.066,1.997,0.173,4.017-0.195,5.986c-0.521,2.791-2.97,4.588-5.833,4.454
	c-3.001-0.14-5.229-2.168-5.561-5.055c-0.017-0.148-0.067-0.291-0.102-0.437c-0.178-0.901-0.067-1.811-0.067-2.716
	C153.835,91.713,153.725,90.846,153.909,89.99z"/>
<path fill="#FEFEFE" d="M117.138,97.673c1.806,0,3.611-0.001,5.417,0.001c0.82,0.001,0.921,0.093,1.028,0.91
	c0.422,3.233-1.76,6.444-4.942,7.271c-3.064,0.796-6.284-0.956-7.526-4.022c-0.439-1.084-0.555-2.176-0.496-3.314
	c0.029-0.573,0.298-0.858,0.908-0.852C113.396,97.684,115.267,97.673,117.138,97.673z"/>
<path fill="#FEFEFE" d="M128.334,98.058c2.02-0.32,4.008-0.657,5.961-1.176c4.863-1.292,8.783-4.016,11.914-7.911
	c0.392-0.488,0.704-0.714,1.378-0.478c0.938,0.328,1.935,0.489,2.91,0.707c0.578,0.129,0.935,0.437,0.964,1.056
	c0.022,0.478,0.072,0.956,0.054,1.432c-0.018,0.497-0.301,0.834-0.756,1.053c-2.977,1.433-5.935,2.904-8.928,4.303
	c-2.183,1.021-4.004,2.442-5.371,4.432c-0.144,0.21-0.234,0.445-0.601,0.263C133.357,100.5,130.844,99.282,128.334,98.058z"/>
<path fill="#B1D3FC" d="M79.114,94.789c-0.471,0.045-0.767-0.245-0.734-0.639c0.127-1.519,0.011-3.036,0.045-4.553
	c0.016-0.734,0.427-1.177,1.05-1.431c1.77-0.724,3.573-1.376,5.22-2.369c0.342-0.206,0.414,0.064,0.524,0.257
	c0.647,1.133,1.36,2.219,2.174,3.243c1.613,2.027,3.552,3.683,5.702,5.108c0.107,0.071,0.199,0.163,0.298,0.245
	c-0.218,0.154-0.465,0.076-0.697,0.077c-4.291,0.005-8.583,0.003-12.874,0.007C79.586,94.732,79.342,94.677,79.114,94.789z"/>
<path fill="#FEFEFE" d="M40.516,56.031c0,1.369,0.001,2.738,0,4.108c0,0.759-0.168,0.925-0.917,0.918
	c-2.124-0.021-3.992-1.644-4.624-4.017c-0.762-2.86,1.696-6.137,4.605-6.139c0.799-0.001,0.924,0.127,0.926,0.958
	c0.002,1.391,0.001,2.782,0.001,4.173C40.509,56.031,40.513,56.031,40.516,56.031z"/>
<path fill="#FEFEFE" d="M187.455,56.23c0-1.416-0.008-2.832,0.003-4.248c0.005-0.697,0.22-0.843,0.843-0.548
	c1.989,0.943,3.1,2.501,3.131,4.727c0.03,2.182-1.068,3.713-2.942,4.717c-0.794,0.425-1.048,0.239-1.045-0.662
	c0.004-1.329,0.001-2.657,0.001-3.986C187.45,56.23,187.452,56.23,187.455,56.23z"/>
<path fill="#FEFEFE" d="M86.818,48.87c0,2.028,0.002,4.047-0.002,6.067c-0.001,0.344-0.199,0.583-0.508,0.691
	c-0.905,0.313-1.673,0.811-2.29,1.553c-0.275,0.331-0.591,0.355-0.837-0.065C81.022,53.433,83.569,49.519,86.818,48.87z"/>
<path fill="#FEFEFE" d="M147.331,52.112c0-0.936,0.012-1.872-0.006-2.807c-0.007-0.358,0.04-0.506,0.458-0.388
	c3.473,0.979,5.075,5.523,2.972,8.446c-0.151,0.209-0.246,0.334-0.477,0.078c-0.721-0.8-1.529-1.484-2.574-1.835
	c-0.328-0.11-0.375-0.385-0.374-0.686C147.333,53.984,147.331,53.048,147.331,52.112z"/>
<path fill="#FEFEFE" d="M159.791,119.505c-0.654,0-1.308-0.016-1.96,0.006c-0.379,0.013-0.559-0.037-0.438-0.491
	c0.6-2.247,1.174-4.501,1.761-6.752c0.085-0.327,0.295-0.547,0.644-0.545c0.352,0.002,0.531,0.225,0.619,0.562
	c0.587,2.252,1.175,4.504,1.785,6.75c0.109,0.402-0.005,0.489-0.384,0.476C161.143,119.489,160.467,119.505,159.791,119.505z"/>
<path fill="#FEFEFE" d="M96.027,102.305c-0.123-0.37-0.08-0.693,0.091-1.086c0.296-0.68,0.138-1.43-0.117-2.097
	c-0.473-1.232,0.078-1.762,1.346-1.725c0.89,0.026,1.802-0.101,2.668,0.048c1.463,0.253,2.928,0.485,4.446,0.772
	C101.649,99.581,98.837,100.943,96.027,102.305z"/>
<path fill="#FEFEFE" d="M159.836,109.306c-1.312,0.085-2.135-0.62-2.814-1.555c-0.38-0.524-0.253-1.049,0.15-1.488
	c0.691-0.752,1.409-1.482,2.132-2.204c0.288-0.287,0.623-0.289,0.92,0.01c0.72,0.726,1.456,1.438,2.144,2.194
	c0.531,0.584,0.522,0.998,0.049,1.635C161.763,108.779,160.958,109.393,159.836,109.306z"/>
<path fill="#EFF0F1" d="M153.892,114.482c0-1.5,0.005-3-0.004-4.501c-0.002-0.368,0.077-0.693,0.359-0.939
	c0.348-0.303,0.651-0.408,0.917,0.13c0.316,0.639,0.913,1.038,1.432,1.495c0.319,0.281,0.398,0.559,0.288,0.972
	c-0.656,2.454-1.304,4.91-1.914,7.375c-0.114,0.462-0.344,0.503-0.73,0.499c-0.491-0.005-0.354-0.347-0.355-0.596
	c-0.009-1.478-0.005-2.957-0.005-4.436C153.884,114.482,153.888,114.482,153.892,114.482z"/>
<path fill="#F2F3F3" d="M165.613,114.692c0,1.437,0.003,2.875-0.003,4.312c-0.001,0.222,0.081,0.505-0.315,0.505
	c-0.316,0.001-0.567,0.011-0.673-0.405c-0.633-2.486-1.296-4.964-1.946-7.445c-0.107-0.409-0.065-0.743,0.349-1.011
	c0.591-0.382,1.058-0.912,1.412-1.519c0.234-0.402,0.418-0.315,0.685-0.048c0.384,0.383,0.509,0.846,0.509,1.365
	c-0.001,1.415,0,2.831,0,4.246C165.626,114.692,165.619,114.692,165.613,114.692z"/>
<path fill="#FCFDFD" d="M151.497,47.97c0.721,0,1.329-0.014,1.937,0.003c1.07,0.031,1.452,0.385,1.478,1.475
	c0.039,1.588,0.032,3.178,0.029,4.767c-0.002,0.76,0.048,1.526-0.145,2.275c-0.263,1.016-0.788,1.835-1.743,2.354
	C155.188,54.868,154.614,51.295,151.497,47.97z"/>
<path fill="#B1D3FC" d="M82.226,75.197c-0.195-0.615-0.065-1.247-0.087-1.871c-0.025-0.695-0.034-1.392,0-2.086
	c0.029-0.59-0.122-1.043-0.508-1.528c-1.654-2.079-1.429-4.086,0.596-6.042C82.227,67.513,82.226,71.355,82.226,75.197z"/>
<path fill="#F2F3F3" d="M165.499,105.945c-0.97-0.963-1.864-1.847-2.756-2.735c-0.244-0.243-0.236-0.473,0.102-0.602
	c0.963-0.366,1.796-0.945,2.654-1.652C165.499,102.643,165.499,104.234,165.499,105.945z"/>
<path fill="#E9ECEE" d="M153.892,101.072c0.482-0.009,0.767,0.37,1.114,0.601c0.617,0.41,1.246,0.783,2.055,1.062
	c-1.096,0.903-1.974,1.959-3.172,2.65C153.785,103.948,153.782,102.51,153.892,101.072z"/>
<path fill="#BBD0FE" d="M79.114,94.789c0.219-0.215,0.495-0.118,0.744-0.118c4.512-0.012,9.024-0.016,13.535-0.022
	c0.04,0.036,0.079,0.072,0.119,0.108c-0.08,0.018-0.16,0.052-0.24,0.052C88.552,94.804,83.833,94.796,79.114,94.789z"/>
<path fill="#2C97E8" d="M176.372,35.567c-2.569,0.16-5.139,0.173-7.708,0c0.13-0.158,0.312-0.123,0.481-0.123
	c2.248-0.001,4.497-0.001,6.745,0C176.06,35.444,176.242,35.409,176.372,35.567z"/>
<path fill="#2C97E8" d="M63.965,98.628c0.022,0.033,0.02,0.066-0.004,0.097c-0.175-0.119-0.147-0.302-0.147-0.473
	c-0.001-3.006,0-6.012,0.002-9.019c0-0.06,0.03-0.121,0.149-0.179C63.965,92.245,63.965,95.437,63.965,98.628z"/>
<path fill="#3E6FF8" d="M181.307,48.531c0,2.466,0,4.932,0,7.398c-0.016,0-0.032,0-0.048,0.001c0-2.466,0-4.932,0-7.398
	C181.275,48.531,181.291,48.531,181.307,48.531z"/>
<path fill="#2C97E8" d="M153.909,89.99c-0.002,1.766-0.003,3.532-0.005,5.299c-0.011,0.086-0.022,0.171-0.034,0.257
	c-0.038-0.006-0.096-0.01-0.096-0.015c-0.008-1.818-0.012-3.636-0.014-5.454c0-0.037,0.016-0.088,0.042-0.105
	C153.824,89.957,153.872,89.982,153.909,89.99z"/>
<path fill="#BACFFE" d="M42.242,100.679c0.126-0.163,0.308-0.129,0.477-0.13c1.208-0.002,2.416-0.002,3.625,0
	c0.169,0,0.351-0.032,0.476,0.132C45.294,100.681,43.768,100.68,42.242,100.679z"/>
<path fill="#366AF9" d="M153.892,101.072c-0.001,1.438-0.002,2.875-0.003,4.313c-0.036-0.004-0.104-0.008-0.104-0.013
	c-0.005-1.382-0.006-2.764-0.001-4.146C153.784,101.175,153.854,101.124,153.892,101.072z"/>
<path fill="#BACFFE" d="M93.335,104.328c-0.237-1.048-0.056-2.109-0.098-3.163c-0.012-0.288-0.119-0.61,0.116-0.874
	C93.347,101.637,93.341,102.982,93.335,104.328z"/>
<path fill="#2C97E8" d="M178.598,35.445c-0.205,0.006-0.411,0.012-0.616,0.019c-0.275-0.018-0.549-0.036-0.824-0.054
	C177.643,35.365,178.133,35.17,178.598,35.445z"/>
<path fill="#B1D3FC" d="M134.297,65.121c-2.37-0.011-4.08-1.725-4.073-4.08c0.007-2.245,1.858-4.026,4.181-4.023
	c2.324,0.003,3.939,1.697,3.924,4.113C138.313,63.538,136.702,65.132,134.297,65.121z"/>
<path fill="#B1D3FC" d="M95.837,61.035c0.004-2.265,1.717-4.019,3.924-4.017c2.348,0.002,4.21,1.824,4.183,4.094
	c-0.027,2.266-1.853,4.013-4.191,4.009C97.526,65.117,95.833,63.35,95.837,61.035z"/>
<path fill="#2C97E8" d="M111.139,53.844c0.008,0.783-0.371,1.25-1.153,1.421c-0.588,0.129-1.161-0.2-1.443-0.855
	c-0.119-0.277-0.179-0.579-0.287-0.862c-0.418-1.087-1.151-1.638-2.184-1.656c-1.03-0.018-1.775,0.511-2.233,1.59
	c-0.168,0.396-0.316,0.784-0.632,1.117c-0.452,0.475-0.919,0.378-1.425,0.197c-0.569-0.204-0.847-0.641-0.779-1.215
	c0.269-2.255,2.494-4.556,5.313-4.421C108.711,49.275,111.116,51.576,111.139,53.844z"/>
<path fill="#2C97E8" d="M133.253,53.831c0.01,0.786-0.365,1.252-1.114,1.43c-0.593,0.141-1.112-0.127-1.423-0.759
	c-0.104-0.212-0.17-0.444-0.238-0.672c-0.354-1.189-1.082-1.856-2.112-1.926c-1.134-0.077-1.87,0.41-2.416,1.602
	c-0.099,0.217-0.169,0.448-0.279,0.66c-0.338,0.653-0.883,0.904-1.573,0.739c-0.639-0.152-0.964-0.614-0.936-1.372
	c0.01-0.258,0.056-0.519,0.125-0.768c0.571-2.061,3.039-3.754,5.216-3.587c2.213,0.17,4.433,2.165,4.719,4.244
	C133.243,53.572,133.246,53.725,133.253,53.831z"/>
<path fill="#2C97E8" d="M116.879,72.438c-2.367,0.105-4.637-0.358-6.724-1.592c-0.243-0.143-0.479-0.304-0.694-0.486
	c-0.754-0.636-0.846-1.256-0.312-1.984c0.476-0.648,1.097-0.774,1.886-0.208c1.885,1.352,4.015,1.715,6.252,1.645
	c1.981-0.062,3.878-0.455,5.551-1.627c0.768-0.538,1.385-0.483,1.88,0.053c0.605,0.656,0.556,1.414-0.188,2.05
	c-1.027,0.878-2.233,1.423-3.536,1.753C119.656,72.381,118.291,72.475,116.879,72.438z"/>
<path fill="#2C97E8" d="M116.843,77.186c-0.761-0.01-1.52,0.01-2.24-0.315c-0.672-0.304-0.963-0.839-0.795-1.521
	c0.18-0.729,0.619-1.052,1.379-0.988c1.066,0.09,2.129,0.063,3.194-0.013c0.812-0.058,1.342,0.279,1.501,0.945
	c0.185,0.774-0.114,1.316-0.917,1.64c-0.18,0.073-0.37,0.145-0.561,0.162C117.886,77.143,117.364,77.159,116.843,77.186z"/>
<path fill="#2C97E8" d="M76.491,69.051c1.429-0.034,2.012,0.66,1.713,2.036c-0.669,3.078-3.449,5.628-6.716,6.16
	c-4.118,0.67-8.244-2.028-9.272-6.063c-0.35-1.374,0.218-2.131,1.6-2.134c0.139,0.088,0.295,0.059,0.444,0.059
	c3.928,0.001,7.857,0.001,11.785,0C76.196,69.108,76.351,69.136,76.491,69.051z"/>
<path fill="#B1D3FC" d="M56.027,71.144c-2.125,0.001-4.156-1.944-4.086-4.011c0.083-2.436,1.894-4.287,4.142-4.25
	c1.977,0.033,3.977,1.578,4.031,3.843C60.173,69.289,58.394,71.143,56.027,71.144z"/>
<path fill="#2C97E8" d="M62.287,58.015c-0.027,1.525-1.324,2.802-2.811,2.768c-1.535-0.035-2.773-1.351-2.744-2.915
	c0.028-1.512,1.355-2.807,2.829-2.761C61.138,55.157,62.316,56.413,62.287,58.015z"/>
<path fill="#2C97E8" d="M55.2,53.759c-1.048,0.176-1.593-1.13-1.116-1.875c0.41-0.64,0.981-1.106,1.597-1.517
	c1.697-1.133,3.608-1.327,5.573-1.172c0.499,0.039,0.893,0.376,0.961,0.915c0.091,0.714-0.236,1.314-0.825,1.423
	c-0.723,0.135-1.467,0.153-2.198,0.25c-1.18,0.157-2.206,0.632-3.01,1.535C55.909,53.626,55.59,53.832,55.2,53.759z"/>
<path fill="#2C97E8" d="M70.028,64.837c-0.788,0.033-1.521-0.054-2.236-0.252c-0.756-0.21-1.096-0.788-0.943-1.542
	c0.135-0.664,0.653-1.014,1.427-0.912c1.149,0.151,2.292,0.151,3.442-0.003c0.843-0.113,1.38,0.27,1.502,0.989
	c0.124,0.726-0.234,1.234-1.047,1.478c-0.186,0.056-0.377,0.097-0.568,0.133C71.07,64.829,70.53,64.872,70.028,64.837z"/>
<path fill="#3066F8" d="M76.491,69.051c-0.175,0.19-0.406,0.119-0.614,0.119c-3.816,0.004-7.632,0.004-11.448,0
	c-0.208,0-0.439,0.072-0.613-0.12C68.041,69.05,72.266,69.05,76.491,69.051z"/>
<path fill="#2C97E8" d="M131.269,118.198c-1.633,0-3.265,0.003-4.898-0.001c-0.874-0.002-1.392-0.437-1.37-1.139
	c0.02-0.643,0.566-1.081,1.371-1.082c3.265-0.003,6.531-0.003,9.796,0c0.832,0.001,1.398,0.478,1.375,1.143
	c-0.022,0.642-0.568,1.075-1.375,1.077C134.535,118.2,132.902,118.198,131.269,118.198z"/>
<path fill="#2C97E8" d="M159.86,72.926c-1.99-0.145-3.821-0.238-5.515-1.035c-0.673-0.317-1.317-0.678-1.821-1.241
	c-0.467-0.521-0.486-1.076-0.063-1.586c0.473-0.57,1.014-0.706,1.605-0.281c2.802,2.018,5.877,1.827,9.011,1.148
	c0.731-0.158,1.36-0.552,1.953-1.013c0.702-0.546,1.261-0.488,1.768,0.123c0.484,0.584,0.438,1.205-0.197,1.781
	c-1.276,1.157-2.851,1.632-4.51,1.871C161.297,72.808,160.493,72.862,159.86,72.926z"/>
<path fill="#2C97E8" d="M159.802,67.877c-1.099,0.008-2.088-0.112-3.016-0.542c-1.5-0.694-2.226-1.896-2.256-3.525
	c-0.014-0.779,0.427-1.23,1.181-1.286c0.717-0.054,1.15,0.315,1.277,1.089c0.184,1.124,0.543,1.491,1.653,1.689
	c0.783,0.14,1.564,0.106,2.336-0.064c0.836-0.184,1.201-0.61,1.305-1.483c0.105-0.879,0.497-1.25,1.292-1.225
	c0.752,0.024,1.152,0.484,1.176,1.349c0.043,1.573-0.963,3.005-2.547,3.588C161.404,67.764,160.579,67.958,159.802,67.877z"/>
<path fill="#2C97E8" d="M159.782,77.133c-0.841,0.017-1.535-0.013-2.207-0.214c-0.667-0.2-0.933-0.676-0.819-1.413
	c0.097-0.633,0.509-1.028,1.172-0.955c1.062,0.117,2.11,0.117,3.173-0.002c0.677-0.076,1.074,0.313,1.213,1.004
	c0.124,0.613-0.143,1.092-0.754,1.339C160.942,77.142,160.291,77.148,159.782,77.133z"/>
<path fill="#2C97E8" d="M171.455,39.771c1.626-0.076,3.171,0.267,4.667,0.832c0.918,0.347,1.18,1.04,0.758,1.805
	c-0.325,0.59-0.848,0.774-1.635,0.513c-1.269-0.421-2.558-0.695-3.902-0.687c-1.342,0.009-2.628,0.307-3.902,0.702
	c-0.956,0.296-1.643-0.164-1.718-1.099c-0.047-0.582,0.311-1.042,1.072-1.298C168.309,40.029,169.856,39.7,171.455,39.771z"/>
<path fill="#2C97E8" d="M176.506,107.234c0.042,1.071-0.527,1.908-0.902,2.801c-0.605,1.442-1.257,2.865-1.889,4.296
	c-0.465,1.053-1.102,1.389-1.909,1.006c-0.685-0.325-0.887-0.901-0.52-1.771c0.515-1.221,1.091-2.416,1.633-3.625
	c0.275-0.614,0.487-1.262,0.814-1.847c0.344-0.615,0.229-1.152-0.063-1.718c-0.438-0.85-0.875-1.702-1.294-2.562
	c-0.397-0.816-0.206-1.404,0.555-1.801c0.644-0.335,1.204-0.087,1.645,0.674c0.622,1.074,1.136,2.2,1.655,3.325
	C176.416,106.412,176.536,106.826,176.506,107.234z"/>
<path fill="#2C97E8" d="M174.075,53.761c0.002,1.617-1.135,2.813-2.691,2.829c-1.47,0.015-2.755-1.31-2.75-2.834
	c0.005-1.525,1.212-2.721,2.751-2.725C172.949,51.027,174.073,52.167,174.075,53.761z"/>
<path fill="#2C97E8" d="M34.75,112H3.25C2.562,112,2,111.438,2,110.75l0,0c0-0.688,0.562-1.25,1.25-1.25h31.5
	c0.688,0,1.25,0.562,1.25,1.25l0,0C36,111.438,35.438,112,34.75,112z"/>
<path fill="#2C97E8" d="M226.75,112h-31.5c-0.688,0-1.25-0.562-1.25-1.25l0,0c0-0.688,0.562-1.25,1.25-1.25h31.5
	c0.688,0,1.25,0.562,1.25,1.25l0,0C228,111.438,227.438,112,226.75,112z"/>
</svg>
