<?xml version="1.0" encoding="utf-8"?>
<!-- Generator: Adobe Illustrator 21.0.0, SVG Export Plug-In . SVG Version: 6.00 Build 0)  -->
<svg version="1.2" baseProfile="tiny" id="图层_1"
	 xmlns="http://www.w3.org/2000/svg" xmlns:xlink="http://www.w3.org/1999/xlink" x="0px" y="0px" viewBox="0 0 43 49"
	 xml:space="preserve">
<path fill="#2C97E8" d="M31.8,9c-1.3,0.9-2.7,1.8-4.1,2.9c-1.1,0.9-3.1,2.1-3.2,3.8c-0.2,2.5,3.7,4.8,1.6,8
	c-0.8,1.2-2.1,1.7-3.8,2.5c-0.2-0.4,0.4-0.7,0.7-1.1c2.6-3.7-2.7-4.9-2-9.5C21.7,11.2,26.9,9.6,31.8,9L31.8,9z M15.5,24.3
	c-1.2,0.6-3.2,0.7-4.1,1.9c0.9,0.7,2.2,0.6,3.4,0.7c4.9,0.2,11.1-0.2,15.4-0.9c0.1,0.3-0.6,0.8-1.1,1.2c-2.7,1.9-10.9,2.5-16.6,2.1
	c-1.9-0.1-6.3-0.6-6.3-2.3c-0.1-2.1,5.3-2.3,7.5-2.5C14,24.3,14.8,24.2,15.5,24.3L15.5,24.3z M13,29.5c0.6,0.1-0.4,0.4-0.2,0.8
	c2,2,8.3,1.4,11.4,0.8c0.6-0.1,1.3-0.5,1.8-0.5c1.2,0.1,1.9,1.5,2.9,1.6c-3.6,1.6-10.4,2.4-15.5,1.4c-1.3-0.2-3.6-0.9-3.6-2
	C9.6,30.3,12,29.7,13,29.5L13,29.5z M14.5,34.3c0.4,0.1-0.1,0.3-0.1,0.5c1.1,1.9,6.3,1.2,9,0.6c0.5-0.1,1.1-0.5,1.5-0.5
	c1.4,0.1,1.9,1.5,3,1.8C24.3,39,15.2,39.9,11.5,37C11.3,34.9,13,34.7,14.5,34.3L14.5,34.3z M11.1,37.9c-1.1,0.3-4-0.1-4.1,1.4
	c0,0.6,1,1.3,1.6,1.5c3.8,1.4,11.5,1.7,17.8,0.9c2.9-0.3,8.4-1.3,7.7-4.3c0.9,0.1,1.7,0.7,1.8,1.5c0.4,3.2-7.1,4.6-10.1,4.9
	c-6.5,0.7-14.7,0.6-19.7-1.2C4.5,42,2.5,41,2.6,39.4C2.8,36.9,9.2,36.1,11.1,37.9L11.1,37.9z M21.1,47.6c-4.4-0.5-8.6-1.1-12.2-2.7
	c9.3,2.2,22.9,2.1,29.4-2.7c0.4-0.3,0.7-0.8,1.2-0.7c-1.6,4.9-7.9,5.3-13.4,6.1L21.1,47.6L21.1,47.6z M24.1,1
	c0.8,0.8,1.4,2.2,1.4,3.8c0,4.5-4.8,7.2-7.2,10.2c-0.5,0.7-1.2,1.7-1.2,2.8c0,2.5,2.6,5.2,3.5,7.3c-1.6-1.1-3.6-2.5-5-4.2
	s-2.8-4.4-1.5-6.8c1.9-3.6,7.7-5.7,9.7-9.5C24.4,3.6,24.8,2.2,24.1,1L24.1,1z M31.1,25.4c2.4-2.1,6.5-1.3,6.7,2.2
	c0.2,4.1-4.3,6.4-7.5,6.6c1.5-1.4,5.5-3.7,4.7-7C34.6,25.9,32.9,25,31.1,25.4L31.1,25.4z"/>
</svg>
