<?xml version="1.0" encoding="utf-8"?>
<!-- Generator: Adobe Illustrator 21.0.0, SVG Export Plug-In . SVG Version: 6.00 Build 0)  -->
<svg version="1.2" baseProfile="tiny" id="图层_1"
	 xmlns="http://www.w3.org/2000/svg" xmlns:xlink="http://www.w3.org/1999/xlink" x="0px" y="0px" viewBox="0 0 60 60"
	 xml:space="preserve">
<g>
	<g>
		<path fill="#2C97E8" d="M53.339,13.926c-0.638-0.823-1.822-0.973-2.644-0.335c-0.763,0.591-0.956,1.663-0.447,2.484
			c7.731,11.107,4.993,26.378-6.114,34.109s-26.378,4.993-34.109-6.114c-2.858-4.106-4.39-8.988-4.392-13.991
			C5.682,19.255,12.785,9.73,23.144,6.594c0.999-0.297,1.569-1.347,1.272-2.347s-1.347-1.569-2.347-1.272
			C7.104,7.43-1.416,23.174,3.039,38.139s20.199,23.485,35.164,19.03c11.985-3.568,20.202-14.586,20.205-27.09
			C58.42,24.301,56.649,18.661,53.339,13.926z"/>
		<path fill="#2C97E8" d="M37.129,6.594c2.938,0.892,5.682,2.33,8.086,4.241c0.817,0.645,2.003,0.506,2.648-0.311
			c0.645-0.817,0.506-2.003-0.311-2.648c-2.801-2.218-6-3.881-9.424-4.901c-0.999-0.297-2.05,0.273-2.347,1.272
			c-0.297,0.999,0.273,2.05,1.272,2.347H37.129z"/>
		<path fill="#2C97E8" d="M28.798,5.029c0.183,0.166,0.394,0.3,0.622,0.396c0.456,0.202,0.976,0.202,1.432,0
			c0.228-0.096,0.439-0.23,0.622-0.396c0.353-0.356,0.55-0.837,0.547-1.338c-0.007-0.499-0.202-0.977-0.547-1.338
			c-0.442-0.461-1.088-0.667-1.715-0.547c-0.118,0.021-0.232,0.059-0.339,0.113c-0.12,0.041-0.234,0.098-0.339,0.17l-0.283,0.226
			c-0.172,0.179-0.306,0.391-0.396,0.622c-0.102,0.238-0.153,0.495-0.151,0.754c0.003,0.246,0.054,0.49,0.151,0.716
			C28.498,4.635,28.632,4.846,28.798,5.029z"/>
	</g>
	<path fill="#2C97E8" d="M30.133,39.305c-4.124,0-12.275-10.406-12.275-17.186c0.001-6.779,5.496-12.274,12.275-12.274
		s12.275,5.496,12.275,12.274C42.408,28.899,33.914,39.305,30.133,39.305L30.133,39.305z"/>
	<path fill="#FFFFFF" d="M30.133,13.118c-4.971,0-9.002,4.03-9.002,9.002c0,4.972,5.712,12.275,9.002,12.275
		c3.47,0,9.002-7.303,9.002-12.275C39.135,17.148,35.104,13.118,30.133,13.118L30.133,13.118z"/>
	<path fill="#5196E2" d="M30.133,24.575c-1.356,0-2.455-1.099-2.455-2.455c0-1.356,1.099-2.455,2.455-2.455
		c1.356,0,2.455,1.099,2.455,2.455c0,0.651-0.259,1.276-0.719,1.736C31.408,24.316,30.784,24.575,30.133,24.575L30.133,24.575z"/>
	<path fill="#2C97E8" d="M19.838,36.281c-1.751,0.835-2.799,1.882-2.799,3.025c0,2.712,5.859,4.91,13.094,4.91
		s13.093-2.198,13.093-4.91c0-1.146-1.047-2.19-2.799-3.025c0.581-0.853,0.946-1.833,1.064-2.858
		c3.077,1.488,5.008,3.571,5.008,5.882c0,4.519-7.332,8.183-16.367,8.183c-9.035,0-16.367-3.664-16.367-8.183
		c0-2.311,1.931-4.395,5.008-5.882C18.892,34.447,19.257,35.428,19.838,36.281L19.838,36.281z"/>
</g>
</svg>
