<?xml version="1.0" encoding="UTF-8" standalone="no"?><!DOCTYPE svg PUBLIC "-//W3C//DTD SVG 1.1//EN" "http://www.w3.org/Graphics/SVG/1.1/DTD/svg11.dtd"><svg width="100%" height="100%" viewBox="0 0 43 44" version="1.1" xmlns="http://www.w3.org/2000/svg" xmlns:xlink="http://www.w3.org/1999/xlink" xml:space="preserve" xmlns:serif="http://www.serif.com/" style="fill-rule:evenodd;clip-rule:evenodd;stroke-linejoin:round;stroke-miterlimit:2;"><g><path d="M21.5,0.9c11.645,0 21.1,9.455 21.1,21.1c0,11.645 -9.455,21.1 -21.1,21.1c-11.645,0 -21.1,-9.455 -21.1,-21.1c0,-11.645 9.455,-21.1 21.1,-21.1Zm-15.838,26.883c-0.413,0 -0.756,-0.127 -1.031,-0.381c-0.275,-0.253 -0.412,-0.565 -0.412,-0.935c0,-0.381 0.141,-0.692 0.424,-0.935c0.283,-0.244 0.636,-0.365 1.058,-0.365c0.428,0 0.778,0.123 1.051,0.368c0.272,0.246 0.408,0.557 0.408,0.932c0,0.386 -0.139,0.701 -0.416,0.947c-0.278,0.246 -0.638,0.369 -1.082,0.369Zm22.909,-9.481l0,-2.085l-6.556,0l0,11.368l6.818,0l0,-2.077l-4.257,0l0,-2.6l3.718,0l0,-2.077l-3.718,0l0,-2.529l3.995,0Zm10.21,0l0,-2.085l-9.037,0l0,2.085l3.227,0l0,9.283l2.568,0l0,-9.283l3.242,0Zm-19.366,9.283l0,-11.368l-2.418,0l0,6.286c0,0.777 0.022,1.298 0.064,1.562l-0.032,0c-0.174,-0.307 -0.365,-0.616 -0.571,-0.927l-4.51,-6.921l-2.759,0l0,11.368l2.418,0l0,-6.247c0,-0.824 -0.021,-1.437 -0.063,-1.839l0.031,0c0.106,0.211 0.296,0.526 0.571,0.943l4.685,7.143l2.584,0Z" style="fill:#2c97e8;"/></g></svg>