<?xml version="1.0" encoding="utf-8"?>
<!-- Generator: Adobe Illustrator 21.0.0, SVG Export Plug-In . SVG Version: 6.00 Build 0)  -->
<svg version="1.2" baseProfile="tiny" id="图层_1"
	 xmlns="http://www.w3.org/2000/svg" xmlns:xlink="http://www.w3.org/1999/xlink" x="0px" y="0px" viewBox="0 0 71 38"
	 xml:space="preserve">
<g>
	<path fill="#2C97E8" d="M20.9,13.6h-2.7l-1.5,7.7h2.4c1.6,0,2.8-0.3,3.6-0.9c0.8-0.6,1.3-1.6,1.6-3c0.3-1.4,0.1-2.3-0.4-2.9
		C23.5,13.9,22.4,13.6,20.9,13.6z"/>
	<path fill="#2C97E8" d="M35.4,0.6C16.2,0.6,0.7,8.7,0.7,18.8s15.5,18.3,34.7,18.3s34.7-8.2,34.7-18.3S54.5,0.6,35.4,0.6z
		 M25.9,22.1c-0.8,0.7-1.7,1.3-2.7,1.6c-1,0.3-2.2,0.5-3.7,0.5h-3.4L15.2,29h-4l3.6-18.3h7.7c2.3,0,4,0.6,5,1.8
		c1.1,1.2,1.4,2.9,1,5.1c-0.2,0.9-0.5,1.7-0.9,2.4C27.1,20.8,26.6,21.5,25.9,22.1z M37.6,24.2l1.6-8.1c0.2-0.9,0.1-1.6-0.2-1.9
		c-0.3-0.3-1-0.5-2-0.5h-3.2l-2,10.5h-4l3.6-18.3h4l-0.9,4.9H38c2.2,0,3.7,0.4,4.6,1.2s1.1,2,0.8,3.8l-1.7,8.5L37.6,24.2L37.6,24.2z
		 M59.5,17.6c-0.2,0.9-0.5,1.7-0.9,2.4c-0.4,0.7-1,1.4-1.6,2c-0.8,0.7-1.7,1.3-2.7,1.6c-1,0.3-2.2,0.5-3.7,0.5h-3.4L46.3,29h-4
		l3.6-18.3h7.7c2.3,0,4,0.6,5,1.8C59.6,13.8,60,15.5,59.5,17.6L59.5,17.6z"/>
	<path fill="#2C97E8" d="M52,13.6h-2.7l-1.5,7.7h2.4c1.6,0,2.8-0.3,3.6-0.9s1.3-1.6,1.6-3s0.1-2.3-0.4-2.9S53.6,13.6,52,13.6z"/>
</g>
</svg>
