<?xml version="1.0" encoding="utf-8"?>
<!-- Generator: Adobe Illustrator 21.0.0, SVG Export Plug-In . SVG Version: 6.00 Build 0)  -->
<svg version="1.1" id="图层_1" xmlns="http://www.w3.org/2000/svg" xmlns:xlink="http://www.w3.org/1999/xlink" x="0px" y="0px"
	 viewBox="0 0 422 345" style="enable-background:new 0 0 422 345;" xml:space="preserve">
<style type="text/css">
	.st0{opacity:0.49;fill:#B2DBF7;}
	.st1{fill:#FFFFFF;stroke:#A5CAE5;stroke-width:3;stroke-miterlimit:10;}
	.st2{fill:#FFFFFF;stroke:#7F9ABA;stroke-width:3;stroke-miterlimit:10;}
	.st3{fill:#A5CAE5;}
	.st4{fill:#7F9ABA;}
	.st5{fill:none;stroke:#455D82;stroke-width:3;stroke-miterlimit:10;}
	.st6{fill:#455D82;}
	.st7{fill:#FFFFFF;stroke:#455D82;stroke-width:3;stroke-miterlimit:10;}
	.st8{fill:none;stroke:#A5CAE5;stroke-width:6;stroke-miterlimit:10;}
	.st9{fill:#FFFFFF;stroke:#A5CAE5;stroke-width:4;stroke-miterlimit:10;}
	.st10{fill:#FFFFFF;stroke:#455D82;stroke-width:4;stroke-miterlimit:10;}
</style>
<g>
	<polygon class="st0" points="192.6,35.9 204.5,47.9 170.1,47.3 217,72.2 210.4,150.5 229.5,194.5 279.6,253 289.7,276.3 
		340.7,244.4 360.2,154.3 302.9,60.6 	"/>
	<g>
		<g>
			<line class="st1" x1="190.9" y1="36" x2="109.9" y2="90.4"/>
			<line class="st1" x1="109.9" y1="90.4" x2="83.8" y2="195.1"/>
			<line class="st1" x1="83.8" y1="195.1" x2="126.3" y2="273"/>
			<line class="st1" x1="126.3" y1="273" x2="232.2" y2="312"/>
			<line class="st1" x1="232.2" y1="312" x2="340.1" y2="245"/>
			<line class="st1" x1="340.1" y1="245" x2="359.6" y2="153.5"/>
			<line class="st1" x1="359.6" y1="153.5" x2="302.3" y2="61.2"/>
			<line class="st1" x1="302.3" y1="61.2" x2="190.9" y2="36"/>
			<line class="st1" x1="190.9" y1="36" x2="266.9" y2="109.4"/>
			<line class="st1" x1="266.9" y1="109.4" x2="307" y2="179.6"/>
			<line class="st1" x1="307" y1="179.6" x2="278.9" y2="253.6"/>
			<line class="st1" x1="278.9" y1="253.6" x2="232.2" y2="312"/>
			<line class="st1" x1="232.2" y1="312" x2="138.7" y2="209.5"/>
			<line class="st1" x1="138.7" y1="209.5" x2="133.7" y2="150"/>
			<line class="st1" x1="133.7" y1="150" x2="109.9" y2="90.4"/>
			<line class="st1" x1="109.9" y1="90.4" x2="182" y2="86.7"/>
			<line class="st1" x1="182" y1="86.7" x2="190.9" y2="36"/>
			<line class="st1" x1="182" y1="86.7" x2="266.9" y2="109.4"/>
			<line class="st1" x1="266.9" y1="109.4" x2="302.3" y2="61.2"/>
			<line class="st1" x1="302.3" y1="61.2" x2="307" y2="179.6"/>
			<line class="st1" x1="307" y1="179.6" x2="359.6" y2="153.5"/>
			<line class="st1" x1="359.6" y1="153.5" x2="278.9" y2="253.6"/>
			<line class="st1" x1="278.9" y1="253.6" x2="340.1" y2="245"/>
			<line class="st1" x1="278.9" y1="253.6" x2="228.9" y2="195.1"/>
			<line class="st1" x1="228.9" y1="195.1" x2="182" y2="86.7"/>
			<line class="st1" x1="182" y1="86.7" x2="133.7" y2="150"/>
			<line class="st1" x1="133.7" y1="150" x2="83.8" y2="195.1"/>
			<line class="st1" x1="83.8" y1="195.1" x2="141.6" y2="212.7"/>
			<line class="st1" x1="141.6" y1="209.5" x2="228.9" y2="195.1"/>
			<line class="st1" x1="228.9" y1="195.1" x2="266.9" y2="109.4"/>
			<line class="st1" x1="307" y1="179.6" x2="228.9" y2="195.1"/>
			<line class="st1" x1="228.9" y1="195.1" x2="196.8" y2="269.5"/>
			<line class="st1" x1="196.8" y1="269.5" x2="278.9" y2="253.6"/>
			<line class="st2" x1="196.8" y1="269.5" x2="126.3" y2="273"/>
			<line class="st1" x1="126.3" y1="273" x2="138.7" y2="211.8"/>
			<line class="st1" x1="133.7" y1="150" x2="228.9" y2="195.1"/>
		</g>
	</g>
	<circle class="st3" cx="302.3" cy="61.3" r="4.9"/>
	<circle class="st3" cx="190.9" cy="36" r="4.9"/>
	<circle class="st3" cx="266.9" cy="109.4" r="4.9"/>
	<circle class="st3" cx="181.3" cy="86.7" r="4.9"/>
	<circle class="st3" cx="109.9" cy="91.6" r="4.9"/>
	<circle class="st3" cx="133.7" cy="150" r="4.9"/>
	<circle class="st4" cx="85.2" cy="195.1" r="4.9"/>
	<circle class="st3" cx="228.9" cy="195.1" r="4.9"/>
	<circle class="st3" cx="138.7" cy="210.5" r="4.9"/>
	<circle class="st3" cx="307" cy="178.4" r="4.9"/>
	<circle class="st3" cx="359.6" cy="154.9" r="4.9"/>
	<circle class="st3" cx="340.1" cy="245" r="4.9"/>
	<circle class="st3" cx="278.9" cy="253.6" r="4.9"/>
	<circle class="st3" cx="194.6" cy="269.5" r="4.9"/>
	<circle class="st3" cx="232.2" cy="312" r="4.9"/>
	<circle class="st3" cx="126.3" cy="273" r="4.9"/>
	<g>
		<g>
			<line class="st5" x1="169.4" y1="47.2" x2="278.1" y2="49.9"/>
			<line class="st5" x1="278.1" y1="49.9" x2="338" y2="107.4"/>
			<line class="st5" x1="338" y1="107.4" x2="346.2" y2="211.7"/>
			<line class="st5" x1="346.2" y1="211.7" x2="290" y2="283.2"/>
			<line class="st5" x1="290" y1="283.2" x2="180.5" y2="292.5"/>
			<line class="st5" x1="180.5" y1="292.5" x2="101.5" y2="225.1"/>
			<line class="st5" x1="101.5" y1="225.1" x2="91.4" y2="137.5"/>
			<line class="st5" x1="91.4" y1="137.5" x2="169.4" y2="47.2"/>
			<path class="st5" d="M216.4,72.8"/>
			<line class="st5" x1="216.4" y1="72.8" x2="278.1" y2="49.9"/>
			<line class="st5" x1="278.1" y1="49.9" x2="283" y2="110.2"/>
			<line class="st5" x1="283" y1="110.2" x2="338" y2="107.4"/>
			<line class="st5" x1="338" y1="107.4" x2="306" y2="162"/>
			<line class="st5" x1="306" y1="162" x2="346" y2="209.8"/>
			<line class="st5" x1="346" y1="209.8" x2="283" y2="234.9"/>
			<line class="st5" x1="283" y1="234.9" x2="290" y2="283.2"/>
			<polyline class="st5" points="216.4,72.8 209.8,151.1 283,234.9 290,283.2 197.7,241.1 			"/>
			<line class="st5" x1="197.7" y1="241.1" x2="180.5" y2="292.5"/>
			<line class="st5" x1="180.5" y1="292.5" x2="141" y2="188.1"/>
			<line class="st5" x1="141" y1="188.1" x2="101.5" y2="225.1"/>
			<line class="st5" x1="101.5" y1="225.1" x2="144.3" y2="112.2"/>
			<line class="st5" x1="144.3" y1="112.2" x2="91.4" y2="137.5"/>
			<line class="st5" x1="144.3" y1="112.2" x2="216.4" y2="72.8"/>
			<line class="st5" x1="216.4" y1="72.8" x2="209.8" y2="151.1"/>
			<line class="st5" x1="209.8" y1="151.1" x2="283" y2="110.2"/>
			<line class="st5" x1="283" y1="110.2" x2="216.4" y2="72.8"/>
			<line class="st5" x1="283" y1="110.2" x2="306" y2="162"/>
			<line class="st5" x1="306" y1="162" x2="209.8" y2="151.1"/>
			<line class="st5" x1="209.8" y1="151.1" x2="141" y2="188.1"/>
			<line class="st5" x1="141" y1="188.1" x2="144.3" y2="112.2"/>
			<line class="st5" x1="144.3" y1="112.2" x2="209.8" y2="151.1"/>
			<line class="st5" x1="209.8" y1="151.1" x2="197.7" y2="241.1"/>
			<line class="st5" x1="197.7" y1="241.1" x2="141" y2="188.1"/>
			<line class="st5" x1="209.8" y1="151.1" x2="283" y2="234.9"/>
			<line class="st5" x1="283" y1="234.9" x2="306" y2="162"/>
			<line class="st5" x1="283" y1="234.9" x2="197.7" y2="241.1"/>
		</g>
	</g>
	<circle class="st6" cx="169.4" cy="47.9" r="4.9"/>
	<circle class="st6" cx="278.1" cy="51" r="4.9"/>
	<circle class="st6" cx="216.4" cy="72.8" r="4.9"/>
	<circle class="st6" cx="144.3" cy="112.2" r="4.9"/>
	<circle class="st6" cx="91.4" cy="137.5" r="4.9"/>
	<circle class="st6" cx="209.8" cy="151.1" r="4.9"/>
	<circle class="st6" cx="283" cy="110.2" r="4.9"/>
	<circle class="st6" cx="338" cy="108.8" r="4.9"/>
	<circle class="st6" cx="346" cy="209.8" r="4.9"/>
	<circle class="st6" cx="306" cy="162.4" r="4.9"/>
	<circle class="st6" cx="283" cy="234.9" r="4.9"/>
	<circle class="st6" cx="141" cy="188.1" r="4.9"/>
	<circle class="st6" cx="101.5" cy="223.9" r="4.9"/>
	<circle class="st6" cx="197.7" cy="240.3" r="4.9"/>
	<circle class="st6" cx="180.5" cy="291.2" r="4.9"/>
	<path class="st6" d="M294.9,281.7c0,2.7-2.2,4.9-4.9,4.9c-2.7,0-4.9-2.2-4.9-4.9c0-2.7,1.3-4.9,4-4.9S294.9,279,294.9,281.7z"/>
	<line class="st7" x1="169.4" y1="47.9" x2="216.4" y2="72.8"/>
	<path class="st8" d="M126.9,314c-46.1-29.7-76.6-81.5-76.6-140.4c0-79.1,55.1-145.4,129-162.5"/>
	<path class="st8" d="M361.9,256.7c-28.8,50.1-82.8,83.8-144.7,83.8c-16.6,0-32.6-2.4-47.8-6.9"/>
	<path class="st8" d="M213.1,6.8c1.4,0,2.7,0,4.1,0C309.3,6.8,384,81.5,384,173.6c0,20.4-3.7,40-10.4,58.1"/>
	<circle class="st3" cx="179.2" cy="11.1" r="6"/>
	<circle class="st3" cx="213.1" cy="6.8" r="6"/>
	<circle class="st3" cx="373.5" cy="232" r="6"/>
	<circle class="st3" cx="362.1" cy="256.4" r="6"/>
	<circle class="st3" cx="169.2" cy="333.4" r="6"/>
	<circle class="st3" cx="127.3" cy="314.2" r="6"/>
	<g>
		<g>
			<path class="st9" d="M99.1,243h3.2c11.3,0,20.5-9.2,20.5-20.5v0c0-10.7-8.4-19.6-18.9-20.5c-3.6-10.2-13.3-17.5-24.8-17.5
				c-4.3,0-8.3,1.1-11.9,2.9c-4.9-6.8-12.9-11.3-21.9-11.3c-14.8,0-26.9,12-26.9,26.8C10.1,205.5,4,213.3,4,222.5v0
				c0,11.3,9.2,20.5,20.5,20.5h76.2"/>
			<path class="st9" d="M61.4,190.3c4.7-4.2,10.9-6.8,17.7-6.8c14.5,0,26.3,11.8,26.3,26.3c0,2.4-0.3,4.7-0.9,6.9"/>
		</g>
		<circle class="st3" cx="61.5" cy="190.3" r="2"/>
		<circle class="st3" cx="104.4" cy="217" r="2"/>
	</g>
	<g>
		<g>
			<path class="st10" d="M322.9,114.8h-3.2c-11.3,0-20.5-9.2-20.5-20.5v0c0-10.7,8.4-19.6,18.9-20.5c3.6-10.2,13.3-17.5,24.8-17.5
				c4.3,0,8.3,1.1,11.9,2.9c4.9-6.8,12.9-11.3,21.9-11.3c14.8,0,26.9,12,26.9,26.8c8.3,2.6,14.4,10.4,14.4,19.6v0
				c0,11.3-9.2,20.5-20.5,20.5h-76.2"/>
			<path class="st10" d="M360.6,62.1c-4.7-4.2-10.9-6.8-17.7-6.8c-14.5,0-26.3,11.8-26.3,26.3c0,2.4,0.3,4.7,0.9,6.9"/>
		</g>
		<circle class="st6" cx="360.6" cy="62.1" r="2"/>
		<circle class="st6" cx="317.7" cy="88.6" r="2"/>
	</g>
</g>
</svg>
