<?xml version="1.0" encoding="utf-8"?>
<!-- Generator: Adobe Illustrator 21.0.0, SVG Export Plug-In . SVG Version: 6.00 Build 0)  -->
<svg version="1.2" baseProfile="tiny" id="图层_1"
	 xmlns="http://www.w3.org/2000/svg" xmlns:xlink="http://www.w3.org/1999/xlink" x="0px" y="0px" viewBox="0 0 45 42"
	 xml:space="preserve">
<path fill="#2C97E8" d="M40.7,28.7c0.1-0.2,0.1-0.4,0.2-0.6c2.4-9.5-3.3-20.7-13.3-26.6c4.4,5.9,6.1,12.9,4.6,19.2
	c-0.1,0.5-0.3,1.1-0.5,1.6c-0.3-0.2-0.6-0.3-0.8-0.5c0,0-9.8-6.1-20.4-16.7c-0.3-0.3,5.7,8.5,12.4,15.5c-3.1-1.8-12.1-8.2-17.7-13.4
	c0.6,1.1,1.5,2.2,2.4,3.3c4.7,6,10.8,13.3,18.1,18.9c-5.2,3.1-12.4,3.3-19.7,0c-1.8-0.8-3.3-1.8-5.1-3c3,4.8,7.8,9.1,13.5,11.5
	c6.8,2.9,13.7,2.7,18.7,0h0.1c0.2-0.1,0.4-0.2,0.6-0.4c2.4-1.2,7.2-2.5,9.8,2.5C44.4,41.4,45.7,34.8,40.7,28.7L40.7,28.7z"/>
</svg>
