<?xml version="1.0" encoding="utf-8"?>
<!-- Generator: Adobe Illustrator 21.0.0, SVG Export Plug-In . SVG Version: 6.00 Build 0)  -->
<svg version="1.2" baseProfile="tiny" id="图层_1"
	 xmlns="http://www.w3.org/2000/svg" xmlns:xlink="http://www.w3.org/1999/xlink" x="0px" y="0px" viewBox="0 0 43 43"
	 xml:space="preserve">
<path fill="#2C97E8" d="M0.8,0.9h41.9v41.9H0.8V0.9z M39.3,32.8c-0.3-1.9-1.6-3.5-5.2-5c-1.3-0.6-2.7-1-3.1-2
	c-0.2-0.6-0.2-0.9-0.1-1.2c0.3-1.1,1.6-1.5,2.6-1.2c0.7,0.2,1.3,0.7,1.7,1.6c1.8-1.2,1.8-1.2,3.1-2c-0.5-0.7-0.7-1-1-1.4
	c-1.1-1.2-2.6-1.9-4.9-1.8L31.1,20c-1.2,0.3-2.3,0.9-3,1.8c-2,2.3-1.4,6.2,1,7.8c2.4,1.8,5.9,2.2,6.3,3.9c0.4,2-1.5,2.7-3.4,2.5
	c-1.4-0.3-2.2-1-3.1-2.3l-3.2,1.8c0.4,0.8,0.8,1.2,1.4,1.9c3,3.1,10.6,2.9,12-1.8c0.1-0.2,0.4-1.2,0.1-2.9L39.3,32.8L39.3,32.8z
	 M23.6,20.1h-3.9c0,3.4,0,6.7,0,10.1c0,2.2,0.1,4.1-0.2,4.7c-0.6,1.2-2.1,1-2.7,0.8c-0.7-0.3-1-0.8-1.4-1.5c-0.3,0-0.3-0.2-0.4-0.2
	l-3.2,2c0.5,1.1,1.3,2,2.3,2.6c1.5,0.9,3.5,1.2,5.6,0.7c1.4-0.4,2.5-1.2,3.2-2.5c0.9-1.6,0.7-3.6,0.7-5.8
	C23.6,27.4,23.6,23.8,23.6,20.1L23.6,20.1L23.6,20.1z"/>
</svg>
