<?xml version="1.0" encoding="utf-8"?>
<!-- Generator: Adobe Illustrator 21.0.0, SVG Export Plug-In . SVG Version: 6.00 Build 0)  -->
<svg version="1.1" id="图层_1" xmlns="http://www.w3.org/2000/svg" xmlns:xlink="http://www.w3.org/1999/xlink" x="0px" y="0px"
	 viewBox="0 0 500 274" style="enable-background:new 0 0 500 274;" xml:space="preserve">
<style type="text/css">
	.st0{fill:#FFFFFF;stroke:#6580A8;stroke-width:2.9944;stroke-miterlimit:10;}
	.st1{fill:none;stroke:#92B4DD;stroke-width:1.9962;stroke-miterlimit:10;}
	.st2{fill:#3F4E6F;}
	.st3{fill:none;stroke:#E1E7EA;stroke-width:5.9887;stroke-miterlimit:10;}
	.st4{fill:#2C97E8;}
	.st5{fill:none;stroke:#D9D9D9;stroke-width:5.9887;stroke-miterlimit:10;}
	.st6{fill:#5196E2;}
	.st7{fill:#4A7BE2;}
	.st8{opacity:0.8;fill:#FFFFFF;stroke:#A5CAE5;stroke-width:3.9925;stroke-miterlimit:10;}
	.st9{opacity:0.25;fill:#0A6699;}
	.st10{fill:#63D18C;stroke:#6580A8;stroke-width:1.9962;stroke-miterlimit:10;}
	.st11{fill:#FFFFFF;stroke:#455D82;stroke-width:2.9944;stroke-miterlimit:10;}
	.st12{fill:#455D82;}
	.st13{fill:#7F9ABA;}
	.st14{fill:#FFFFFF;stroke:#D9D9D9;stroke-width:2.9944;stroke-miterlimit:10;}
</style>
<g>
	<path class="st0" d="M71.3,262.5c-0.1,0-57,0-57.1,0c-6.1-0.2-11-5.2-11-11.3V128.7c0-6.2,5.1-11.3,11.3-11.3h84.6"/>
	<polyline class="st1" points="71.4,251.5 23.4,251.5 23.4,128.4 99.5,128.4 	"/>
	<path class="st2" d="M16,202L16,202c-1,0-1.8-0.8-1.8-1.8v-20.7c0-1,0.8-1.8,1.8-1.8h0c1,0,1.8,0.8,1.8,1.8v20.7
		C17.7,201.2,16.9,202,16,202z"/>
	<path class="st2" d="M8.5,188.2L8.5,188.2c-1,0-1.8,0.8-1.8,1.8l0,0c0,1,0.8,1.8,1.8,1.8h0c1,0,1.8-0.8,1.8-1.8l0,0
		C10.3,189,9.5,188.2,8.5,188.2z"/>
	<g>
		<ellipse class="st3" cx="55.5" cy="162.5" rx="16.7" ry="16.6"/>
		<g>
			<path class="st4" d="M55.5,182.1c-10.8,0-19.7-8.8-19.7-19.6s8.8-19.6,19.7-19.6v6c-7.5,0-13.7,6.1-13.7,13.6s6.1,13.6,13.7,13.6
				s13.7-6.1,13.7-13.6c0-2.2-0.5-4.3-1.5-6.2l5.3-2.7c1.4,2.8,2.2,5.8,2.2,9C75.2,173.3,66.3,182.1,55.5,182.1z"/>
		</g>
		<ellipse class="st4" cx="55.8" cy="145.9" rx="2.8" ry="2.8"/>
		<ellipse class="st4" cx="70.2" cy="154.7" rx="2.8" ry="2.8"/>
	</g>
	<g>
		<ellipse class="st5" cx="102.7" cy="162.5" rx="16.7" ry="16.6"/>
		<g>
			<path class="st4" d="M102.7,182.1c-10.8,0-19.7-8.8-19.7-19.6s8.8-19.6,19.7-19.6v6c-7.5,0-13.7,6.1-13.7,13.6
				s6.1,13.6,13.7,13.6c7.5,0,13.7-6.1,13.7-13.6c0-2.2-0.5-4.3-1.5-6.2l5.3-2.7c1.4,2.8,2.2,5.8,2.2,9
				C122.3,173.3,113.5,182.1,102.7,182.1z"/>
		</g>
		<ellipse class="st6" cx="103" cy="145.9" rx="2.8" ry="2.8"/>
		<ellipse class="st7" cx="117.4" cy="154.7" rx="2.8" ry="2.8"/>
	</g>
	<g>
		<ellipse class="st3" cx="102.7" cy="220.1" rx="16.7" ry="16.6"/>
		<g>
			<path class="st4" d="M89,220.1h-6c0-10.8,8.8-19.6,19.7-19.6v6C95.1,206.4,89,212.5,89,220.1z"/>
		</g>
		<ellipse class="st6" cx="103" cy="203.4" rx="2.8" ry="2.8"/>
		<ellipse class="st7" cx="117.4" cy="212.3" rx="2.8" ry="2.8"/>
	</g>
	<path class="st0" d="M104.4,242.2V14.5c0-6.2,5.1-11.3,11.3-11.3h312c6.2,0,11.3,5.1,11.3,11.3v58.8"/>
	<polyline class="st1" points="119.3,229.6 119.3,18.4 424.2,18.4 424.2,72.9 	"/>
	<g>
		<g>
			<polyline class="st0" points="379,262.5 77.8,262.5 77.8,242.2 378.6,242.2 			"/>
			<rect x="230.6" y="242.2" class="st0" width="82.8" height="10.1"/>
		</g>
	</g>
	<path class="st8" d="M176.9,177.2h-17.3c-3.4,0-6.2-2.8-6.2-6.2v-17.2c0-3.4,2.8-6.2,6.2-6.2h17.3c3.4,0,6.2,2.8,6.2,6.2V171
		C183.1,174.4,180.3,177.2,176.9,177.2z"/>
	<path class="st9" d="M240.5,48.4h-60.1c-1.9,0-3.4-1.5-3.4-3.4v0c0-1.9,1.5-3.4,3.4-3.4h60.1c1.9,0,3.4,1.5,3.4,3.4v0
		C244,46.8,242.4,48.4,240.5,48.4z"/>
	<path class="st9" d="M279.7,48.4l-19.6,0c-1.9,0-3.4-1.5-3.4-3.4v0c0-1.9,1.5-3.4,3.4-3.4h19.6c1.9,0,3.4,1.5,3.4,3.4v0
		C283.2,46.8,281.6,48.4,279.7,48.4z"/>
	<path class="st9" d="M361.5,48.4h-60.1c-1.9,0-3.4-1.5-3.4-3.4v0c0-1.9,1.5-3.4,3.4-3.4h60.1c1.9,0,3.4,1.5,3.4,3.4v0
		C364.9,46.8,363.4,48.4,361.5,48.4z"/>
	<path class="st9" d="M400.7,48.4l-19.6,0c-1.9,0-3.4-1.5-3.4-3.4v0c0-1.9,1.5-3.4,3.4-3.4h19.6c1.9,0,3.4,1.5,3.4,3.4v0
		C404.1,46.8,402.6,48.4,400.7,48.4z"/>
	<path class="st8" d="M176.9,222.1h-17.3c-3.4,0-6.2-2.8-6.2-6.2v-17.2c0-3.4,2.8-6.2,6.2-6.2h17.3c3.4,0,6.2,2.8,6.2,6.2v17.2
		C183.1,219.3,180.3,222.1,176.9,222.1z"/>
	<g>
		<ellipse class="st3" cx="172.3" cy="96.7" rx="22.4" ry="22.3"/>
		<g>
			<path class="st4" d="M172.3,122c-14,0-25.4-11.4-25.4-25.3s11.4-25.3,25.4-25.3v6c-10.7,0-19.4,8.7-19.4,19.3s8.7,19.3,19.4,19.3
				c10.7,0,19.4-8.7,19.4-19.3c0-3.1-0.7-6.1-2.1-8.8l5.3-2.7c1.8,3.6,2.8,7.6,2.8,11.6C197.7,110.7,186.3,122,172.3,122z"/>
		</g>
		<ellipse class="st4" cx="172.3" cy="74.4" rx="2.8" ry="2.8"/>
		<ellipse class="st4" cx="192.1" cy="86.3" rx="2.8" ry="2.8"/>
	</g>
	<ellipse class="st3" cx="239.3" cy="96.7" rx="22.4" ry="22.3"/>
	<g>
		<path class="st4" d="M239.3,122c-14,0-25.4-11.4-25.4-25.3s11.4-25.3,25.4-25.3v6c-10.7,0-19.4,8.7-19.4,19.3s8.7,19.3,19.4,19.3
			c10.7,0,19.4-8.7,19.4-19.3h6C264.7,110.7,253.3,122,239.3,122z"/>
	</g>
	<ellipse class="st4" cx="239.3" cy="74.4" rx="2.8" ry="2.8"/>
	<ellipse class="st4" cx="261.7" cy="96.7" rx="2.8" ry="2.8"/>
	<ellipse class="st3" cx="306.2" cy="96.7" rx="22.4" ry="22.3"/>
	<g>
		<path class="st4" d="M306.2,122c-14,0-25.4-11.4-25.4-25.3s11.4-25.3,25.4-25.3v6c-10.7,0-19.4,8.7-19.4,19.3s8.7,19.3,19.4,19.3
			V122z"/>
	</g>
	<ellipse class="st4" cx="306.2" cy="74.4" rx="2.8" ry="2.8"/>
	<ellipse class="st4" cx="306.6" cy="119" rx="2.8" ry="2.8"/>
	<g>
		<ellipse class="st3" cx="373.2" cy="96.7" rx="22.4" ry="22.3"/>
		<g>
			<path class="st4" d="M373.2,122c-14,0-25.4-11.4-25.4-25.3s11.4-25.3,25.4-25.3v6c-10.7,0-19.4,8.7-19.4,19.3s8.7,19.3,19.4,19.3
				c10.7,0,19.4-8.7,19.4-19.3c0-3.1-0.7-6.1-2.1-8.8l5.3-2.7c1.8,3.6,2.8,7.6,2.8,11.6C398.6,110.7,387.2,122,373.2,122z"/>
		</g>
		<ellipse class="st4" cx="373.2" cy="74.4" rx="2.8" ry="2.8"/>
		<ellipse class="st7" cx="393" cy="86.3" rx="2.8" ry="2.8"/>
	</g>
	<ellipse class="st10" cx="155.8" cy="44.5" rx="9.7" ry="9.7"/>
	<path class="st11" d="M485.4,270h-86.2c-5.8,0-10.5-4.7-10.5-10.5V93.1c0-5.8,4.7-10.5,10.5-10.5h86.2c5.8,0,10.5,4.7,10.5,10.5
		v166.3C495.9,265.3,491.2,270,485.4,270z"/>
	<rect x="398.8" y="104.9" class="st1" width="87" height="141.6"/>
	<path class="st12" d="M453,100.4h-21.5c-1.1,0-2-0.9-2-2v0c0-1.1,0.9-2,2-2H453c1.1,0,2,0.9,2,2v0C455,99.5,454.1,100.4,453,100.4z
		"/>
	<path class="st13" d="M442.3,93.4L442.3,93.4c1.1,0,2-0.9,2-2l0,0c0-1.1-0.9-2-2-2h0c-1.1,0-2,0.9-2,2l0,0
		C440.3,92.5,441.2,93.4,442.3,93.4z"/>
	<ellipse class="st14" cx="442.3" cy="258.4" rx="6.3" ry="6.3"/>
	<g>
		<ellipse class="st3" cx="442.2" cy="147.7" rx="22.4" ry="22.3"/>
		<g>
			<path class="st4" d="M442.2,173c-14,0-25.4-11.4-25.4-25.3s11.4-25.3,25.4-25.3v6c-10.7,0-19.4,8.7-19.4,19.3
				c0,10.7,8.7,19.3,19.4,19.3c10.7,0,19.4-8.7,19.4-19.3c0-3.1-0.7-6.1-2.1-8.8l5.3-2.7c1.8,3.6,2.8,7.6,2.8,11.6
				C467.6,161.6,456.2,173,442.2,173z"/>
		</g>
		<ellipse class="st4" cx="442.2" cy="125.3" rx="2.8" ry="2.8"/>
		<ellipse class="st4" cx="462" cy="137.2" rx="2.8" ry="2.8"/>
	</g>
	<g>
		<ellipse class="st3" cx="442.3" cy="210.5" rx="22.4" ry="22.3"/>
		<g>
			<path class="st4" d="M442.3,235.8c-14,0-25.4-11.4-25.4-25.3s11.4-25.3,25.4-25.3v6c-10.7,0-19.4,8.7-19.4,19.3
				c0,10.7,8.7,19.3,19.4,19.3c4.4,0,8.6-1.4,12-4.2l3.7,4.7C453.5,233.9,448.1,235.8,442.3,235.8z"/>
		</g>
		<ellipse class="st4" cx="442.2" cy="188.2" rx="2.8" ry="2.8"/>
		<ellipse class="st4" cx="456.2" cy="228" rx="2.8" ry="2.8"/>
	</g>
	<path class="st9" d="M378.3,149h-178c-1.9,0-3.4,1.5-3.4,3.4v0.1c0,1.9,1.5,3.4,3.4,3.4h178V149z"/>
	<path class="st9" d="M303.9,168.9H200.3c-1.9,0-3.4,1.5-3.4,3.4v0.1c0,1.9,1.5,3.4,3.4,3.4h103.6V168.9z"/>
	<path class="st9" d="M379,193.8H200.3c-1.9,0-3.4,1.5-3.4,3.4v0.1c0,1.9,1.5,3.4,3.4,3.4H379V193.8z"/>
	<path class="st9" d="M341.8,213.7H200.3c-1.9,0-3.4,1.5-3.4,3.4v0.1c0,1.9,1.5,3.4,3.4,3.4h141.5V213.7z"/>
	<g>
		<ellipse class="st3" cx="55.5" cy="220.1" rx="16.7" ry="16.6"/>
		<g>
			<path class="st4" d="M55.5,239.6c-10.8,0-19.7-8.8-19.7-19.6c0-10.8,8.8-19.6,19.7-19.6v6c-7.5,0-13.7,6.1-13.7,13.6
				c0,7.5,6.1,13.6,13.7,13.6V239.6z"/>
		</g>
		<ellipse class="st4" cx="55.8" cy="203.4" rx="2.8" ry="2.8"/>
		<ellipse class="st4" cx="55.5" cy="236.7" rx="2.8" ry="2.8"/>
		<ellipse class="st4" cx="86" cy="220.4" rx="2.8" ry="2.8"/>
	</g>
</g>
</svg>
