<?xml version="1.0" encoding="utf-8"?>
<!-- Generator: Adobe Illustrator 21.0.0, SVG Export Plug-In . SVG Version: 6.00 Build 0)  -->
<svg version="1.2" baseProfile="tiny" id="图层_1"
	 xmlns="http://www.w3.org/2000/svg" xmlns:xlink="http://www.w3.org/1999/xlink" x="0px" y="0px" viewBox="0 0 44 44"
	 xml:space="preserve">
<path fill="#2C97E8" d="M25.8,0.6L27.4,1l1.3,0.5L29.8,2l0.8,0.6l0.6,0.6l0.4,0.6l0.3,0.6l0.2,0.5l0.1,0.5v0.4V6v9.5l-0.1,1.1
	l-0.2,1l-0.4,0.8L31,19l-0.5,0.6L29.9,20l-0.6,0.3l-0.6,0.3l-0.6,0.2l-0.5,0.1L27.1,21h-0.4H16l-1.2,0.1l-1.1,0.3l-0.9,0.4l-0.7,0.5
	l-0.6,0.6L11,23.5l-0.4,0.6l-0.3,0.7l-0.2,0.6V26L10,26.4v0.4v5.5H6l-0.4-0.1l-0.5-0.1l-0.6-0.2l-0.6-0.3l-0.6-0.5l-0.6-0.6L2,29.6
	l-0.6-1.1l-0.5-1.3l-0.4-1.6l-0.3-1.9l-0.1-2.2l0.1-2.2l0.3-1.9L1.1,16l0.6-1.3l0.6-1L3,13l0.8-0.6L4.6,12l0.7-0.3l0.6-0.2l0.6-0.1
	h0.4h0.3h0.1h14.6V9.9H11.4V5V4.3l0.1-0.6l0.2-0.6L12,2.6l0.4-0.5L13,1.7l0.7-0.4L14.5,1l0.9-0.3l1-0.2l1.1-0.2l1.3-0.1l1.4-0.1h1.5
	L24,0.2L25.8,0.6L25.8,0.6z M14.5,4.1l-0.4,0.6L14,5.4l0.1,0.7l0.4,0.6l0.6,0.4l0.7,0.2l0.7-0.2l0.6-0.4l0.4-0.6l0.1-0.7l-0.1-0.7
	l-0.4-0.6l-0.6-0.4l-0.7-0.2l-0.7,0.2L14.5,4.1z"/>
<path fill="#2C97E8" d="M37.9,11.2l0.5,0.1l0.6,0.2l0.6,0.3l0.6,0.5l0.6,0.6l0.6,0.8l0.6,1.1l0.5,1.3l0.4,1.6l0.3,1.9l0.1,2.2
	L43.2,24l-0.3,1.9l-0.4,1.5l-0.6,1.3l-0.6,1l-0.7,0.8L39.8,31L39,31.4l-0.7,0.3l-0.6,0.2L37.1,32h-0.4h-0.3H21.7v1.5h10.4v4.9V39
	L32,39.6l-0.2,0.6l-0.3,0.5l-0.4,0.4l-0.6,0.4L30,41.9l-0.8,0.3l-0.9,0.3l-1,0.2l-1.1,0.2L24.8,43l-1.4,0.1h-1.5L19.6,43l-1.9-0.3
	l-1.6-0.4L14.8,42l-1.1-0.5L13,40.9l-0.6-0.6L12,39.7l-0.3-0.6l-0.2-0.5l-0.1-0.4v-0.4v-0.2V28l0.1-1.1l0.2-1l0.4-0.8l0.5-0.7
	l0.5-0.6l0.6-0.4l0.6-0.4l0.6-0.3l0.6-0.2l0.5-0.1l0.5-0.1h0.4h0.2h10.4l1.2-0.1l1.1-0.3l0.9-0.4l0.7-0.5l0.6-0.6l0.5-0.6l0.4-0.6
	l0.3-0.6l0.2-0.6l0.1-0.6l0.1-0.5v-0.4V11h3.7h0.3L37.9,11.2L37.9,11.2z M26.4,36.6L26,37.2l-0.1,0.7l0.1,0.7l0.4,0.6l0.6,0.4
	l0.7,0.1l0.7-0.1l0.6-0.4l0.4-0.6l0.1-0.7l-0.1-0.7L29,36.6l-0.6-0.4l-0.7-0.1L27,36.2L26.4,36.6z"/>
</svg>
