<?xml version="1.0" encoding="utf-8"?>
<!-- Generator: Adobe Illustrator 21.0.0, SVG Export Plug-In . SVG Version: 6.00 Build 0)  -->
<svg version="1.2" baseProfile="tiny" id="图层_1"
	 xmlns="http://www.w3.org/2000/svg" xmlns:xlink="http://www.w3.org/1999/xlink" x="0px" y="0px" viewBox="0 0 60 60"
	 xml:space="preserve">
<g>
	<g>
		<path fill="#2C97E8" d="M53.547,13.664c-0.638-0.823-1.822-0.973-2.644-0.335c-0.763,0.591-0.956,1.663-0.447,2.483
			c7.728,11.109,4.988,26.379-6.121,34.107s-26.379,4.988-34.107-6.121C7.37,39.692,5.838,34.81,5.838,29.807
			C5.889,18.984,12.993,9.46,23.353,6.326c0.999-0.296,1.569-1.347,1.273-2.346c-0.296-0.999-1.347-1.569-2.346-1.273
			C7.313,7.159-1.21,22.901,3.242,37.867s20.194,23.49,35.16,19.038c11.986-3.566,20.206-14.581,20.211-27.086
			C58.625,24.041,56.856,18.4,53.547,13.664z"/>
		<path fill="#2C97E8" d="M37.339,6.329c2.938,0.892,5.681,2.332,8.085,4.243c0.817,0.646,2.003,0.507,2.648-0.31
			c0.646-0.817,0.507-2.003-0.31-2.648c-2.801-2.219-5.999-3.883-9.423-4.903c-0.999-0.297-2.05,0.273-2.347,1.272
			s0.273,2.05,1.272,2.347L37.339,6.329z"/>
		<path fill="#2C97E8" d="M29.008,4.762c0.183,0.167,0.394,0.3,0.622,0.396c0.456,0.202,0.976,0.202,1.432,0
			c0.228-0.096,0.439-0.23,0.622-0.396c0.353-0.356,0.55-0.837,0.547-1.338c-0.007-0.499-0.202-0.977-0.546-1.338
			C31.243,1.625,30.597,1.42,29.97,1.54c-0.118,0.021-0.232,0.059-0.339,0.113c-0.12,0.041-0.234,0.098-0.339,0.17l-0.283,0.226
			c-0.172,0.179-0.306,0.391-0.396,0.622c-0.102,0.238-0.153,0.495-0.151,0.754c0.003,0.246,0.054,0.49,0.151,0.716
			C28.708,4.369,28.842,4.579,29.008,4.762z"/>
	</g>
	<path fill="#2C97E8" stroke="#2C97E8" stroke-width="1.5" stroke-miterlimit="10" d="M42.682,20.204
		c-4.39-0.193-8.465-1.765-12.017-4.286l-0.324-0.229l-0.323,0.229c-3.552,2.519-7.628,4.09-12.02,4.281l-0.65,0l-0.002,10.316
		c-0.002,7.61,5.276,14.343,12.838,16.093l0.179,0.028l0.125-0.029c7.559-1.745,12.84-8.477,12.841-16.086l0.002-10.316
		L42.682,20.204L42.682,20.204z M30.34,17.623c3.399,2.328,7.155,3.51,11.273,3.84l-0.002,9.915
		c-0.955,11.233-11.186,13.528-11.352,13.564l0-0.035c0,0-10.248-2.244-11.207-13.57l0.002-9.879
		c0.062-0.005,0.124-0.01,0.185-0.015C23.291,21.097,26.989,19.916,30.34,17.623L30.34,17.623z M30.34,17.623"/>
	<rect x="17.345" y="15.669" fill="none" width="25.984" height="31.004"/>
	<path fill="#2C97E8" stroke="#2C97E8" stroke-miterlimit="10" d="M22.736,30.674L28,36.128l0.025,0
		c0.184,0.366,0.563,0.617,1.001,0.617c0.438,0,0.816-0.251,1.001-0.616l0.013,0l7.919-8.404c0.294-0.167,0.492-0.483,0.492-0.845
		c0-0.537-0.435-0.973-0.972-0.973c-0.398,0-0.74,0.239-0.891,0.581l-7.546,8.015c-0.005,0-0.01,0-0.015,0
		c-0.024,0-0.048,0.001-0.072,0.003l-4.894-5.139c-0.162-0.31-0.487-0.521-0.861-0.522c-0.537,0-0.973,0.435-0.973,0.972
		C22.225,30.188,22.432,30.509,22.736,30.674L22.736,30.674z M22.736,30.674"/>
</g>
</svg>
