<?xml version="1.0" encoding="utf-8"?>
<!-- Generator: Adobe Illustrator 21.0.0, SVG Export Plug-In . SVG Version: 6.00 Build 0)  -->
<svg version="1.1" id="图层_1" xmlns="http://www.w3.org/2000/svg" xmlns:xlink="http://www.w3.org/1999/xlink" x="0px" y="0px"
	 viewBox="0 0 1920 1000" style="enable-background:new 0 0 1920 1000;" xml:space="preserve">
<style type="text/css">
	.st0{opacity:0.4;}
	.st1{fill:none;stroke:#D9D9D9;stroke-width:2.2201;stroke-miterlimit:10;}
	.st2{fill:#FFFFFF;stroke:#D9D9D9;stroke-width:2.2201;stroke-miterlimit:10;}
	.st3{fill:#FFFFFF;stroke:#D9D9D9;stroke-width:2.408;stroke-miterlimit:10;}
	.st4{fill:none;stroke:#D9D9D9;stroke-width:2.1191;stroke-miterlimit:10;}
	.st5{fill:#FFFFFF;stroke:#D9D9D9;stroke-width:2.5031;stroke-miterlimit:10;}
	.st6{fill:#FFFFFF;stroke:#D9D9D9;stroke-width:2.0499;stroke-miterlimit:10;}
	.st7{fill:#FFFFFF;stroke:#D9D9D9;stroke-width:1.7331;stroke-miterlimit:10;}
	.st8{fill:#FFFFFF;stroke:#D9D9D9;stroke-width:2.4402;stroke-miterlimit:10;}
	.st9{fill:#FFFFFF;stroke:#D9D9D9;stroke-width:1.9616;stroke-miterlimit:10;}
	.st10{fill:#FFFFFF;stroke:#D9D9D9;stroke-width:2.1398;stroke-miterlimit:10;}
	.st11{fill:#FFFFFF;stroke:#D9D9D9;stroke-width:2.0446;stroke-miterlimit:10;}
	.st12{fill:none;stroke:#D9D9D9;stroke-width:2.393;stroke-miterlimit:10;}
	.st13{fill:none;stroke:#D9D9D9;stroke-width:1.5953;stroke-miterlimit:10;}
	.st14{fill:#F2F2F2;}
	.st15{fill:#FFFFFF;stroke:#D9D9D9;stroke-width:1.5953;stroke-miterlimit:10;}
	.st16{fill:#FFFFFF;stroke:#D9D9D9;stroke-width:1.7768;stroke-miterlimit:10;}
	.st17{fill:#EDEDED;stroke:#D9D9D9;stroke-width:1.7768;stroke-miterlimit:10;}
	.st18{fill:#EFEFEF;}
	.st19{fill:#D9D9D9;stroke:#D9D9D9;stroke-width:1.7768;stroke-miterlimit:10;}
	.st20{fill:#EDEDED;}
	.st21{fill:#FFFFFF;stroke:#D9D9D9;stroke-width:2.393;stroke-miterlimit:10;}
	.st22{fill:#D3D3D3;}
	.st23{fill:#FFFFFF;stroke:#D9D9D9;stroke-width:0.7977;stroke-miterlimit:10;}
	.st24{fill:#FFFFFF;stroke:#D9D9D9;stroke-width:1.5501;stroke-miterlimit:10;}
	.st25{fill:#FFFFFF;stroke:#D9D9D9;stroke-width:1.5498;stroke-miterlimit:10;}
	.st26{fill:#FFFFFF;stroke:#D9D9D9;stroke-width:2.5077;stroke-miterlimit:10;}
	.st27{fill:none;stroke:#D9D9D9;stroke-width:2.5077;stroke-miterlimit:10;}
	.st28{opacity:0.5;fill:none;stroke:#D9D9D9;stroke-width:2.2201;stroke-miterlimit:10;}
</style>
<g>
	<g class="st0">
		<g>
			<path class="st1" d="M1365,689.8L1365,689.8c-3.1,0-5.5-2.4-5.5-5.4v-35.2c0-3,2.4-5.4,5.4-5.4h0.1c3,0,5.4,2.4,5.4,5.4v35.2
				C1370.4,687.4,1368,689.8,1365,689.8z"/>
			<path class="st1" d="M1395.3,689.8L1395.3,689.8c-3.1,0-5.5-2.4-5.5-5.4v-35.2c0-3,2.4-5.4,5.4-5.4h0.1c3,0,5.4,2.4,5.4,5.4v35.2
				C1400.7,687.4,1398.2,689.8,1395.3,689.8z"/>
			<path class="st1" d="M1425.6,689.8L1425.6,689.8c-3.1,0-5.5-2.4-5.5-5.4v-35.2c0-3,2.4-5.4,5.4-5.4h0.1c3,0,5.4,2.4,5.4,5.4v35.2
				C1430.9,687.4,1428.5,689.8,1425.6,689.8z"/>
			<path class="st1" d="M1455.8,689.8L1455.8,689.8c-3.1,0-5.5-2.4-5.5-5.4v-35.2c0-3,2.4-5.4,5.4-5.4h0.1c3,0,5.4,2.4,5.4,5.4v35.2
				C1461.2,687.4,1458.8,689.8,1455.8,689.8z"/>
			<path class="st1" d="M1395.3,776.6L1395.3,776.6c-3.1,0-5.5-2.4-5.5-5.4v-35.2c0-3,2.4-5.4,5.4-5.4h0.1c3,0,5.4,2.4,5.4,5.4v35.2
				C1400.7,774.2,1398.2,776.6,1395.3,776.6z"/>
			<path class="st1" d="M1425.6,776.6L1425.6,776.6c-3.1,0-5.5-2.4-5.5-5.4v-35.2c0-3,2.4-5.4,5.4-5.4h0.1c3,0,5.4,2.4,5.4,5.4v35.2
				C1430.9,774.2,1428.5,776.6,1425.6,776.6z"/>
			<path class="st1" d="M1455.8,776.6L1455.8,776.6c-3.1,0-5.5-2.4-5.5-5.4v-35.2c0-3,2.4-5.4,5.4-5.4h0.1c3,0,5.4,2.4,5.4,5.4v35.2
				C1461.2,774.2,1458.8,776.6,1455.8,776.6z"/>
			<path class="st1" d="M1395.3,863.4L1395.3,863.4c-3.1,0-5.5-2.4-5.5-5.4v-35.2c0-3,2.4-5.4,5.4-5.4h0.1c3,0,5.4,2.4,5.4,5.4V858
				C1400.7,861,1398.2,863.4,1395.3,863.4z"/>
			<path class="st1" d="M1425.6,863.4L1425.6,863.4c-3.1,0-5.5-2.4-5.5-5.4v-35.2c0-3,2.4-5.4,5.4-5.4h0.1c3,0,5.4,2.4,5.4,5.4V858
				C1430.9,861,1428.5,863.4,1425.6,863.4z"/>
			<path class="st1" d="M1455.8,863.4L1455.8,863.4c-3.1,0-5.5-2.4-5.5-5.4v-35.2c0-3,2.4-5.4,5.4-5.4h0.1c3,0,5.4,2.4,5.4,5.4V858
				C1461.2,861,1458.8,863.4,1455.8,863.4z"/>
			<path class="st1" d="M1425.6,951.2L1425.6,951.2c-3.1,0-5.5-2.4-5.5-5.4v-35.2c0-3,2.4-5.4,5.4-5.4h0.1c3,0,5.4,2.4,5.4,5.4v35.2
				C1430.9,948.8,1428.5,951.2,1425.6,951.2z"/>
			<path class="st1" d="M1455.8,951.2L1455.8,951.2c-3.1,0-5.5-2.4-5.5-5.4v-35.2c0-3,2.4-5.4,5.4-5.4h0.1c3,0,5.4,2.4,5.4,5.4v35.2
				C1461.2,948.8,1458.8,951.2,1455.8,951.2z"/>
		</g>
		<polyline class="st2" points="1237.9,822.3 1237.9,707.8 1372.3,707.8 1372.3,824.5 		"/>
		<line class="st1" x1="1355.5" y1="723.9" x2="1355.5" y2="892.1"/>
		<line class="st1" x1="1328.4" y1="723.9" x2="1328.4" y2="915.7"/>
		<line class="st1" x1="1315.6" y1="723.9" x2="1315.6" y2="955.1"/>
		<line class="st1" x1="1289.2" y1="723.9" x2="1289.2" y2="955.1"/>
		<line class="st1" x1="1263" y1="723.9" x2="1263" y2="823.3"/>
		<line class="st1" x1="1249.9" y1="723.9" x2="1249.9" y2="823.3"/>
		<path class="st3" d="M1376.1,769.9h-158.4c-2.8,0-5-2.2-5-5v-0.1c0-2.8,2.2-5,5-5h158.4c2.8,0,5,2.2,5,5v0.1
			C1381.1,767.7,1378.9,769.9,1376.1,769.9z"/>
		<rect x="1251.4" y="671.5" class="st2" width="88.5" height="36.4"/>
		<path class="st2" d="M1341.5,694.8h-90.6c-2.7,0-4.9-2.2-4.9-4.9v-0.1c0-2.7,2.2-4.9,4.9-4.9h90.6c2.7,0,4.9,2.2,4.9,4.9v0.1
			C1346.4,692.6,1344.2,694.8,1341.5,694.8z"/>
		<rect x="975.4" y="716.2" class="st1" width="14.3" height="10.8"/>
		<rect x="997.6" y="716.2" class="st1" width="14.3" height="10.8"/>
		<polyline class="st2" points="1081.2,819 1081.2,620.6 1237.9,620.6 1237.9,822.3 		"/>
		<rect x="1118.3" y="634.7" class="st1" width="101.9" height="10.9"/>
		<rect x="1118.3" y="654.4" class="st1" width="101.9" height="10.9"/>
		<rect x="1118.3" y="674" class="st1" width="101.9" height="10.9"/>
		<rect x="1118.3" y="693.6" class="st1" width="101.9" height="10.9"/>
		<rect x="1118.3" y="713.3" class="st1" width="101.9" height="10.9"/>
		<rect x="1118.3" y="732.9" class="st1" width="101.9" height="10.9"/>
		<rect x="1118.3" y="752.6" class="st1" width="101.9" height="10.9"/>
		<rect x="1118.3" y="772.2" class="st1" width="101.9" height="10.9"/>
		<rect x="1118.3" y="791.8" class="st1" width="101.9" height="10.9"/>
		<rect x="1118.3" y="811.5" class="st1" width="101.9" height="10.9"/>
		<rect x="1118.3" y="831.1" class="st1" width="101.9" height="10.9"/>
		<rect x="1118.3" y="870.4" class="st1" width="101.9" height="10.9"/>
		<rect x="1118.3" y="890" class="st1" width="101.9" height="10.9"/>
		<g>
			<rect x="567.8" y="702.1" class="st2" width="176.1" height="286.6"/>
			<path class="st2" d="M766.4,726.3H561.4c-2.9,0-5.2-2.4-5.2-5.2V721c0-2.9,2.4-5.2,5.2-5.2h204.9c2.9,0,5.2,2.4,5.2,5.2v0.1
				C771.6,724,769.3,726.3,766.4,726.3z"/>
			<line class="st1" x1="592.3" y1="742.9" x2="592.3" y2="970.9"/>
			<line class="st1" x1="618.5" y1="742.9" x2="618.5" y2="970.9"/>
			<line class="st1" x1="631.6" y1="742.9" x2="631.6" y2="970.9"/>
			<line class="st1" x1="653.8" y1="742.9" x2="653.8" y2="970.9"/>
			<line class="st1" x1="666.9" y1="742.9" x2="666.9" y2="970.9"/>
			<line class="st1" x1="688.1" y1="742.9" x2="688.1" y2="851.4"/>
			<line class="st1" x1="701.2" y1="742.9" x2="701.2" y2="852.2"/>
			<line class="st1" x1="727.5" y1="742.9" x2="727.5" y2="851.4"/>
		</g>
		<g>
			<line class="st4" x1="588.2" y1="702.3" x2="588.2" y2="715.9"/>
			<line class="st4" x1="605.7" y1="702.3" x2="605.7" y2="715.9"/>
			<line class="st4" x1="623.2" y1="702.3" x2="623.2" y2="715.9"/>
			<line class="st4" x1="640.8" y1="702.3" x2="640.8" y2="715.9"/>
			<line class="st4" x1="658.3" y1="702.3" x2="658.3" y2="715.9"/>
			<line class="st4" x1="675.8" y1="702.3" x2="675.8" y2="715.9"/>
			<line class="st4" x1="693.4" y1="702.3" x2="693.4" y2="715.9"/>
			<line class="st4" x1="710.9" y1="702.3" x2="710.9" y2="715.9"/>
			<line class="st4" x1="728.4" y1="702.3" x2="728.4" y2="715.9"/>
		</g>
		<g>
			<path class="st2" d="M949.7,894.2V660c0-2.4,1.9-4.3,4.3-4.3h149.3c2.4,0,4.3,1.9,4.3,4.3v194.1"/>
			<g>
				<line class="st1" x1="969.6" y1="671.5" x2="969.6" y2="710.3"/>
				<line class="st1" x1="982.7" y1="671.5" x2="982.7" y2="710.3"/>
				<line class="st1" x1="995.8" y1="671.5" x2="995.8" y2="710.3"/>
				<line class="st1" x1="1008.8" y1="671.5" x2="1008.8" y2="710.3"/>
				<line class="st1" x1="1021.9" y1="671.5" x2="1021.9" y2="710.2"/>
				<line class="st1" x1="1035" y1="671.5" x2="1035" y2="710.2"/>
				<line class="st1" x1="1048" y1="671.5" x2="1048" y2="731.5"/>
				<line class="st1" x1="1061.1" y1="671.5" x2="1061.1" y2="855.3"/>
				<line class="st1" x1="1073.6" y1="671.5" x2="1074.7" y2="855.3"/>
				<line class="st1" x1="1086.7" y1="671.5" x2="1087.7" y2="855.3"/>
			</g>
			<rect x="965.5" y="643.9" class="st2" width="126.3" height="11.8"/>
			<rect x="1000.1" y="633.1" class="st2" width="56.7" height="10.8"/>
		</g>
		<g>
			<path class="st5" d="M1033.6,772.8H886.9c-2.4,0-4.4-2-4.4-4.4v-37c0-2.4,2-4.4,4.4-4.4h146.7c2.4,0,4.4,2,4.4,4.4v37
				C1038,770.9,1036,772.8,1033.6,772.8z"/>
			<polyline class="st2" points="915.7,905.1 915.7,744.2 1052.4,744.2 1052.4,874.3 			"/>
			<path class="st1" d="M983.7,973.2h-10c-2.4,0-4.3-1.9-4.3-4.3v-27.5c0-2.4,1.9-4.3,4.3-4.3h10c2.4,0,4.3,1.9,4.3,4.3v27.5
				C988,971.3,986,973.2,983.7,973.2z"/>
			<path class="st1" d="M1024,973.2h-10c-2.4,0-4.3-1.9-4.3-4.3v-27.5c0-2.4,1.9-4.3,4.3-4.3h10c2.4,0,4.3,1.9,4.3,4.3v27.5
				C1028.3,971.3,1026.4,973.2,1024,973.2z"/>
		</g>
		<g>
			<polyline class="st2" points="744.1,943.1 744.1,614.3 915.7,614.3 915.7,903.7 			"/>
			<path class="st2" d="M917.7,641H742.1c-3.5,0-6.3-2.8-6.3-6.3v0c0-3.5,2.8-6.3,6.3-6.3h175.6c3.5,0,6.3,2.8,6.3,6.3v0
				C924,638.2,921.2,641,917.7,641z"/>
			<path class="st6" d="M774.1,864.4L774.1,864.4c-3.2,0-5.9-2.6-5.9-5.9v-199c0-3.2,2.6-5.9,5.9-5.9l0,0c3.2,0,5.9,2.6,5.9,5.9v199
				C780,861.8,777.3,864.4,774.1,864.4z"/>
			<path class="st7" d="M796.3,804.3L796.3,804.3c-3.2,0-5.9-2.6-5.9-5.9V659.5c0-3.2,2.6-5.9,5.9-5.9l0,0c3.2,0,5.9,2.6,5.9,5.9
				v138.9C802.2,801.7,799.5,804.3,796.3,804.3z"/>
			<path class="st8" d="M818.5,952.3L818.5,952.3c-3.2,0-5.9-2.6-5.9-5.9V659.5c0-3.2,2.6-5.9,5.9-5.9h0c3.2,0,5.9,2.6,5.9,5.9
				v286.9C824.4,949.7,821.7,952.3,818.5,952.3z"/>
			<path class="st9" d="M840.7,846.7L840.7,846.7c-3.2,0-5.9-2.6-5.9-5.9V659.5c0-3.2,2.6-5.9,5.9-5.9l0,0c3.2,0,5.9,2.6,5.9,5.9
				v181.3C846.6,844,843.9,846.7,840.7,846.7z"/>
			<path class="st10" d="M862.9,883.3L862.9,883.3c-3.2,0-5.9-2.6-5.9-5.9V659.5c0-3.2,2.6-5.9,5.9-5.9l0,0c3.2,0,5.9,2.6,5.9,5.9
				v217.9C868.8,880.7,866.1,883.3,862.9,883.3z"/>
			<path class="st11" d="M885.1,863.4L885.1,863.4c-3.2,0-5.9-2.6-5.9-5.9V659.5c0-3.2,2.6-5.9,5.9-5.9l0,0c3.2,0,5.9,2.6,5.9,5.9
				v197.9C891,860.7,888.3,863.4,885.1,863.4z"/>
		</g>
	</g>
	<g>
		<line class="st12" x1="1374.4" y1="743.8" x2="1402" y2="743.8"/>
		<line class="st12" x1="1388.2" y1="730" x2="1388.2" y2="757.6"/>
	</g>
	<g>
		<path class="st13" d="M717.8,589.6c0-3.1-2.5-5.7-5.7-5.7c-0.2,0-0.4,0-0.6,0c-0.3-2.8-2.7-5-5.6-5c-2.9,0-5.3,2.2-5.6,5
			c-0.7-0.4-1.6-0.7-2.5-0.7c-1.9,0-3.5,1-4.4,2.6c-1.4-1.2-3.1-2-5.1-2c-4.2,0-7.7,3.4-7.7,7.7"/>
		<line class="st13" x1="717" y1="589.6" x2="728" y2="589.6"/>
		<line class="st13" x1="674.5" y1="591.7" x2="681.5" y2="591.7"/>
	</g>
	<g>
		<path class="st13" d="M1616,629.3c0-3.1-2.5-5.7-5.7-5.7c-0.2,0-0.4,0-0.6,0c-0.3-2.8-2.7-5-5.6-5c-2.9,0-5.3,2.2-5.6,5
			c-0.7-0.4-1.6-0.7-2.5-0.7c-1.9,0-3.5,1-4.4,2.6c-1.4-1.2-3.1-2-5.1-2c-4.2,0-7.7,3.4-7.7,7.7"/>
		<line class="st13" x1="1615.3" y1="629.3" x2="1626.2" y2="629.3"/>
		<line class="st13" x1="1572.8" y1="631.4" x2="1579.7" y2="631.4"/>
	</g>
	<g>
		<rect x="1080.4" y="866.7" class="st14" width="226.5" height="123"/>
		<g>
			<g>
				<rect x="1099.7" y="894.7" class="st15" width="52.4" height="24.4"/>
				<rect x="1157.7" y="894.7" class="st15" width="53.8" height="24.4"/>
				<rect x="1217.2" y="894.7" class="st15" width="53" height="24.4"/>
				<rect x="1276" y="895" class="st15" width="34.2" height="24.4"/>
				<rect x="1076.5" y="894.7" class="st15" width="16.7" height="24.4"/>
			</g>
			<g>
				<rect x="1100.4" y="955.5" class="st15" width="52.4" height="24.4"/>
				<rect x="1158.3" y="955.5" class="st15" width="53.8" height="24.4"/>
				<rect x="1217.9" y="955.5" class="st15" width="53" height="24.4"/>
				<rect x="1276.7" y="955.5" class="st15" width="34.2" height="24.4"/>
				<rect x="1077.2" y="955.5" class="st15" width="16.7" height="24.4"/>
			</g>
			<g>
				<rect x="1076.5" y="863.2" class="st15" width="52.4" height="24.4"/>
				<rect x="1136.9" y="863.2" class="st15" width="52.4" height="24.4"/>
				<rect x="1197.3" y="863.2" class="st15" width="52.4" height="24.4"/>
				<rect x="1226.9" y="832.1" class="st15" width="52.4" height="24.4"/>
				<rect x="1257.8" y="863.2" class="st15" width="52.4" height="24.4"/>
			</g>
			<g>
				<rect x="1077.2" y="925.1" class="st15" width="52.4" height="24.4"/>
				<rect x="1137.6" y="925.1" class="st15" width="52.4" height="24.4"/>
				<rect x="1198" y="925.1" class="st15" width="52.4" height="24.4"/>
				<rect x="1258.4" y="925.2" class="st15" width="52.4" height="24.4"/>
			</g>
			<g>
				<rect x="1076.5" y="986.5" class="st15" width="52.4" height="6.4"/>
				<rect x="1136.9" y="986.5" class="st15" width="52.4" height="6.4"/>
				<rect x="1197.3" y="986.5" class="st15" width="52.4" height="6.4"/>
				<rect x="1257.8" y="986.5" class="st15" width="52.4" height="6.4"/>
			</g>
		</g>
	</g>
	<g>
		<rect x="1353" y="865.5" class="st14" width="226.5" height="127.5"/>
		<g>
			<g>
				<rect x="1372.3" y="893.7" class="st15" width="52.4" height="24.4"/>
				<rect x="1430.2" y="893.7" class="st15" width="53.8" height="24.4"/>
				<rect x="1489.8" y="892.4" class="st15" width="53" height="24.4"/>
				<rect x="1548.6" y="892.7" class="st15" width="34.2" height="24.4"/>
				<rect x="1349.1" y="893.7" class="st15" width="16.7" height="24.4"/>
			</g>
			<g>
				<rect x="1372.9" y="954.2" class="st15" width="52.4" height="24.4"/>
				<rect x="1430.9" y="954.2" class="st15" width="53.8" height="24.4"/>
				<rect x="1490.5" y="954.2" class="st15" width="53" height="24.4"/>
				<rect x="1549.2" y="954.2" class="st15" width="34.2" height="24.4"/>
				<rect x="1349.8" y="954.2" class="st15" width="16.7" height="24.4"/>
			</g>
			<g>
				<rect x="1349.1" y="862" class="st15" width="52.4" height="24.4"/>
				<rect x="1409.5" y="862" class="st15" width="52.4" height="24.4"/>
				<rect x="1469.9" y="862" class="st15" width="52.4" height="24.4"/>
				<rect x="1530.3" y="862" class="st15" width="52.4" height="24.4"/>
			</g>
			<g>
				<rect x="1349.8" y="924" class="st15" width="52.4" height="24.4"/>
				<rect x="1410.2" y="924" class="st15" width="52.4" height="24.4"/>
				<rect x="1531" y="923.5" class="st15" width="52.4" height="24.4"/>
			</g>
			<g>
				<rect x="1349.1" y="985.3" class="st15" width="52.4" height="6.4"/>
				<rect x="1409.5" y="985.3" class="st15" width="52.4" height="6.4"/>
				<rect x="1469.9" y="985.3" class="st15" width="52.4" height="6.4"/>
				<rect x="1530.3" y="986.7" class="st15" width="52.4" height="6.4"/>
			</g>
		</g>
	</g>
	<g>
		<rect x="1602" y="954.6" class="st14" width="106.8" height="35.9"/>
		<rect x="1603.4" y="914.3" class="st14" width="69.4" height="43"/>
		<rect x="1602" y="897.6" class="st14" width="47.6" height="43"/>
		<g>
			<g>
				<rect x="1622.7" y="908.1" class="st15" width="52.4" height="24.4"/>
				<rect x="1599.5" y="908.1" class="st15" width="16.7" height="24.4"/>
			</g>
			<g>
				<rect x="1623.3" y="968.6" class="st15" width="52.4" height="24.4"/>
				<rect x="1681.3" y="968.6" class="st15" width="53.8" height="24.4"/>
				<rect x="1599.5" y="968.6" class="st15" width="16.7" height="24.4"/>
			</g>
			<g>
				<rect x="1599.5" y="876.3" class="st15" width="52.4" height="24.4"/>
			</g>
			<g>
				<rect x="1599.5" y="938.3" class="st15" width="52.4" height="24.4"/>
				<rect x="1658.9" y="938.3" class="st15" width="52.4" height="24.4"/>
			</g>
		</g>
	</g>
	<g>
		
			<rect x="311.7" y="954.6" transform="matrix(-1 -4.488599e-11 4.488599e-11 -1 728.1606 1944.0574)" class="st14" width="104.8" height="34.9"/>
		
			<rect x="349.1" y="914.3" transform="matrix(-1 -4.502633e-11 4.502633e-11 -1 765.5729 1871.6628)" class="st14" width="67.4" height="43"/>
		
			<rect x="372" y="897.6" transform="matrix(-1 -4.497126e-11 4.497126e-11 -1 788.5054 1838.1615)" class="st14" width="44.5" height="43"/>
		<g>
			<g>
				
					<rect x="344.8" y="908.1" transform="matrix(-1 -4.482471e-11 4.482471e-11 -1 742.0569 1840.5122)" class="st15" width="52.4" height="24.4"/>
				
					<rect x="403.7" y="908.1" transform="matrix(-1 -4.503921e-11 4.503921e-11 -1 824.1605 1840.5122)" class="st15" width="16.7" height="24.4"/>
			</g>
			<g>
				
					<rect x="344.8" y="968.6" transform="matrix(-1 -4.492863e-11 4.492863e-11 -1 742.0569 1961.5199)" class="st15" width="52.4" height="24.4"/>
				
					<rect x="284.7" y="968.6" transform="matrix(-1 -4.483626e-11 4.483626e-11 -1 623.3234 1961.5199)" class="st15" width="53.8" height="24.4"/>
				
					<rect x="403.7" y="968.6" transform="matrix(-1 -4.503921e-11 4.503921e-11 -1 824.1605 1961.5199)" class="st15" width="16.7" height="24.4"/>
			</g>
			<g>
				
					<rect x="368" y="876.3" transform="matrix(-1 -4.496327e-11 4.496327e-11 -1 788.4107 1776.9995)" class="st15" width="52.4" height="24.4"/>
			</g>
			<g>
				
					<rect x="182.7" y="939.3" transform="matrix(-1 -4.496327e-11 4.496327e-11 -1 417.744 1902.9995)" class="st15" width="52.4" height="24.4"/>
			</g>
			<g>
				
					<rect x="208.7" y="968.6" transform="matrix(-1 -4.496327e-11 4.496327e-11 -1 469.744 1961.6661)" class="st15" width="52.4" height="24.4"/>
			</g>
			<g>
				
					<rect x="368" y="938.3" transform="matrix(-1 -4.499790e-11 4.499790e-11 -1 788.4107 1901.016)" class="st15" width="52.4" height="24.4"/>
				
					<rect x="308.5" y="938.3" transform="matrix(-1 -4.496327e-11 4.496327e-11 -1 669.5275 1901.016)" class="st15" width="52.4" height="24.4"/>
			</g>
		</g>
	</g>
	<g>
		<path class="st15" d="M1104.1,993H898.2c-9.3,0-16.9-7.6-16.9-16.9l0,0c0-9.3,7.6-16.9,16.9-16.9h205.8c9.3,0,16.9,7.6,16.9,16.9
			l0,0C1121,985.4,1113.4,993,1104.1,993z"/>
		<path class="st15" d="M1104.4,985.5H897.9c-5.2,0-9.4-4.2-9.4-9.4l0,0c0-5.2,4.2-9.4,9.4-9.4h206.5c5.2,0,9.4,4.2,9.4,9.4l0,0
			C1113.9,981.3,1109.6,985.5,1104.4,985.5z"/>
		<circle class="st15" cx="899.5" cy="976.1" r="4.5"/>
		<circle class="st15" cx="935.1" cy="976.1" r="4.5"/>
		<circle class="st15" cx="1041.9" cy="976.1" r="4.5"/>
		<circle class="st15" cx="1102.8" cy="976.1" r="4.5"/>
		<rect x="962" y="883.3" class="st16" width="67.5" height="109.3"/>
		<rect x="1029.5" y="883.3" class="st17" width="23.1" height="75.9"/>
		<g>
			<g>
				<rect x="899.5" y="934.2" class="st16" width="25" height="25"/>
				<rect x="930.2" y="934.2" class="st16" width="25" height="25"/>
				<rect x="915.3" y="935.1" class="st18" width="8.3" height="23.2"/>
				<rect x="946" y="935" class="st18" width="8.3" height="23.3"/>
			</g>
			<rect x="919.4" y="914.4" class="st16" width="19.8" height="19.8"/>
			<rect x="931.8" y="915.3" class="st18" width="6.6" height="18.1"/>
		</g>
		<rect x="1071.5" y="934.2" class="st16" width="25" height="25"/>
		<rect x="1087.2" y="935.1" class="st18" width="8.3" height="23.3"/>
		<path class="st19" d="M1046.1,957.9v-28.5c0-2.7-2.2-5-5-5c-2.7,0-5,2.2-5,5v28.5H1046.1z"/>
		<line class="st16" x1="1012.6" y1="974.6" x2="1012.6" y2="986.5"/>
		<line class="st16" x1="1017.7" y1="974.6" x2="1017.7" y2="986.5"/>
		<line class="st16" x1="1022.8" y1="974.6" x2="1022.8" y2="986.5"/>
		<rect x="1030.4" y="956.3" class="st20" width="4.8" height="35.8"/>
		<path class="st16" d="M1026.8,871.8c-4.3,0-7.8,3.5-7.8,7.8h15.5C1034.6,875.3,1031.1,871.8,1026.8,871.8z"/>
		<rect x="1015.7" y="879.1" class="st16" width="22.2" height="4.2"/>
		<circle class="st16" cx="1004.3" cy="892.8" r="2.1"/>
		<circle class="st16" cx="1012.7" cy="892.8" r="2.1"/>
		<circle class="st16" cx="1021.2" cy="892.8" r="2.1"/>
	</g>
	<path class="st21" d="M1334.5,658.2v-25c0-31.5,25.8-57.3,57.3-57.3h27.1c31.5,0,57.3,25.8,57.3,57.3v25"/>
	<path class="st21" d="M1441.4,539.3h8v-27.6c0-24.4-19.8-44.1-44.1-44.1h0c-24.4,0-44.1,19.8-44.1,44.1v27.6h7.7"/>
	<path class="st21" d="M1368.8,510.8v38.1c0,15.6,9.9,29,23.8,34.2v4.3c0,7,5.7,12.8,12.8,12.8l0,0c7,0,12.8-5.7,12.8-12.8v-4.3
		c13.9-5.2,23.8-18.6,23.8-34.2V518"/>
	<path class="st21" d="M1414,544.2c0,4.3-3.5,7.8-7.8,7.8c-4.3,0-7.8-3.5-7.8-7.8"/>
	<line class="st21" x1="1376.8" y1="518.5" x2="1442.7" y2="518.5"/>
	<line class="st21" x1="1400.6" y1="567.1" x2="1411.6" y2="567.1"/>
	<line class="st21" x1="1361.1" y1="511.4" x2="1449.4" y2="511.4"/>
	<ellipse class="st22" cx="1387" cy="529.3" rx="2" ry="3.6"/>
	<ellipse class="st22" cx="1425.3" cy="529.3" rx="2" ry="3.6"/>
	<path class="st21" d="M1410.8,585.5c-1.6,0.3-3.2,0.4-4.8,0.4c-2,0-3.9-0.2-5.7-0.6"/>
	<path class="st21" d="M1442.6,520.3c5.3,0,9.6,4.3,9.6,9.6v12.6c0,5.3-4.3,9.6-9.6,9.6"/>
	<path class="st21" d="M1368.2,520.3c-5.3,0-9.6,4.3-9.6,9.6v12.6c0,5.3,4.3,9.6,9.6,9.6"/>
	<rect x="1353.4" y="650.6" class="st21" width="106.5" height="6.9"/>
	<g>
		<path class="st21" d="M1380.5,650.4V647c0-2-1.6-3.6-3.6-3.6s-3.6,1.6-3.6,3.6v3.4H1380.5z"/>
		<path class="st21" d="M1387.7,650.4V647c0-2-1.6-3.6-3.6-3.6c-2,0-3.6,1.6-3.6,3.6v3.4H1387.7z"/>
		<path class="st21" d="M1394.9,650.4V647c0-2-1.6-3.6-3.6-3.6s-3.6,1.6-3.6,3.6v3.4H1394.9z"/>
		<path class="st21" d="M1373.4,650.1v-2.5c0-1.4-1.2-2.6-2.6-2.6c-1.4,0-2.6,1.2-2.6,2.6v2.5H1373.4z"/>
	</g>
	<g>
		<path class="st21" d="M1430.7,650.4V647c0-2,1.6-3.6,3.6-3.6c2,0,3.6,1.6,3.6,3.6v3.4H1430.7z"/>
		<path class="st21" d="M1423.5,650.4V647c0-2,1.6-3.6,3.6-3.6c2,0,3.6,1.6,3.6,3.6v3.4H1423.5z"/>
		<path class="st21" d="M1416.3,650.4V647c0-2,1.6-3.6,3.6-3.6s3.6,1.6,3.6,3.6v3.4H1416.3z"/>
		<path class="st21" d="M1437.9,650.1v-2.5c0-1.4,1.2-2.6,2.6-2.6c1.4,0,2.6,1.2,2.6,2.6v2.5H1437.9z"/>
	</g>
	<path class="st21" d="M1365,646c-12.8,0-23.2-12.1-23.2-27.1"/>
	<path class="st21" d="M1446.3,646c12.8,0,23.2-12.1,23.2-27.1"/>
	<path class="st21" d="M1380.8,537.8c1.9-0.8,4.3-1.3,6.9-1.3c2.4,0,4.7,0.4,6.5,1.1"/>
	<path class="st21" d="M1419.1,537.8c1.9-0.8,4.3-1.3,6.9-1.3c2.4,0,4.7,0.4,6.5,1.1"/>
	<g>
		<path class="st15" d="M409.5,636.4c-2.1-2.2-5.1-3.5-8.4-3.5c-1.3,0-2.5,0.2-3.6,0.6c-2.4-1.5-5.2-2.5-8.2-2.5
			c-6.7,0-12.4,4.4-14.3,10.5c-1.6-0.8-3.3-1.2-5.1-1.2c-1.7,0-3.3,0.4-4.8,1c-2.3-5.7-7.9-9.7-14.4-9.7c-8.6,0-15.5,6.9-15.5,15.5"
			/>
		<line class="st15" x1="335.9" y1="647.2" x2="318.6" y2="647.2"/>
	</g>
	<g>
		<g>
			<rect x="764.2" y="898.6" class="st15" width="88.7" height="94.3"/>
			<rect x="773" y="890.9" class="st15" width="70.2" height="7.8"/>
			<line class="st13" x1="826" y1="890.9" x2="826" y2="993"/>
			<line class="st13" x1="764.2" y1="921" x2="852.8" y2="921"/>
			<line class="st13" x1="764.2" y1="945.7" x2="852.8" y2="945.7"/>
			<line class="st13" x1="764.2" y1="969.6" x2="852.8" y2="969.6"/>
		</g>
		<rect x="777.5" y="871.4" class="st15" width="48.5" height="19.4"/>
		<rect x="785.3" y="857.5" class="st15" width="33.4" height="13.9"/>
		<line class="st15" x1="786" y1="835.9" x2="795.2" y2="857.5"/>
		<line class="st15" x1="797.1" y1="835.9" x2="806.3" y2="857.5"/>
		<circle class="st15" cx="787.6" cy="824.7" r="14.5"/>
		<path class="st15" d="M791.7,815.5c1.6,0.9,2.9,2.1,3.9,3.7c0.9,1.5,1.5,3.4,1.5,5.3"/>
	</g>
	<g>
		<path class="st15" d="M1384.3,656.3c-0.9-2.6-3.4-4.5-6.3-4.5c-1.1,0-2.1,0.3-3,0.7c-0.9-4-4.5-6.9-8.8-6.9c-4.3,0-7.8,3-8.8,7
			c-0.9-0.5-2-0.8-3.1-0.8c-2.9,0-5.4,1.9-6.3,4.5c-3.9,0.1-7,3.4-7,7.3c0,4,3.3-19.8,7.3-19.8h35.9c4,0,7.3,23.8,7.3,19.8
			C1391.5,659.6,1388.3,656.4,1384.3,656.3z"/>
		<path class="st15" d="M1347.6,658.2c0-3.7,3-6.7,6.7-6.7c2.4,0,4.6,1.3,5.7,3.2"/>
		<path class="st23" d="M1365.8,647.9c2.9,0,5.4,1.8,6.4,4.3"/>
	</g>
	<g>
		<rect x="1289" y="642.6" class="st14" width="232" height="346.4"/>
		<g>
			<rect x="1308.7" y="936.3" class="st24" width="53.7" height="25"/>
			<rect x="1368.1" y="936.3" class="st24" width="55.1" height="25"/>
			<rect x="1429.1" y="936.3" class="st24" width="54.3" height="25"/>
			<rect x="1489.3" y="936.3" class="st24" width="35" height="25"/>
			<rect x="1285" y="936.3" class="st24" width="17.1" height="25"/>
		</g>
		<g>
			<rect x="1285" y="904.7" class="st24" width="53.7" height="25"/>
			<rect x="1346.9" y="904.7" class="st24" width="53.7" height="25"/>
			<rect x="1408.7" y="904.7" class="st24" width="53.7" height="25"/>
			<rect x="1470.6" y="904.7" class="st24" width="53.7" height="25"/>
		</g>
		<g>
			<rect x="1285.7" y="968" class="st24" width="53.7" height="25"/>
			<rect x="1347.6" y="968" class="st24" width="53.7" height="25"/>
			<rect x="1409.4" y="968" class="st24" width="53.7" height="25"/>
			<rect x="1471.3" y="968" class="st24" width="53.7" height="25"/>
		</g>
		<g>
			<rect x="1308.7" y="841.4" class="st24" width="53.7" height="25"/>
			<rect x="1368.1" y="841.4" class="st24" width="55.1" height="25"/>
			<rect x="1429.1" y="841.4" class="st24" width="54.3" height="25"/>
			<rect x="1489.3" y="841.4" class="st24" width="35" height="25"/>
			<rect x="1285" y="841.4" class="st24" width="17.1" height="25"/>
		</g>
		<g>
			<rect x="1285" y="809.8" class="st24" width="53.7" height="25"/>
			<rect x="1346.9" y="809.8" class="st24" width="53.7" height="25"/>
			<rect x="1408.7" y="809.8" class="st24" width="53.7" height="25"/>
			<rect x="1470.6" y="809.8" class="st24" width="53.7" height="25"/>
		</g>
		<g>
			<rect x="1285.7" y="873.1" class="st24" width="53.7" height="25"/>
			<rect x="1347.6" y="873.1" class="st24" width="53.7" height="25"/>
			<rect x="1409.4" y="873.1" class="st24" width="53.7" height="25"/>
			<rect x="1471.3" y="873.1" class="st24" width="53.7" height="25"/>
		</g>
		<g>
			<rect x="1308.7" y="746.5" class="st24" width="53.7" height="25"/>
			<rect x="1368.1" y="746.5" class="st24" width="55.1" height="25"/>
			<rect x="1429.1" y="746.5" class="st24" width="54.3" height="25"/>
			<rect x="1489.3" y="746.5" class="st24" width="35" height="25"/>
			<rect x="1285" y="746.5" class="st24" width="17.1" height="25"/>
		</g>
		<g>
			<rect x="1285" y="714.9" class="st24" width="53.7" height="25"/>
			<rect x="1346.9" y="714.9" class="st24" width="53.7" height="25"/>
			<rect x="1408.7" y="714.9" class="st24" width="53.7" height="25"/>
			<rect x="1470.6" y="714.9" class="st24" width="53.7" height="25"/>
		</g>
		<g>
			<rect x="1285.7" y="778.2" class="st24" width="53.7" height="25"/>
			<rect x="1347.6" y="778.2" class="st24" width="53.7" height="25"/>
			<rect x="1409.4" y="778.2" class="st24" width="53.7" height="25"/>
			<rect x="1471.3" y="778.2" class="st24" width="53.7" height="25"/>
		</g>
		<g>
			<rect x="1285" y="621.1" class="st25" width="39.4" height="25"/>
			<rect x="1351.6" y="621.1" class="st25" width="39.4" height="25"/>
			<rect x="1418.3" y="621.1" class="st25" width="39.4" height="25"/>
			<rect x="1484.9" y="621.1" class="st25" width="39.4" height="25"/>
		</g>
		<g>
			<rect x="1308.7" y="684.4" class="st24" width="53.7" height="25"/>
			<rect x="1368.1" y="684.4" class="st24" width="55.1" height="25"/>
			<rect x="1429.1" y="684.4" class="st24" width="54.3" height="25"/>
			<rect x="1489.3" y="684.4" class="st24" width="35" height="25"/>
			<rect x="1285" y="684.4" class="st24" width="17.1" height="25"/>
		</g>
		<g>
			<rect x="1285" y="652.7" class="st24" width="53.7" height="25"/>
			<rect x="1346.9" y="652.7" class="st24" width="53.7" height="25"/>
			<rect x="1408.7" y="652.7" class="st24" width="53.7" height="25"/>
			<rect x="1470.6" y="652.7" class="st24" width="53.7" height="25"/>
		</g>
	</g>
	<g>
		<polyline class="st15" points="1479,922.5 1499.2,922.5 1499.2,993 1428.7,993 1428.7,922.5 1448.8,922.5 		"/>
		<path class="st26" d="M1473.3,941.1c4.2,2.9,7,7.8,7,13.3c0,9-7.3,16.3-16.3,16.3c-9,0-16.3-7.3-16.3-16.3
			c0-5.6,2.8-10.6,7.2-13.5"/>
		<circle class="st26" cx="1441.9" cy="981.2" r="6.5"/>
		<rect x="1460.1" y="918.7" class="st26" width="7.7" height="42.2"/>
		<circle class="st26" cx="1463.9" cy="914.6" r="13"/>
		<line class="st27" x1="1483.6" y1="975.6" x2="1483.6" y2="986.7"/>
		<line class="st27" x1="1490.3" y1="975.6" x2="1490.3" y2="986.7"/>
		<path class="st26" d="M1466.3,906.7c3.6,0.9,6.2,4.1,6.2,7.9"/>
	</g>
	<polygon class="st21" points="1405.2,488.3 1407.1,492.3 1411.5,492.9 1408.3,496 1409.1,500.4 1405.2,498.3 1401.3,500.4 
		1402,496 1398.8,492.9 1403.2,492.3 	"/>
	<g>
		<g>
			<rect x="502.9" y="865.5" class="st14" width="225.6" height="123.6"/>
			<g>
				<g>
					<rect x="522.2" y="893.7" class="st15" width="52.4" height="24.4"/>
					<rect x="580.2" y="893.7" class="st15" width="53.8" height="24.4"/>
					<rect x="639.8" y="893.7" class="st15" width="53" height="24.4"/>
					<rect x="698.3" y="893.7" class="st15" width="34.2" height="24.4"/>
					<rect x="499" y="893.7" class="st15" width="16.7" height="24.4"/>
				</g>
				<g>
					<rect x="522.9" y="954.2" class="st15" width="52.4" height="24.4"/>
					<rect x="580.9" y="954.2" class="st15" width="53.8" height="24.4"/>
					<rect x="640.4" y="954.2" class="st15" width="53" height="24.4"/>
					<rect x="698.3" y="954.2" class="st15" width="34.2" height="24.4"/>
					<rect x="499.7" y="954.2" class="st15" width="16.7" height="24.4"/>
				</g>
				<g>
					<rect x="499" y="862" class="st15" width="52.4" height="24.4"/>
					<rect x="559.4" y="862" class="st15" width="52.4" height="24.4"/>
					<rect x="680.1" y="862" class="st15" width="52.4" height="24.4"/>
				</g>
				<g>
					<rect x="499.7" y="924" class="st15" width="52.4" height="24.4"/>
					<rect x="560.1" y="924" class="st15" width="52.4" height="24.4"/>
					<rect x="680.1" y="924" class="st15" width="52.4" height="24.4"/>
				</g>
				<g>
					<rect x="499" y="985.3" class="st15" width="52.4" height="6.4"/>
					<rect x="559.4" y="985.3" class="st15" width="52.4" height="6.4"/>
					<rect x="619.9" y="985.3" class="st15" width="52.4" height="6.4"/>
					<rect x="680.1" y="986.5" class="st15" width="52.4" height="6.4"/>
				</g>
			</g>
		</g>
		<path class="st21" d="M484.5,659v-25c0-31.5,25.8-57.3,57.3-57.3h27.1c31.5,0,57.3,25.8,57.3,57.3v25"/>
		<path class="st21" d="M591.4,540.1h8v-27.6c0-24.4-19.8-44.1-44.1-44.1h0c-24.4,0-44.1,19.8-44.1,44.1v27.6h7.7"/>
		<path class="st21" d="M518.8,511.6v38.1c0,15.6,9.9,29,23.8,34.2v4.3c0,7,5.7,12.8,12.8,12.8l0,0c7,0,12.8-5.7,12.8-12.8V584
			c13.9-5.2,23.8-18.6,23.8-34.2v-30.9"/>
		<path class="st21" d="M563.9,545c0,4.3-3.5,7.8-7.8,7.8c-4.3,0-7.8-3.5-7.8-7.8"/>
		<line class="st21" x1="526.7" y1="519.2" x2="592.7" y2="519.2"/>
		<line class="st21" x1="550.5" y1="567.9" x2="561.6" y2="567.9"/>
		<line class="st21" x1="511.1" y1="512.1" x2="599.4" y2="512.1"/>
		<ellipse class="st22" cx="537" cy="530.1" rx="2" ry="3.6"/>
		<ellipse class="st22" cx="575.3" cy="530.1" rx="2" ry="3.6"/>
		<path class="st21" d="M560.7,586.3c-1.6,0.3-3.2,0.4-4.8,0.4c-2,0-3.9-0.2-5.7-0.6"/>
		<path class="st21" d="M592.5,521c5.3,0,9.6,4.3,9.6,9.6v12.6c0,5.3-4.3,9.6-9.6,9.6"/>
		<path class="st21" d="M518.1,521c-5.3,0-9.6,4.3-9.6,9.6v12.6c0,5.3,4.3,9.6,9.6,9.6"/>
		<rect x="503.4" y="651.4" class="st21" width="106.5" height="6.9"/>
		<g>
			<path class="st21" d="M530.5,651.2v-3.4c0-2-1.6-3.6-3.6-3.6c-2,0-3.6,1.6-3.6,3.6v3.4H530.5z"/>
			<path class="st21" d="M537.7,651.2v-3.4c0-2-1.6-3.6-3.6-3.6c-2,0-3.6,1.6-3.6,3.6v3.4H537.7z"/>
			<path class="st21" d="M544.8,651.2v-3.4c0-2-1.6-3.6-3.6-3.6s-3.6,1.6-3.6,3.6v3.4H544.8z"/>
			<path class="st21" d="M523.3,650.9v-2.5c0-1.4-1.2-2.6-2.6-2.6c-1.4,0-2.6,1.2-2.6,2.6v2.5H523.3z"/>
		</g>
		<g>
			<path class="st21" d="M580.6,651.2v-3.4c0-2,1.6-3.6,3.6-3.6c2,0,3.6,1.6,3.6,3.6v3.4H580.6z"/>
			<path class="st21" d="M573.5,651.2v-3.4c0-2,1.6-3.6,3.6-3.6c2,0,3.6,1.6,3.6,3.6v3.4H573.5z"/>
			<path class="st21" d="M566.3,651.2v-3.4c0-2,1.6-3.6,3.6-3.6c2,0,3.6,1.6,3.6,3.6v3.4H566.3z"/>
			<path class="st21" d="M587.8,650.9v-2.5c0-1.4,1.2-2.6,2.6-2.6c1.4,0,2.6,1.2,2.6,2.6v2.5H587.8z"/>
		</g>
		<path class="st21" d="M515,646.8c-12.8,0-23.2-12.1-23.2-27.1"/>
		<path class="st21" d="M596.3,646.8c12.8,0,23.2-12.1,23.2-27.1"/>
		<path class="st21" d="M530.7,538.6c1.9-0.8,4.3-1.3,6.9-1.3c2.4,0,4.7,0.4,6.5,1.1"/>
		<path class="st21" d="M569,538.6c1.9-0.8,4.3-1.3,6.9-1.3c2.4,0,4.7,0.4,6.5,1.1"/>
		<g>
			<rect x="439" y="641" class="st14" width="232" height="348"/>
			<g>
				<rect x="458.7" y="936.3" class="st24" width="53.7" height="25"/>
				<rect x="518.1" y="936.3" class="st24" width="55.1" height="25"/>
				<rect x="579.1" y="936.3" class="st24" width="54.3" height="25"/>
				<rect x="639.2" y="936.3" class="st24" width="35" height="25"/>
				<rect x="434.9" y="936.3" class="st24" width="17.1" height="25"/>
			</g>
			<g>
				<rect x="434.9" y="904.7" class="st24" width="53.7" height="25"/>
				<rect x="496.8" y="904.7" class="st24" width="53.7" height="25"/>
				<rect x="558.7" y="904.7" class="st24" width="53.7" height="25"/>
				<rect x="620.6" y="904.7" class="st24" width="53.7" height="25"/>
			</g>
			<g>
				<rect x="435.6" y="968" class="st24" width="53.7" height="25"/>
				<rect x="497.5" y="968" class="st24" width="53.7" height="25"/>
				<rect x="559.4" y="968" class="st24" width="53.7" height="25"/>
				<rect x="621.2" y="968" class="st24" width="53.7" height="25"/>
			</g>
			<g>
				<rect x="458.7" y="841.4" class="st24" width="53.7" height="25"/>
				<rect x="518.1" y="841.4" class="st24" width="55.1" height="25"/>
				<rect x="579.1" y="841.4" class="st24" width="54.3" height="25"/>
				<rect x="639.2" y="841.4" class="st24" width="35" height="25"/>
				<rect x="434.9" y="841.4" class="st24" width="17.1" height="25"/>
			</g>
			<g>
				<rect x="434.9" y="809.8" class="st24" width="53.7" height="25"/>
				<rect x="496.8" y="809.8" class="st24" width="53.7" height="25"/>
				<rect x="558.7" y="809.8" class="st24" width="53.7" height="25"/>
				<rect x="620.6" y="809.8" class="st24" width="53.7" height="25"/>
			</g>
			<g>
				<rect x="435.6" y="873.1" class="st24" width="53.7" height="25"/>
				<rect x="497.5" y="873.1" class="st24" width="53.7" height="25"/>
				<rect x="559.4" y="873.1" class="st24" width="53.7" height="25"/>
				<rect x="621.2" y="873.1" class="st24" width="53.7" height="25"/>
			</g>
			<g>
				<rect x="458.7" y="746.5" class="st24" width="53.7" height="25"/>
				<rect x="518.1" y="746.5" class="st24" width="55.1" height="25"/>
				<rect x="579.1" y="746.5" class="st24" width="54.3" height="25"/>
				<rect x="639.2" y="746.5" class="st24" width="35" height="25"/>
				<rect x="434.9" y="746.5" class="st24" width="17.1" height="25"/>
			</g>
			<g>
				<rect x="434.9" y="714.9" class="st24" width="53.7" height="25"/>
				<rect x="496.8" y="714.9" class="st24" width="53.7" height="25"/>
				<rect x="558.7" y="714.9" class="st24" width="53.7" height="25"/>
				<rect x="620.6" y="714.9" class="st24" width="53.7" height="25"/>
			</g>
			<g>
				<rect x="435.6" y="778.2" class="st24" width="53.7" height="25"/>
				<rect x="497.5" y="778.2" class="st24" width="53.7" height="25"/>
				<rect x="559.4" y="778.2" class="st24" width="53.7" height="25"/>
				<rect x="621.2" y="778.2" class="st24" width="53.7" height="25"/>
			</g>
			<g>
				<rect x="434.9" y="621.1" class="st25" width="39.4" height="25"/>
				<rect x="501.6" y="621.1" class="st25" width="39.4" height="25"/>
				<rect x="568.2" y="621.1" class="st25" width="39.4" height="25"/>
				<rect x="634.9" y="621.1" class="st25" width="39.4" height="25"/>
			</g>
			<g>
				<rect x="458.7" y="684.4" class="st24" width="53.7" height="25"/>
				<rect x="518.1" y="684.4" class="st24" width="55.1" height="25"/>
				<rect x="579.1" y="684.4" class="st24" width="54.3" height="25"/>
				<rect x="639.2" y="684.4" class="st24" width="35" height="25"/>
				<rect x="434.9" y="684.4" class="st24" width="17.1" height="25"/>
			</g>
			<g>
				<rect x="434.9" y="652.7" class="st24" width="53.7" height="25"/>
				<rect x="496.8" y="652.7" class="st24" width="53.7" height="25"/>
				<rect x="558.7" y="652.7" class="st24" width="53.7" height="25"/>
				<rect x="620.6" y="652.7" class="st24" width="53.7" height="25"/>
			</g>
		</g>
		<g>
			<polyline class="st15" points="628.9,922.5 649.1,922.5 649.1,993 578.6,993 578.6,922.5 598.7,922.5 			"/>
			<path class="st26" d="M623.2,941.1c4.2,2.9,7,7.8,7,13.3c0,9-7.3,16.3-16.3,16.3c-9,0-16.3-7.3-16.3-16.3
				c0-5.6,2.8-10.6,7.2-13.5"/>
			<circle class="st26" cx="591.9" cy="981.2" r="6.5"/>
			<rect x="610" y="918.7" class="st26" width="7.7" height="42.2"/>
			<circle class="st26" cx="613.9" cy="914.6" r="13"/>
			<line class="st27" x1="633.5" y1="975.6" x2="633.5" y2="986.7"/>
			<line class="st27" x1="640.2" y1="975.6" x2="640.2" y2="986.7"/>
			<path class="st26" d="M616.2,906.7c3.6,0.9,6.2,4.1,6.2,7.9"/>
		</g>
		<polygon class="st21" points="555.1,489.1 557.1,493.1 561.4,493.7 558.3,496.8 559,501.1 555.1,499.1 551.2,501.1 551.9,496.8 
			548.8,493.7 553.2,493.1 		"/>
	</g>
	<path class="st28" d="M1035.4,798h-14.6c-1.1,0-2-0.9-2-2v-34.4c0-1.1,0.9-2,2-2h14.6c1.1,0,2,0.9,2,2V796
		C1037.4,797.1,1036.5,798,1035.4,798z"/>
	<path class="st28" d="M993.4,798h-14.6c-1.1,0-2-0.9-2-2v-34.4c0-1.1,0.9-2,2-2h14.6c1.1,0,2,0.9,2,2V796
		C995.4,797.1,994.5,798,993.4,798z"/>
	<path class="st28" d="M951.4,798h-14.6c-1.1,0-2-0.9-2-2v-34.4c0-1.1,0.9-2,2-2h14.6c1.1,0,2,0.9,2,2V796
		C953.3,797.1,952.5,798,951.4,798z"/>
	<path class="st28" d="M1035.4,852h-14.6c-1.1,0-2-0.9-2-2v-34.4c0-1.1,0.9-2,2-2h14.6c1.1,0,2,0.9,2,2V850
		C1037.4,851.1,1036.5,852,1035.4,852z"/>
	<path class="st28" d="M993.4,852h-14.6c-1.1,0-2-0.9-2-2v-34.4c0-1.1,0.9-2,2-2h14.6c1.1,0,2,0.9,2,2V850
		C995.4,851.1,994.5,852,993.4,852z"/>
	<path class="st28" d="M951.4,852h-14.6c-1.1,0-2-0.9-2-2v-34.4c0-1.1,0.9-2,2-2h14.6c1.1,0,2,0.9,2,2V850
		C953.3,851.1,952.5,852,951.4,852z"/>
	<path class="st28" d="M951.4,906h-14.6c-1.1,0-2-0.9-2-2v-34.4c0-1.1,0.9-2,2-2h14.6c1.1,0,2,0.9,2,2V904
		C953.3,905.1,952.5,906,951.4,906z"/>
</g>
</svg>
