<?xml version="1.0" encoding="utf-8"?>
<!-- Generator: Adobe Illustrator 21.0.0, SVG Export Plug-In . SVG Version: 6.00 Build 0)  -->
<svg version="1.2" baseProfile="tiny" id="图层_1"
	 xmlns="http://www.w3.org/2000/svg" xmlns:xlink="http://www.w3.org/1999/xlink" x="0px" y="0px" viewBox="0 0 86 30"
	 xml:space="preserve">
<g>
	<path fill="#2C97E8" d="M0.6,11.9c0-3.5,1-6.2,2.9-8.1s4.6-2.9,8.1-2.9s6.3,0.9,8.2,2.8c1.9,1.9,2.9,4.6,2.9,8
		c0,2.5-0.4,4.5-1.3,6.1c-0.8,1.6-2,2.8-3.6,3.7s-3.5,1.3-5.9,1.3S7.5,22.4,6,21.7c-1.6-0.8-2.8-2-3.8-3.6S0.6,14.4,0.6,11.9z
		 M7.1,11.9c0,2.1,0.4,3.7,1.2,4.6c0.8,0.9,1.9,1.4,3.2,1.4c1.4,0,2.5-0.5,3.3-1.4s1.2-2.6,1.2-4.9c0-2-0.4-3.5-1.2-4.4
		s-1.9-1.4-3.3-1.4c-1.3,0-2.4,0.5-3.2,1.4C7.5,8.2,7.1,9.8,7.1,11.9z"/>
	<path fill="#2C97E8" d="M25.7,1.3h5.9v7.4c0.6-0.6,1.3-1.1,2-1.4c0.7-0.3,1.6-0.5,2.5-0.5c1.9,0,3.4,0.7,4.6,2
		c1.2,1.3,1.8,3.3,1.8,5.8c0,1.7-0.3,3.2-0.8,4.4s-1.3,2.2-2.3,2.9s-2.1,0.9-3.3,0.9c-1,0-2-0.2-2.8-0.7c-0.6-0.3-1.4-1-2.1-2v2.3
		h-5.5L25.7,1.3z M31.6,14.8c0,1.3,0.2,2.3,0.7,2.9c0.5,0.6,1.1,0.9,1.9,0.9c0.7,0,1.3-0.3,1.8-0.9s0.7-1.6,0.7-2.9
		c0-1.2-0.2-2.1-0.7-2.7c-0.5-0.6-1-0.9-1.7-0.9c-0.8,0-1.5,0.3-2,0.9C31.9,12.7,31.6,13.6,31.6,14.8z"/>
	<path fill="#2C97E8" d="M45.7,7.1h5.9V22c0,1.9-0.1,3.2-0.4,4c-0.3,0.8-0.8,1.4-1.5,1.9s-1.8,0.7-3.2,0.7c-1.1,0-2.6-0.2-4.2-0.5
		l0.9-4.3c0.5,0.1,0.8,0.1,1,0.1c0.5,0,0.9-0.2,1.1-0.5c0.3-0.3,0.4-1,0.4-2V7.1z M45.7,1.3h5.9v4.1h-5.9V1.3z"/>
	<path fill="#2C97E8" d="M54.2,12.5h8.6V17h-8.6L54.2,12.5z"/>
	<path fill="#2C97E8" d="M79.7,13.8l5.7,1.7c-0.4,1.6-1,3-1.8,4c-0.8,1.1-1.9,1.9-3.1,2.4s-2.8,0.8-4.7,0.8c-2.3,0-4.2-0.3-5.7-1
		s-2.7-1.8-3.8-3.5c-1.1-1.7-1.6-3.8-1.6-6.5c0-3.5,0.9-6.2,2.8-8.1s4.5-2.8,7.9-2.8c2.7,0,4.8,0.5,6.3,1.6s2.7,2.7,3.4,5l-5.8,1.3
		c-0.2-0.6-0.4-1.1-0.6-1.4c-0.4-0.5-0.8-0.9-1.3-1.2c-0.4-0.1-1-0.3-1.7-0.3c-1.5,0-2.6,0.6-3.4,1.8c-0.6,0.9-0.9,2.3-0.9,4.2
		c0,2.4,0.4,4,1.1,4.8c0.7,0.9,1.7,1.3,3,1.3s2.2-0.4,2.8-1.1C79,16.2,79.4,15.2,79.7,13.8z"/>
</g>
</svg>
