<?xml version="1.0" encoding="utf-8"?>
<!-- Generator: Adobe Illustrator 21.0.0, SVG Export Plug-In . SVG Version: 6.00 Build 0)  -->
<svg version="1.1" id="图层_1" xmlns="http://www.w3.org/2000/svg" xmlns:xlink="http://www.w3.org/1999/xlink" x="0px" y="0px"
	 viewBox="0 0 431 313" style="enable-background:new 0 0 431 313;" xml:space="preserve">
<style type="text/css">
	.st0{fill:#FFFFFF;stroke:#455D82;stroke-width:3;stroke-miterlimit:10;}
	.st1{fill:#B2DBF7;}
	.st2{fill:#82A8CE;}
	.st3{opacity:0.25;fill:#0A6699;}
	.st4{fill:none;stroke:#455D82;stroke-width:3;stroke-miterlimit:10;}
	.st5{fill:#0B78FF;}
	.st6{fill:none;stroke:#B2DBF7;stroke-width:2;stroke-miterlimit:10;}
	.st7{fill:#AFCDF9;}
	.st8{fill:#455D82;}
	.st9{fill:#BFD8EF;}
	.st10{fill:#E4EEF9;}
	.st11{opacity:0.25;}
	.st12{fill:#0A6699;}
	.st13{opacity:0.68;fill:#2C97E8;}
</style>
<g>
	<g>
		<path class="st0" d="M421.8,228.3H320.3c-3.3,0-6-2.7-6-6v-20.4c0-3.3,2.7-6,6-6h101.5c3.3,0,6,2.7,6,6v20.4
			C427.8,225.6,425.1,228.3,421.8,228.3z"/>
		<path class="st1" d="M423,226.3H319c-1.7,0-3-1.3-3-3v-16.7c0-1.6,1.3-3,3-3h104c1.6,0,3,1.4,3,3v16.7
			C426,224.9,424.7,226.3,423,226.3z"/>
		<path class="st0" d="M421.8,260.6H320.3c-3.3,0-6-2.7-6-6v-20.4c0-3.3,2.7-6,6-6h101.5c3.3,0,6,2.7,6,6v20.4
			C427.8,257.9,425.1,260.6,421.8,260.6z"/>
		<path class="st1" d="M423,258.5H319c-1.7,0-3-1.3-3-3v-16.7c0-1.7,1.3-3,3-3h104c1.6,0,3,1.3,3,3v16.7
			C426,257.2,424.7,258.5,423,258.5z"/>
		<path class="st0" d="M421.8,292.8H320.3c-3.3,0-6-2.7-6-6v-20.4c0-3.3,2.7-6,6-6h101.5c3.3,0,6,2.7,6,6v20.4
			C427.8,290.1,425.1,292.8,421.8,292.8z"/>
		<path class="st1" d="M423,290.8H319c-1.7,0-3-1.4-3-3v-16.7c0-1.7,1.3-3,3-3h104c1.6,0,3,1.3,3,3v16.7
			C426,289.5,424.7,290.8,423,290.8z"/>
		<g>
			<path class="st2" d="M325.1,224L325.1,224c-0.7,0-1.2-0.5-1.2-1.2v-14.6c0-0.7,0.5-1.2,1.2-1.2h0c0.7,0,1.2,0.5,1.2,1.2v14.6
				C326.3,223.5,325.8,224,325.1,224z"/>
			<path class="st2" d="M332.1,224L332.1,224c-0.7,0-1.2-0.5-1.2-1.2v-14.6c0-0.7,0.5-1.2,1.2-1.2h0c0.7,0,1.2,0.5,1.2,1.2v14.6
				C333.3,223.5,332.8,224,332.1,224z"/>
			<path class="st2" d="M339.1,224L339.1,224c-0.7,0-1.2-0.5-1.2-1.2v-14.6c0-0.7,0.5-1.2,1.2-1.2h0c0.7,0,1.2,0.5,1.2,1.2v14.6
				C340.3,223.5,339.8,224,339.1,224z"/>
			<path class="st2" d="M346.1,224L346.1,224c-0.7,0-1.2-0.5-1.2-1.2v-14.6c0-0.7,0.5-1.2,1.2-1.2h0c0.7,0,1.2,0.5,1.2,1.2v14.6
				C347.3,223.5,346.8,224,346.1,224z"/>
			<path class="st2" d="M353.1,224L353.1,224c-0.7,0-1.2-0.5-1.2-1.2v-14.6c0-0.7,0.5-1.2,1.2-1.2h0c0.7,0,1.2,0.5,1.2,1.2v14.6
				C354.3,223.5,353.8,224,353.1,224z"/>
			<path class="st3" d="M360.1,224L360.1,224c-0.7,0-1.2-0.5-1.2-1.2v-14.6c0-0.7,0.5-1.2,1.2-1.2h0c0.7,0,1.2,0.5,1.2,1.2v14.6
				C361.3,223.5,360.8,224,360.1,224z"/>
			<path class="st3" d="M367.1,224L367.1,224c-0.7,0-1.2-0.5-1.2-1.2v-14.6c0-0.7,0.5-1.2,1.2-1.2h0c0.7,0,1.2,0.5,1.2,1.2v14.6
				C368.3,223.5,367.8,224,367.1,224z"/>
			<path class="st3" d="M374.1,224L374.1,224c-0.7,0-1.2-0.5-1.2-1.2v-14.6c0-0.7,0.5-1.2,1.2-1.2h0c0.7,0,1.2,0.5,1.2,1.2v14.6
				C375.3,223.5,374.8,224,374.1,224z"/>
			<path class="st3" d="M381.1,224L381.1,224c-0.7,0-1.2-0.5-1.2-1.2v-14.6c0-0.7,0.5-1.2,1.2-1.2h0c0.7,0,1.2,0.5,1.2,1.2v14.6
				C382.3,223.5,381.8,224,381.1,224z"/>
			<path class="st3" d="M388.1,224L388.1,224c-0.7,0-1.2-0.5-1.2-1.2v-14.6c0-0.7,0.5-1.2,1.2-1.2h0c0.7,0,1.2,0.5,1.2,1.2v14.6
				C389.3,223.5,388.8,224,388.1,224z"/>
			<path class="st3" d="M395.1,224L395.1,224c-0.7,0-1.2-0.5-1.2-1.2v-14.6c0-0.7,0.5-1.2,1.2-1.2h0c0.7,0,1.2,0.5,1.2,1.2v14.6
				C396.3,223.5,395.8,224,395.1,224z"/>
		</g>
		<g>
			<path class="st2" d="M325.1,256L325.1,256c-0.7,0-1.2-0.5-1.2-1.2v-14.6c0-0.7,0.5-1.2,1.2-1.2h0c0.7,0,1.2,0.5,1.2,1.2v14.6
				C326.3,255.5,325.8,256,325.1,256z"/>
			<path class="st2" d="M332.1,256L332.1,256c-0.7,0-1.2-0.5-1.2-1.2v-14.6c0-0.7,0.5-1.2,1.2-1.2h0c0.7,0,1.2,0.5,1.2,1.2v14.6
				C333.3,255.5,332.8,256,332.1,256z"/>
			<path class="st2" d="M339.1,256L339.1,256c-0.7,0-1.2-0.5-1.2-1.2v-14.6c0-0.7,0.5-1.2,1.2-1.2h0c0.7,0,1.2,0.5,1.2,1.2v14.6
				C340.3,255.5,339.8,256,339.1,256z"/>
			<path class="st2" d="M346.1,256L346.1,256c-0.7,0-1.2-0.5-1.2-1.2v-14.6c0-0.7,0.5-1.2,1.2-1.2h0c0.7,0,1.2,0.5,1.2,1.2v14.6
				C347.3,255.5,346.8,256,346.1,256z"/>
			<path class="st2" d="M353.1,256L353.1,256c-0.7,0-1.2-0.5-1.2-1.2v-14.6c0-0.7,0.5-1.2,1.2-1.2h0c0.7,0,1.2,0.5,1.2,1.2v14.6
				C354.3,255.5,353.8,256,353.1,256z"/>
			<path class="st2" d="M360.1,256L360.1,256c-0.7,0-1.2-0.5-1.2-1.2v-14.6c0-0.7,0.5-1.2,1.2-1.2h0c0.7,0,1.2,0.5,1.2,1.2v14.6
				C361.3,255.5,360.8,256,360.1,256z"/>
			<path class="st2" d="M367.1,256L367.1,256c-0.7,0-1.2-0.5-1.2-1.2v-14.6c0-0.7,0.5-1.2,1.2-1.2h0c0.7,0,1.2,0.5,1.2,1.2v14.6
				C368.3,255.5,367.8,256,367.1,256z"/>
			<path class="st3" d="M374.1,256L374.1,256c-0.7,0-1.2-0.5-1.2-1.2v-14.6c0-0.7,0.5-1.2,1.2-1.2h0c0.7,0,1.2,0.5,1.2,1.2v14.6
				C375.3,255.5,374.8,256,374.1,256z"/>
			<path class="st3" d="M381.1,256L381.1,256c-0.7,0-1.2-0.5-1.2-1.2v-14.6c0-0.7,0.5-1.2,1.2-1.2h0c0.7,0,1.2,0.5,1.2,1.2v14.6
				C382.3,255.5,381.8,256,381.1,256z"/>
			<path class="st3" d="M388.1,256L388.1,256c-0.7,0-1.2-0.5-1.2-1.2v-14.6c0-0.7,0.5-1.2,1.2-1.2h0c0.7,0,1.2,0.5,1.2,1.2v14.6
				C389.3,255.5,388.8,256,388.1,256z"/>
			<path class="st3" d="M395.1,256L395.1,256c-0.7,0-1.2-0.5-1.2-1.2v-14.6c0-0.7,0.5-1.2,1.2-1.2h0c0.7,0,1.2,0.5,1.2,1.2v14.6
				C396.3,255.5,395.8,256,395.1,256z"/>
		</g>
		<g>
			<path class="st2" d="M325.1,288L325.1,288c-0.7,0-1.2-0.5-1.2-1.2v-14.6c0-0.7,0.5-1.2,1.2-1.2h0c0.7,0,1.2,0.5,1.2,1.2v14.6
				C326.3,287.5,325.8,288,325.1,288z"/>
			<path class="st2" d="M332.1,288L332.1,288c-0.7,0-1.2-0.5-1.2-1.2v-14.6c0-0.7,0.5-1.2,1.2-1.2h0c0.7,0,1.2,0.5,1.2,1.2v14.6
				C333.3,287.5,332.8,288,332.1,288z"/>
			<path class="st2" d="M339.1,288L339.1,288c-0.7,0-1.2-0.5-1.2-1.2v-14.6c0-0.7,0.5-1.2,1.2-1.2h0c0.7,0,1.2,0.5,1.2,1.2v14.6
				C340.3,287.5,339.8,288,339.1,288z"/>
			<path class="st2" d="M346.1,288L346.1,288c-0.7,0-1.2-0.5-1.2-1.2v-14.6c0-0.7,0.5-1.2,1.2-1.2h0c0.7,0,1.2,0.5,1.2,1.2v14.6
				C347.3,287.5,346.8,288,346.1,288z"/>
			<path class="st2" d="M353.1,288L353.1,288c-0.7,0-1.2-0.5-1.2-1.2v-14.6c0-0.7,0.5-1.2,1.2-1.2h0c0.7,0,1.2,0.5,1.2,1.2v14.6
				C354.3,287.5,353.8,288,353.1,288z"/>
			<path class="st3" d="M360.1,288L360.1,288c-0.7,0-1.2-0.5-1.2-1.2v-14.6c0-0.7,0.5-1.2,1.2-1.2h0c0.7,0,1.2,0.5,1.2,1.2v14.6
				C361.3,287.5,360.8,288,360.1,288z"/>
			<path class="st3" d="M367.1,288L367.1,288c-0.7,0-1.2-0.5-1.2-1.2v-14.6c0-0.7,0.5-1.2,1.2-1.2h0c0.7,0,1.2,0.5,1.2,1.2v14.6
				C368.3,287.5,367.8,288,367.1,288z"/>
			<path class="st3" d="M374.1,288L374.1,288c-0.7,0-1.2-0.5-1.2-1.2v-14.6c0-0.7,0.5-1.2,1.2-1.2h0c0.7,0,1.2,0.5,1.2,1.2v14.6
				C375.3,287.5,374.8,288,374.1,288z"/>
			<path class="st3" d="M381.1,288L381.1,288c-0.7,0-1.2-0.5-1.2-1.2v-14.6c0-0.7,0.5-1.2,1.2-1.2h0c0.7,0,1.2,0.5,1.2,1.2v14.6
				C382.3,287.5,381.8,288,381.1,288z"/>
			<path class="st3" d="M388.1,288L388.1,288c-0.7,0-1.2-0.5-1.2-1.2v-14.6c0-0.7,0.5-1.2,1.2-1.2h0c0.7,0,1.2,0.5,1.2,1.2v14.6
				C389.3,287.5,388.8,288,388.1,288z"/>
			<path class="st3" d="M395.1,288L395.1,288c-0.7,0-1.2-0.5-1.2-1.2v-14.6c0-0.7,0.5-1.2,1.2-1.2h0c0.7,0,1.2,0.5,1.2,1.2v14.6
				C396.3,287.5,395.8,288,395.1,288z"/>
		</g>
	</g>
	<path class="st4" d="M257.9,294.8H143.2c-10.5,0-19.2-8.6-19.2-19.2V61.3c0-10.5,8.6-19.2,19.2-19.2h156.8
		c10.5,0,19.2,8.6,19.2,19.2v122.8"/>
	<circle class="st5" cx="150.7" cy="195.4" r="4.5"/>
	<path class="st6" d="M246.3,265.6h-99.9c-2.2,0-3.9-1.8-3.9-3.9V61.2c0-2.2,1.8-3.9,3.9-3.9h151.4c2.2,0,3.9,1.8,3.9,3.9v123.2"/>
	<path class="st0" d="M127.6,260.6H26.2c-3.3,0-6-2.7-6-6v-20.4c0-3.3,2.7-6,6-6h101.5c3.3,0,6,2.7,6,6v20.4
		C133.6,257.9,130.9,260.6,127.6,260.6z"/>
	<path class="st1" d="M128,258.3H26c-1.6,0-3-1.4-3-3v-16.3c0-1.7,1.4-3,3-3h102c1.7,0,3,1.3,3,3v16.3
		C131,257,129.6,258.3,128,258.3z"/>
	<path class="st0" d="M109.8,292.8H8.3c-3.3,0-6-2.7-6-6v-20.4c0-3.3,2.7-6,6-6h101.5c3.3,0,6,2.7,6,6v20.4
		C115.8,290.1,113.1,292.8,109.8,292.8z"/>
	<path class="st1" d="M110.1,290.6H8.2c-1.7,0-3-1.3-3-3v-16.3c0-1.7,1.4-3,3-3h102c1.7,0,3,1.3,3,3v16.3
		C113.1,289.3,111.8,290.6,110.1,290.6z"/>
	<path class="st7" d="M265.7,65.5h-88.5c-1.2,0-2.1-0.9-2.1-2.1V37.5c0-1.2,0.9-2.1,2.1-2.1h88.5c1.2,0,2.1,0.9,2.1,2.1v25.9
		C267.8,64.6,266.9,65.5,265.7,65.5z"/>
	<path class="st0" d="M264,29.6h-12.4c-8.9-0.9-13.4-7-14.7-15.9l-0.6-3.7c0-3.9-3.2-7.2-7.2-7.2h-16.4c-3.9,0-7.2,3.2-7.2,7.2
		l-0.7,3.7c-1.3,8.8-5.7,14.9-14.6,15.9h-12.4c-2.7,0-5,2.2-5,5v28c0,2.7,2.2,5,5,5H264c2.7,0,5-2.2,5-5v-28
		C268.9,31.9,266.7,29.6,264,29.6z"/>
	<circle class="st8" cx="220.8" cy="18.4" r="5"/>
	<path class="st6" d="M262.6,37.8v22.4c0,0.9-0.8,1.7-1.7,1.7h-80.4c-0.9,0-1.7-0.8-1.7-1.7V37.8"/>
	<g>
		<path class="st9" d="M182.8,252.8v-20.1c0-5.7-4.7-10.4-10.4-10.4c-5.7,0-10.4,4.7-10.4,10.4v20.1H182.8z"/>
		<path class="st10" d="M249.5,252.8v-54.1c0-5.7-4.7-10.4-10.4-10.4c-5.7,0-10.4,4.7-10.4,10.4v54.1H249.5z"/>
		<path class="st10" d="M216.2,252.8v-65.1c0-5.7-4.7-10.4-10.4-10.4c-5.7,0-10.4,4.7-10.4,10.4v65.1H216.2z"/>
		<path class="st10" d="M282.9,252.8v-88.1c0-5.7-4.7-10.4-10.4-10.4c-5.7,0-10.4,4.7-10.4,10.4v88.1H282.9z"/>
		<polygon class="st10" points="164,169.6 155.9,161.4 206.4,110.9 235.6,140 265.8,109.9 255.1,99.2 283.8,99.1 283.7,127.8 
			275,119.2 235.9,158.3 205.6,128 		"/>
	</g>
	<path class="st0" d="M179.8,204.4H78.3c-3.3,0-6-2.7-6-6V178c0-3.3,2.7-6,6-6h101.5c3.3,0,6,2.7,6,6v20.4
		C185.8,201.7,183.1,204.4,179.8,204.4z"/>
	<path class="st1" d="M180.2,202.8H78c-2.2,0-4.1-1.8-4.1-4.1v-15c0-2.2,1.8-4.1,4.1-4.1h102.2c2.2,0,4.1,1.8,4.1,4.1v15
		C184.3,200.9,182.5,202.8,180.2,202.8z"/>
	<path class="st0" d="M179.8,236.7H78.3c-3.3,0-6-2.7-6-6v-20.4c0-3.3,2.7-6,6-6h101.5c3.3,0,6,2.7,6,6v20.4
		C185.8,234,183.1,236.7,179.8,236.7z"/>
	<path class="st1" d="M179.9,235H78.2c-2.4,0-4.4-2-4.4-4.4v-14.3c0-2.4,2-4.4,4.4-4.4h101.7c2.4,0,4.4,2,4.4,4.4v14.3
		C184.3,233.1,182.3,235,179.9,235z"/>
	<path class="st0" d="M179.8,268.9H78.3c-3.3,0-6-2.7-6-6v-20.4c0-3.3,2.7-6,6-6h101.5c3.3,0,6,2.7,6,6v20.4
		C185.8,266.2,183.1,268.9,179.8,268.9z"/>
	<path class="st1" d="M180.1,267.3H77.9c-2.3,0-4.1-1.9-4.1-4.1v-14.8c0-2.3,1.9-4.1,4.1-4.1h102.2c2.3,0,4.1,1.9,4.1,4.1v14.8
		C184.3,265.4,182.4,267.3,180.1,267.3z"/>
	<path class="st0" d="M179.8,301.2H78.3c-3.3,0-6-2.7-6-6v-20.4c0-3.3,2.7-6,6-6h101.5c3.3,0,6,2.7,6,6v20.4
		C185.8,298.5,183.1,301.2,179.8,301.2z"/>
	<path class="st1" d="M179.8,299.7H78.3c-2.5,0-4.5-2-4.5-4.5V281c0-2.5,2-4.5,4.5-4.5h101.5c2.5,0,4.5,2,4.5,4.5v14.2
		C184.3,297.7,182.3,299.7,179.8,299.7z"/>
	<g class="st11">
		<path class="st12" d="M83.1,199.4L83.1,199.4c-0.7,0-1.2-0.5-1.2-1.2v-14.6c0-0.7,0.5-1.2,1.2-1.2h0c0.7,0,1.2,0.5,1.2,1.2v14.6
			C84.3,198.8,83.8,199.4,83.1,199.4z"/>
		<path class="st12" d="M90.1,199.4L90.1,199.4c-0.7,0-1.2-0.5-1.2-1.2v-14.6c0-0.7,0.5-1.2,1.2-1.2h0c0.7,0,1.2,0.5,1.2,1.2v14.6
			C91.3,198.8,90.8,199.4,90.1,199.4z"/>
		<path class="st12" d="M97.1,199.4L97.1,199.4c-0.7,0-1.2-0.5-1.2-1.2v-14.6c0-0.7,0.5-1.2,1.2-1.2h0c0.7,0,1.2,0.5,1.2,1.2v14.6
			C98.3,198.8,97.8,199.4,97.1,199.4z"/>
		<path class="st12" d="M104.1,199.4L104.1,199.4c-0.7,0-1.2-0.5-1.2-1.2v-14.6c0-0.7,0.5-1.2,1.2-1.2h0c0.7,0,1.2,0.5,1.2,1.2v14.6
			C105.3,198.8,104.8,199.4,104.1,199.4z"/>
		<path class="st12" d="M111.1,199.4L111.1,199.4c-0.7,0-1.2-0.5-1.2-1.2v-14.6c0-0.7,0.5-1.2,1.2-1.2h0c0.7,0,1.2,0.5,1.2,1.2v14.6
			C112.3,198.8,111.8,199.4,111.1,199.4z"/>
		<path class="st12" d="M118.1,199.4L118.1,199.4c-0.7,0-1.2-0.5-1.2-1.2v-14.6c0-0.7,0.5-1.2,1.2-1.2h0c0.7,0,1.2,0.5,1.2,1.2v14.6
			C119.3,198.8,118.8,199.4,118.1,199.4z"/>
		<path class="st12" d="M125.1,199.4L125.1,199.4c-0.7,0-1.2-0.5-1.2-1.2v-14.6c0-0.7,0.5-1.2,1.2-1.2h0c0.7,0,1.2,0.5,1.2,1.2v14.6
			C126.3,198.8,125.8,199.4,125.1,199.4z"/>
		<path class="st12" d="M132.1,199.4L132.1,199.4c-0.7,0-1.2-0.5-1.2-1.2v-14.6c0-0.7,0.5-1.2,1.2-1.2h0c0.7,0,1.2,0.5,1.2,1.2v14.6
			C133.3,198.8,132.8,199.4,132.1,199.4z"/>
		<path class="st12" d="M139.1,199.4L139.1,199.4c-0.7,0-1.2-0.5-1.2-1.2v-14.6c0-0.7,0.5-1.2,1.2-1.2h0c0.7,0,1.2,0.5,1.2,1.2v14.6
			C140.3,198.8,139.8,199.4,139.1,199.4z"/>
		<path class="st12" d="M146.1,199.4L146.1,199.4c-0.7,0-1.2-0.5-1.2-1.2v-14.6c0-0.7,0.5-1.2,1.2-1.2h0c0.7,0,1.2,0.5,1.2,1.2v14.6
			C147.3,198.8,146.8,199.4,146.1,199.4z"/>
		<path class="st12" d="M153.1,199.4L153.1,199.4c-0.7,0-1.2-0.5-1.2-1.2v-14.6c0-0.7,0.5-1.2,1.2-1.2h0c0.7,0,1.2,0.5,1.2,1.2v14.6
			C154.3,198.8,153.8,199.4,153.1,199.4z"/>
	</g>
	<g class="st11">
		<path class="st12" d="M83.1,232.4L83.1,232.4c-0.7,0-1.2-0.5-1.2-1.2v-14.6c0-0.7,0.5-1.2,1.2-1.2h0c0.7,0,1.2,0.5,1.2,1.2v14.6
			C84.3,231.8,83.8,232.4,83.1,232.4z"/>
		<path class="st12" d="M90.1,232.4L90.1,232.4c-0.7,0-1.2-0.5-1.2-1.2v-14.6c0-0.7,0.5-1.2,1.2-1.2h0c0.7,0,1.2,0.5,1.2,1.2v14.6
			C91.3,231.8,90.8,232.4,90.1,232.4z"/>
		<path class="st12" d="M97.1,232.4L97.1,232.4c-0.7,0-1.2-0.5-1.2-1.2v-14.6c0-0.7,0.5-1.2,1.2-1.2h0c0.7,0,1.2,0.5,1.2,1.2v14.6
			C98.3,231.8,97.8,232.4,97.1,232.4z"/>
		<path class="st12" d="M104.1,232.4L104.1,232.4c-0.7,0-1.2-0.5-1.2-1.2v-14.6c0-0.7,0.5-1.2,1.2-1.2h0c0.7,0,1.2,0.5,1.2,1.2v14.6
			C105.3,231.8,104.8,232.4,104.1,232.4z"/>
		<path class="st12" d="M111.1,232.4L111.1,232.4c-0.7,0-1.2-0.5-1.2-1.2v-14.6c0-0.7,0.5-1.2,1.2-1.2h0c0.7,0,1.2,0.5,1.2,1.2v14.6
			C112.3,231.8,111.8,232.4,111.1,232.4z"/>
		<path class="st12" d="M118.1,232.4L118.1,232.4c-0.7,0-1.2-0.5-1.2-1.2v-14.6c0-0.7,0.5-1.2,1.2-1.2h0c0.7,0,1.2,0.5,1.2,1.2v14.6
			C119.3,231.8,118.8,232.4,118.1,232.4z"/>
		<path class="st12" d="M125.1,232.4L125.1,232.4c-0.7,0-1.2-0.5-1.2-1.2v-14.6c0-0.7,0.5-1.2,1.2-1.2h0c0.7,0,1.2,0.5,1.2,1.2v14.6
			C126.3,231.8,125.8,232.4,125.1,232.4z"/>
		<path class="st12" d="M132.1,232.4L132.1,232.4c-0.7,0-1.2-0.5-1.2-1.2v-14.6c0-0.7,0.5-1.2,1.2-1.2h0c0.7,0,1.2,0.5,1.2,1.2v14.6
			C133.3,231.8,132.8,232.4,132.1,232.4z"/>
		<path class="st12" d="M139.1,232.4L139.1,232.4c-0.7,0-1.2-0.5-1.2-1.2v-14.6c0-0.7,0.5-1.2,1.2-1.2h0c0.7,0,1.2,0.5,1.2,1.2v14.6
			C140.3,231.8,139.8,232.4,139.1,232.4z"/>
		<path class="st12" d="M146.1,232.4L146.1,232.4c-0.7,0-1.2-0.5-1.2-1.2v-14.6c0-0.7,0.5-1.2,1.2-1.2h0c0.7,0,1.2,0.5,1.2,1.2v14.6
			C147.3,231.8,146.8,232.4,146.1,232.4z"/>
		<path class="st12" d="M153.1,232.4L153.1,232.4c-0.7,0-1.2-0.5-1.2-1.2v-14.6c0-0.7,0.5-1.2,1.2-1.2h0c0.7,0,1.2,0.5,1.2,1.2v14.6
			C154.3,231.8,153.8,232.4,153.1,232.4z"/>
	</g>
	<g class="st11">
		<path class="st12" d="M83.1,264.4L83.1,264.4c-0.7,0-1.2-0.5-1.2-1.2v-14.6c0-0.7,0.5-1.2,1.2-1.2h0c0.7,0,1.2,0.5,1.2,1.2v14.6
			C84.3,263.8,83.8,264.4,83.1,264.4z"/>
		<path class="st12" d="M90.1,264.4L90.1,264.4c-0.7,0-1.2-0.5-1.2-1.2v-14.6c0-0.7,0.5-1.2,1.2-1.2h0c0.7,0,1.2,0.5,1.2,1.2v14.6
			C91.3,263.8,90.8,264.4,90.1,264.4z"/>
		<path class="st12" d="M97.1,264.4L97.1,264.4c-0.7,0-1.2-0.5-1.2-1.2v-14.6c0-0.7,0.5-1.2,1.2-1.2h0c0.7,0,1.2,0.5,1.2,1.2v14.6
			C98.3,263.8,97.8,264.4,97.1,264.4z"/>
		<path class="st12" d="M104.1,264.4L104.1,264.4c-0.7,0-1.2-0.5-1.2-1.2v-14.6c0-0.7,0.5-1.2,1.2-1.2h0c0.7,0,1.2,0.5,1.2,1.2v14.6
			C105.3,263.8,104.8,264.4,104.1,264.4z"/>
		<path class="st12" d="M111.1,264.4L111.1,264.4c-0.7,0-1.2-0.5-1.2-1.2v-14.6c0-0.7,0.5-1.2,1.2-1.2h0c0.7,0,1.2,0.5,1.2,1.2v14.6
			C112.3,263.8,111.8,264.4,111.1,264.4z"/>
		<path class="st12" d="M118.1,264.4L118.1,264.4c-0.7,0-1.2-0.5-1.2-1.2v-14.6c0-0.7,0.5-1.2,1.2-1.2h0c0.7,0,1.2,0.5,1.2,1.2v14.6
			C119.3,263.8,118.8,264.4,118.1,264.4z"/>
		<path class="st12" d="M125.1,264.4L125.1,264.4c-0.7,0-1.2-0.5-1.2-1.2v-14.6c0-0.7,0.5-1.2,1.2-1.2h0c0.7,0,1.2,0.5,1.2,1.2v14.6
			C126.3,263.8,125.8,264.4,125.1,264.4z"/>
		<path class="st12" d="M132.1,264.4L132.1,264.4c-0.7,0-1.2-0.5-1.2-1.2v-14.6c0-0.7,0.5-1.2,1.2-1.2h0c0.7,0,1.2,0.5,1.2,1.2v14.6
			C133.3,263.8,132.8,264.4,132.1,264.4z"/>
		<path class="st12" d="M139.1,264.4L139.1,264.4c-0.7,0-1.2-0.5-1.2-1.2v-14.6c0-0.7,0.5-1.2,1.2-1.2h0c0.7,0,1.2,0.5,1.2,1.2v14.6
			C140.3,263.8,139.8,264.4,139.1,264.4z"/>
		<path class="st12" d="M146.1,264.4L146.1,264.4c-0.7,0-1.2-0.5-1.2-1.2v-14.6c0-0.7,0.5-1.2,1.2-1.2h0c0.7,0,1.2,0.5,1.2,1.2v14.6
			C147.3,263.8,146.8,264.4,146.1,264.4z"/>
		<path class="st12" d="M153.1,264.4L153.1,264.4c-0.7,0-1.2-0.5-1.2-1.2v-14.6c0-0.7,0.5-1.2,1.2-1.2h0c0.7,0,1.2,0.5,1.2,1.2v14.6
			C154.3,263.8,153.8,264.4,153.1,264.4z"/>
	</g>
	<g class="st11">
		<path class="st12" d="M83.1,296.4L83.1,296.4c-0.7,0-1.2-0.5-1.2-1.2v-14.6c0-0.7,0.5-1.2,1.2-1.2h0c0.7,0,1.2,0.5,1.2,1.2v14.6
			C84.3,295.8,83.8,296.4,83.1,296.4z"/>
		<path class="st12" d="M90.1,296.4L90.1,296.4c-0.7,0-1.2-0.5-1.2-1.2v-14.6c0-0.7,0.5-1.2,1.2-1.2h0c0.7,0,1.2,0.5,1.2,1.2v14.6
			C91.3,295.8,90.8,296.4,90.1,296.4z"/>
		<path class="st12" d="M97.1,296.4L97.1,296.4c-0.7,0-1.2-0.5-1.2-1.2v-14.6c0-0.7,0.5-1.2,1.2-1.2h0c0.7,0,1.2,0.5,1.2,1.2v14.6
			C98.3,295.8,97.8,296.4,97.1,296.4z"/>
		<path class="st12" d="M104.1,296.4L104.1,296.4c-0.7,0-1.2-0.5-1.2-1.2v-14.6c0-0.7,0.5-1.2,1.2-1.2h0c0.7,0,1.2,0.5,1.2,1.2v14.6
			C105.3,295.8,104.8,296.4,104.1,296.4z"/>
		<path class="st12" d="M111.1,296.4L111.1,296.4c-0.7,0-1.2-0.5-1.2-1.2v-14.6c0-0.7,0.5-1.2,1.2-1.2h0c0.7,0,1.2,0.5,1.2,1.2v14.6
			C112.3,295.8,111.8,296.4,111.1,296.4z"/>
		<path class="st12" d="M118.1,296.4L118.1,296.4c-0.7,0-1.2-0.5-1.2-1.2v-14.6c0-0.7,0.5-1.2,1.2-1.2h0c0.7,0,1.2,0.5,1.2,1.2v14.6
			C119.3,295.8,118.8,296.4,118.1,296.4z"/>
		<path class="st12" d="M125.1,296.4L125.1,296.4c-0.7,0-1.2-0.5-1.2-1.2v-14.6c0-0.7,0.5-1.2,1.2-1.2h0c0.7,0,1.2,0.5,1.2,1.2v14.6
			C126.3,295.8,125.8,296.4,125.1,296.4z"/>
		<path class="st12" d="M132.1,296.4L132.1,296.4c-0.7,0-1.2-0.5-1.2-1.2v-14.6c0-0.7,0.5-1.2,1.2-1.2h0c0.7,0,1.2,0.5,1.2,1.2v14.6
			C133.3,295.8,132.8,296.4,132.1,296.4z"/>
		<path class="st12" d="M139.1,296.4L139.1,296.4c-0.7,0-1.2-0.5-1.2-1.2v-14.6c0-0.7,0.5-1.2,1.2-1.2h0c0.7,0,1.2,0.5,1.2,1.2v14.6
			C140.3,295.8,139.8,296.4,139.1,296.4z"/>
		<path class="st12" d="M146.1,296.4L146.1,296.4c-0.7,0-1.2-0.5-1.2-1.2v-14.6c0-0.7,0.5-1.2,1.2-1.2h0c0.7,0,1.2,0.5,1.2,1.2v14.6
			C147.3,295.8,146.8,296.4,146.1,296.4z"/>
		<path class="st12" d="M153.1,296.4L153.1,296.4c-0.7,0-1.2-0.5-1.2-1.2v-14.6c0-0.7,0.5-1.2,1.2-1.2h0c0.7,0,1.2,0.5,1.2,1.2v14.6
			C154.3,295.8,153.8,296.4,153.1,296.4z"/>
	</g>
	<g class="st11">
		<path class="st12" d="M13.9,288L13.9,288c-0.7,0-1.2-0.5-1.2-1.2v-14.6c0-0.7,0.5-1.2,1.2-1.2h0c0.7,0,1.2,0.5,1.2,1.2v14.6
			C15.1,287.4,14.6,288,13.9,288z"/>
		<path class="st12" d="M20.9,288L20.9,288c-0.7,0-1.2-0.5-1.2-1.2v-14.6c0-0.7,0.5-1.2,1.2-1.2h0c0.7,0,1.2,0.5,1.2,1.2v14.6
			C22.1,287.4,21.6,288,20.9,288z"/>
		<path class="st12" d="M27.9,288L27.9,288c-0.7,0-1.2-0.5-1.2-1.2v-14.6c0-0.7,0.5-1.2,1.2-1.2h0c0.7,0,1.2,0.5,1.2,1.2v14.6
			C29.1,287.4,28.6,288,27.9,288z"/>
		<path class="st12" d="M34.9,288L34.9,288c-0.7,0-1.2-0.5-1.2-1.2v-14.6c0-0.7,0.5-1.2,1.2-1.2h0c0.7,0,1.2,0.5,1.2,1.2v14.6
			C36.1,287.4,35.6,288,34.9,288z"/>
		<path class="st12" d="M41.9,288L41.9,288c-0.7,0-1.2-0.5-1.2-1.2v-14.6c0-0.7,0.5-1.2,1.2-1.2h0c0.7,0,1.2,0.5,1.2,1.2v14.6
			C43.1,287.4,42.6,288,41.9,288z"/>
		<path class="st12" d="M48.9,288L48.9,288c-0.7,0-1.2-0.5-1.2-1.2v-14.6c0-0.7,0.5-1.2,1.2-1.2h0c0.7,0,1.2,0.5,1.2,1.2v14.6
			C50.1,287.4,49.6,288,48.9,288z"/>
		<path class="st12" d="M55.9,288L55.9,288c-0.7,0-1.2-0.5-1.2-1.2v-14.6c0-0.7,0.5-1.2,1.2-1.2h0c0.7,0,1.2,0.5,1.2,1.2v14.6
			C57.1,287.4,56.6,288,55.9,288z"/>
	</g>
	<g class="st11">
		<path class="st12" d="M31,256.4L31,256.4c-0.7,0-1.2-0.5-1.2-1.2v-14.6c0-0.7,0.5-1.2,1.2-1.2h0c0.7,0,1.2,0.5,1.2,1.2v14.6
			C32.2,255.9,31.6,256.4,31,256.4z"/>
		<path class="st12" d="M38,256.4L38,256.4c-0.7,0-1.2-0.5-1.2-1.2v-14.6c0-0.7,0.5-1.2,1.2-1.2h0c0.7,0,1.2,0.5,1.2,1.2v14.6
			C39.2,255.9,38.6,256.4,38,256.4z"/>
		<path class="st12" d="M45,256.4L45,256.4c-0.7,0-1.2-0.5-1.2-1.2v-14.6c0-0.7,0.5-1.2,1.2-1.2h0c0.7,0,1.2,0.5,1.2,1.2v14.6
			C46.2,255.9,45.6,256.4,45,256.4z"/>
		<path class="st12" d="M52,256.4L52,256.4c-0.7,0-1.2-0.5-1.2-1.2v-14.6c0-0.7,0.5-1.2,1.2-1.2h0c0.7,0,1.2,0.5,1.2,1.2v14.6
			C53.2,255.9,52.6,256.4,52,256.4z"/>
		<path class="st12" d="M59,256.4L59,256.4c-0.7,0-1.2-0.5-1.2-1.2v-14.6c0-0.7,0.5-1.2,1.2-1.2h0c0.7,0,1.2,0.5,1.2,1.2v14.6
			C60.2,255.9,59.6,256.4,59,256.4z"/>
	</g>
	<circle class="st0" cx="310.8" cy="249.8" r="60.3"/>
	<circle class="st6" cx="310.8" cy="249.8" r="51.6"/>
	<path class="st13" d="M300.6,246.6c0.1-0.8-0.4-1.2-0.7-1.7c-3.2-5.6-6.4-11.1-9.6-16.7c-1.5-2.6-1.3-5.9,0.8-7.4
		c2.6-1.8,4.9-1.8,7.6,0.6c0.8,0.7,1.4,1.6,1.9,2.6c3.4,6.2,6.8,12.5,10.2,18.7c0.7-0.4,0.9-1,1.2-1.6c3.5-5.9,7-11.7,10.5-17.6
		c0.8-1.4,1.9-2.5,3.3-3.3c2.1-1.2,5.1-0.9,6.5,0.6c1.5,1.6,1.8,4.4,0.6,6.5c-1.3,2.2-2.7,4.4-4.1,6.6c-2.5,4.1-5,8.2-7.7,12.5
		c1.8,0,3.3,0,4.8,0c1.9,0,3.8-0.1,5.8,0c2.3,0.1,4,1.8,4.2,4c0.2,2.1-1.4,4.4-3.6,4.7c-1.2,0.2-2.5,0.2-3.8,0.2
		c-3.1,0-6.2,0.1-9.4,0c-1,0-1.3,0.3-1.3,1.3c0,3.1-0.1,3.1,3,3.1c3.4,0,6.7,0,10.1,0c2.9,0,4.9,2,4.9,4.6c0,2.6-2,4.4-4.9,4.4
		c-4,0-7.9,0-11.9-0.1c-1,0-1.3,0.3-1.3,1.3c0.1,2.1,0.1,4.2,0,6.3c-0.1,3.9-2.2,6-6,6.1c-4.7,0.2-7.1-1.6-7.4-5.6
		c-0.2-2.2-0.1-4.4-0.1-6.7c0-1-0.3-1.3-1.3-1.3c-3.9,0.1-7.8,0-11.7,0c-3,0-5.1-2.1-5.1-4.9c0-2.5,2-4.2,5-4.2
		c3.8,0,7.7-0.1,11.5,0c1.2,0,1.6-0.2,1.6-1.5c-0.1-3.1,0-3.1-3-3.1c-3.4,0-6.8,0-10.3-0.1c-2.9,0-4.9-1.8-4.9-4.4
		c0-2.4,2-4.2,4.8-4.3C294.3,246.6,297.5,246.6,300.6,246.6z"/>
</g>
</svg>
