<?xml version="1.0" encoding="utf-8"?>
<!-- Generator: Adobe Illustrator 21.0.0, SVG Export Plug-In . SVG Version: 6.00 Build 0)  -->
<svg version="1.1" id="图层_1" xmlns="http://www.w3.org/2000/svg" xmlns:xlink="http://www.w3.org/1999/xlink" x="0px" y="0px"
	 viewBox="0 0 500 300" style="enable-background:new 0 0 500 300;" xml:space="preserve">
<style type="text/css">
	.st0{opacity:0.6;}
	.st1{fill:#AFCDF9;stroke:#455D82;stroke-width:3;stroke-miterlimit:10;}
	.st2{fill:#DEECFC;stroke:#455D82;stroke-width:3;stroke-miterlimit:10;}
	.st3{fill:#FFFFFF;stroke:#455D82;stroke-width:3;stroke-miterlimit:10;}
	.st4{fill:#63D18C;stroke:#455D82;stroke-width:2;stroke-miterlimit:10;}
	.st5{fill:#455D82;}
	.st6{fill:#F9789A;stroke:#455D82;stroke-width:2;stroke-miterlimit:10;}
	.st7{fill:#DEECFC;stroke:#6580A8;stroke-width:3;stroke-miterlimit:10;}
	.st8{fill:#FFFFFF;stroke:#6580A8;stroke-width:3;stroke-miterlimit:10;}
	.st9{fill:#63D18C;stroke:#6580A8;stroke-width:2;stroke-miterlimit:10;}
	.st10{fill:#6580A8;}
	.st11{fill:#F7CD79;stroke:#6580A8;stroke-width:2;stroke-miterlimit:10;}
	.st12{fill:#B2DBF7;stroke:#455D82;stroke-width:3;stroke-miterlimit:10;}
	.st13{fill:#E4EEF9;stroke:#455D82;stroke-width:3;stroke-miterlimit:10;}
	.st14{fill:none;stroke:#455D82;stroke-width:3;stroke-miterlimit:10;}
</style>
<g class="st0">
	<path class="st1" d="M194,278.2H86.3c-6.6,0-12-5.4-12-12V135.9c0-6.6,5.4-12,12-12H194c6.6,0,12,5.4,12,12v130.4
		C206,272.8,200.6,278.2,194,278.2z"/>
	<path class="st2" d="M178,278.2H86.3c-6.6,0-12-5.4-12-12V135.9c0-6.6,5.4-12,12-12H178c6.6,0,12,5.4,12,12v130.4
		C190,272.8,184.6,278.2,178,278.2z"/>
	<g>
		<path class="st1" d="M206.9,140.6H74.1c-2.2,0-4-1.8-4-4v-31.9c0-2.2,1.8-4,4-4h132.8c2.2,0,4,1.8,4,4v31.9
			C210.9,138.8,209.1,140.6,206.9,140.6z"/>
		<path class="st3" d="M182.6,140.6H73.3c-2.2,0-4-1.8-4-4v-31.9c0-2.2,1.8-4,4-4h109.3c2.2,0,4,1.8,4,4v31.9
			C186.6,138.8,184.8,140.6,182.6,140.6z"/>
		<circle class="st4" cx="91.1" cy="120.6" r="8.2"/>
		<g>
			<path class="st5" d="M110,126.1L110,126.1c-0.4-0.4-0.4-1-0.1-1.3l9.6-9.7c0.3-0.3,0.9-0.3,1.2,0l0.1,0.1c0.3,0.3,0.3,0.9,0,1.2
				l-9.6,9.7C110.9,126.5,110.4,126.5,110,126.1z"/>
			<path class="st5" d="M163.9,126.1L163.9,126.1c-0.4-0.4-0.4-1-0.1-1.3l9.6-9.7c0.3-0.3,0.9-0.3,1.2,0l0.1,0.1
				c0.3,0.3,0.3,0.9,0,1.2l-9.6,9.7C164.8,126.5,164.3,126.5,163.9,126.1z"/>
			<path class="st5" d="M117,128.2L117,128.2c-0.4-0.4-0.4-1-0.1-1.3l13.7-13.8c0.3-0.3,0.9-0.3,1.2,0l0.1,0.1
				c0.3,0.3,0.3,0.9,0,1.2l-13.7,13.8C117.9,128.5,117.3,128.5,117,128.2z"/>
			<path class="st5" d="M126,128.2L126,128.2c-0.4-0.4-0.4-1-0.1-1.3l13.7-13.8c0.3-0.3,0.9-0.3,1.2,0l0.1,0.1
				c0.3,0.3,0.3,0.9,0,1.2l-13.7,13.8C126.9,128.5,126.3,128.5,126,128.2z"/>
			<path class="st5" d="M134.9,128.2L134.9,128.2c-0.4-0.4-0.4-1-0.1-1.3l13.7-13.8c0.3-0.3,0.9-0.3,1.2,0l0.1,0.1
				c0.3,0.3,0.3,0.9,0,1.2l-13.7,13.8C135.8,128.5,135.3,128.5,134.9,128.2z"/>
			<path class="st5" d="M143.9,128.2L143.9,128.2c-0.4-0.4-0.4-1-0.1-1.3l13.7-13.8c0.3-0.3,0.9-0.3,1.2,0l0.1,0.1
				c0.3,0.3,0.3,0.9,0,1.2l-13.7,13.8C144.8,128.5,144.3,128.5,143.9,128.2z"/>
			<path class="st5" d="M152.9,128.2L152.9,128.2c-0.4-0.4-0.4-1-0.1-1.3l13.7-13.8c0.3-0.3,0.9-0.3,1.2,0l0.1,0.1
				c0.3,0.3,0.3,0.9,0,1.2l-13.7,13.8C153.8,128.5,153.3,128.5,152.9,128.2z"/>
		</g>
	</g>
	<g>
		<path class="st1" d="M206.9,192.3H74.1c-2.2,0-4-1.8-4-4v-31.9c0-2.2,1.8-4,4-4h132.8c2.2,0,4,1.8,4,4v31.9
			C210.9,190.4,209.1,192.3,206.9,192.3z"/>
		<path class="st3" d="M182.6,192.3H73.3c-2.2,0-4-1.8-4-4v-31.9c0-2.2,1.8-4,4-4h109.3c2.2,0,4,1.8,4,4v31.9
			C186.6,190.4,184.8,192.3,182.6,192.3z"/>
		<circle class="st6" cx="91.1" cy="172.3" r="8.2"/>
		<g>
			<path class="st5" d="M110,177.8L110,177.8c-0.4-0.4-0.4-1-0.1-1.3l9.6-9.7c0.3-0.3,0.9-0.3,1.2,0l0.1,0.1c0.3,0.3,0.3,0.9,0,1.2
				l-9.6,9.7C110.9,178.1,110.4,178.1,110,177.8z"/>
			<path class="st5" d="M163.9,177.8L163.9,177.8c-0.4-0.4-0.4-1-0.1-1.3l9.6-9.7c0.3-0.3,0.9-0.3,1.2,0l0.1,0.1
				c0.3,0.3,0.3,0.9,0,1.2l-9.6,9.7C164.8,178.1,164.3,178.1,163.9,177.8z"/>
			<path class="st5" d="M117,179.9L117,179.9c-0.4-0.4-0.4-1-0.1-1.3l13.7-13.8c0.3-0.3,0.9-0.3,1.2,0l0.1,0.1
				c0.3,0.3,0.3,0.9,0,1.2l-13.7,13.8C117.9,180.2,117.3,180.2,117,179.9z"/>
			<path class="st5" d="M126,179.9L126,179.9c-0.4-0.4-0.4-1-0.1-1.3l13.7-13.8c0.3-0.3,0.9-0.3,1.2,0l0.1,0.1
				c0.3,0.3,0.3,0.9,0,1.2l-13.7,13.8C126.9,180.2,126.3,180.2,126,179.9z"/>
			<path class="st5" d="M134.9,179.9L134.9,179.9c-0.4-0.4-0.4-1-0.1-1.3l13.7-13.8c0.3-0.3,0.9-0.3,1.2,0l0.1,0.1
				c0.3,0.3,0.3,0.9,0,1.2l-13.7,13.8C135.8,180.2,135.3,180.2,134.9,179.9z"/>
			<path class="st5" d="M143.9,179.9L143.9,179.9c-0.4-0.4-0.4-1-0.1-1.3l13.7-13.8c0.3-0.3,0.9-0.3,1.2,0l0.1,0.1
				c0.3,0.3,0.3,0.9,0,1.2l-13.7,13.8C144.8,180.2,144.3,180.2,143.9,179.9z"/>
			<path class="st5" d="M152.9,179.9L152.9,179.9c-0.4-0.4-0.4-1-0.1-1.3l13.7-13.8c0.3-0.3,0.9-0.3,1.2,0l0.1,0.1
				c0.3,0.3,0.3,0.9,0,1.2l-13.7,13.8C153.8,180.2,153.3,180.2,152.9,179.9z"/>
		</g>
	</g>
	<g>
		<path class="st1" d="M206.9,243.9H74.1c-2.2,0-4-1.8-4-4V208c0-2.2,1.8-4,4-4h132.8c2.2,0,4,1.8,4,4v31.9
			C210.9,242.1,209.1,243.9,206.9,243.9z"/>
		<path class="st3" d="M182.6,243.9H73.3c-2.2,0-4-1.8-4-4V208c0-2.2,1.8-4,4-4h109.3c2.2,0,4,1.8,4,4v31.9
			C186.6,242.1,184.8,243.9,182.6,243.9z"/>
		<circle class="st6" cx="91.1" cy="224" r="8.2"/>
		<g>
			<path class="st5" d="M110,229.5L110,229.5c-0.4-0.4-0.4-1-0.1-1.3l9.6-9.7c0.3-0.3,0.9-0.3,1.2,0l0.1,0.1c0.3,0.3,0.3,0.9,0,1.2
				l-9.6,9.7C110.9,229.8,110.4,229.8,110,229.5z"/>
			<path class="st5" d="M163.9,229.5L163.9,229.5c-0.4-0.4-0.4-1-0.1-1.3l9.6-9.7c0.3-0.3,0.9-0.3,1.2,0l0.1,0.1
				c0.3,0.3,0.3,0.9,0,1.2l-9.6,9.7C164.8,229.8,164.3,229.8,163.9,229.5z"/>
			<path class="st5" d="M117,231.5L117,231.5c-0.4-0.4-0.4-1-0.1-1.3l13.7-13.8c0.3-0.3,0.9-0.3,1.2,0l0.1,0.1
				c0.3,0.3,0.3,0.9,0,1.2l-13.7,13.8C117.9,231.9,117.3,231.9,117,231.5z"/>
			<path class="st5" d="M126,231.5L126,231.5c-0.4-0.4-0.4-1-0.1-1.3l13.7-13.8c0.3-0.3,0.9-0.3,1.2,0l0.1,0.1
				c0.3,0.3,0.3,0.9,0,1.2l-13.7,13.8C126.9,231.9,126.3,231.9,126,231.5z"/>
			<path class="st5" d="M134.9,231.5L134.9,231.5c-0.4-0.4-0.4-1-0.1-1.3l13.7-13.8c0.3-0.3,0.9-0.3,1.2,0l0.1,0.1
				c0.3,0.3,0.3,0.9,0,1.2l-13.7,13.8C135.8,231.9,135.3,231.9,134.9,231.5z"/>
			<path class="st5" d="M143.9,231.5L143.9,231.5c-0.4-0.4-0.4-1-0.1-1.3l13.7-13.8c0.3-0.3,0.9-0.3,1.2,0l0.1,0.1
				c0.3,0.3,0.3,0.9,0,1.2l-13.7,13.8C144.8,231.9,144.3,231.9,143.9,231.5z"/>
			<path class="st5" d="M152.9,231.5L152.9,231.5c-0.4-0.4-0.4-1-0.1-1.3l13.7-13.8c0.3-0.3,0.9-0.3,1.2,0l0.1,0.1
				c0.3,0.3,0.3,0.9,0,1.2l-13.7,13.8C153.8,231.9,153.3,231.9,152.9,231.5z"/>
		</g>
	</g>
	<g>
		<path class="st1" d="M206.9,295.6H74.1c-2.2,0-4-1.8-4-4v-31.9c0-2.2,1.8-4,4-4h132.8c2.2,0,4,1.8,4,4v31.9
			C210.9,293.8,209.1,295.6,206.9,295.6z"/>
		<path class="st3" d="M182.6,295.6H73.3c-2.2,0-4-1.8-4-4v-31.9c0-2.2,1.8-4,4-4h109.3c2.2,0,4,1.8,4,4v31.9
			C186.6,293.8,184.8,295.6,182.6,295.6z"/>
		<circle class="st6" cx="91.1" cy="275.7" r="8.2"/>
		<g>
			<path class="st5" d="M110,281.2L110,281.2c-0.4-0.4-0.4-1-0.1-1.3l9.6-9.7c0.3-0.3,0.9-0.3,1.2,0l0.1,0.1c0.3,0.3,0.3,0.9,0,1.2
				l-9.6,9.7C110.9,281.5,110.4,281.5,110,281.2z"/>
			<path class="st5" d="M163.9,281.2L163.9,281.2c-0.4-0.4-0.4-1-0.1-1.3l9.6-9.7c0.3-0.3,0.9-0.3,1.2,0l0.1,0.1
				c0.3,0.3,0.3,0.9,0,1.2l-9.6,9.7C164.8,281.5,164.3,281.5,163.9,281.2z"/>
			<path class="st5" d="M117,283.2L117,283.2c-0.4-0.4-0.4-1-0.1-1.3l13.7-13.8c0.3-0.3,0.9-0.3,1.2,0l0.1,0.1
				c0.3,0.3,0.3,0.9,0,1.2l-13.7,13.8C117.9,283.6,117.3,283.6,117,283.2z"/>
			<path class="st5" d="M126,283.2L126,283.2c-0.4-0.4-0.4-1-0.1-1.3l13.7-13.8c0.3-0.3,0.9-0.3,1.2,0l0.1,0.1
				c0.3,0.3,0.3,0.9,0,1.2l-13.7,13.8C126.9,283.6,126.3,283.6,126,283.2z"/>
			<path class="st5" d="M134.9,283.2L134.9,283.2c-0.4-0.4-0.4-1-0.1-1.3l13.7-13.8c0.3-0.3,0.9-0.3,1.2,0l0.1,0.1
				c0.3,0.3,0.3,0.9,0,1.2l-13.7,13.8C135.8,283.6,135.3,283.6,134.9,283.2z"/>
			<path class="st5" d="M143.9,283.2L143.9,283.2c-0.4-0.4-0.4-1-0.1-1.3l13.7-13.8c0.3-0.3,0.9-0.3,1.2,0l0.1,0.1
				c0.3,0.3,0.3,0.9,0,1.2l-13.7,13.8C144.8,283.6,144.3,283.6,143.9,283.2z"/>
			<path class="st5" d="M152.9,283.2L152.9,283.2c-0.4-0.4-0.4-1-0.1-1.3l13.7-13.8c0.3-0.3,0.9-0.3,1.2,0l0.1,0.1
				c0.3,0.3,0.3,0.9,0,1.2l-13.7,13.8C153.8,283.6,153.3,283.6,152.9,283.2z"/>
		</g>
	</g>
</g>
<g>
	<path class="st7" d="M279.8,275.9h-107c-6.6,0-12-5.4-12-12V113.1c0-6.6,5.4-12,12-12h107c6.6,0,12,5.4,12,12v150.8
		C291.8,270.5,286.4,275.9,279.8,275.9z"/>
	<path class="st8" d="M283.9,120.1H159.2c-2.2,0-4-1.8-4-4V78.9c0-2.2,1.8-4,4-4h124.8c2.2,0,4,1.8,4,4V116
		C288,118.2,286.2,120.1,283.9,120.1z"/>
	<circle class="st9" cx="179.8" cy="97.5" r="9.3"/>
	<g>
		<path class="st10" d="M201.2,103.6L201.2,103.6c-0.4-0.4-0.4-1.1,0-1.5l10.8-10.9c0.4-0.4,1.1-0.4,1.5,0l0,0
			c0.4,0.4,0.4,1.1,0,1.5l-10.8,10.9C202.3,104.1,201.6,104.1,201.2,103.6z"/>
		<path class="st10" d="M262.2,103.6L262.2,103.6c-0.4-0.4-0.4-1.1,0-1.5L273,91.3c0.4-0.4,1.1-0.4,1.5,0l0,0c0.4,0.4,0.4,1.1,0,1.5
			l-10.8,10.9C263.3,104.1,262.6,104.1,262.2,103.6z"/>
		<path class="st10" d="M209,106L209,106c-0.4-0.4-0.4-1.1,0-1.5L224.4,89c0.4-0.4,1.1-0.4,1.5,0v0c0.4,0.4,0.4,1.1,0,1.5L210.5,106
			C210.1,106.4,209.5,106.4,209,106z"/>
		<path class="st10" d="M219.2,106L219.2,106c-0.4-0.4-0.4-1.1,0-1.5L234.6,89c0.4-0.4,1.1-0.4,1.5,0v0c0.4,0.4,0.4,1.1,0,1.5
			L220.7,106C220.3,106.4,219.6,106.4,219.2,106z"/>
		<path class="st10" d="M229.4,106L229.4,106c-0.4-0.4-0.4-1.1,0-1.5L244.8,89c0.4-0.4,1.1-0.4,1.5,0v0c0.4,0.4,0.4,1.1,0,1.5
			L230.9,106C230.5,106.4,229.8,106.4,229.4,106z"/>
		<path class="st10" d="M239.6,106L239.6,106c-0.4-0.4-0.4-1.1,0-1.5L255,89c0.4-0.4,1.1-0.4,1.5,0l0,0c0.4,0.4,0.4,1.1,0,1.5
			L241.1,106C240.7,106.4,240,106.4,239.6,106z"/>
		<path class="st10" d="M249.8,106L249.8,106c-0.4-0.4-0.4-1.1,0-1.5L265.1,89c0.4-0.4,1.1-0.4,1.5,0v0c0.4,0.4,0.4,1.1,0,1.5
			L251.2,106C250.8,106.4,250.2,106.4,249.8,106z"/>
	</g>
	<path class="st8" d="M283.9,178.6H159.2c-2.2,0-4-1.8-4-4v-37.2c0-2.2,1.8-4,4-4h124.8c2.2,0,4,1.8,4,4v37.2
		C288,176.8,286.2,178.6,283.9,178.6z"/>
	<circle class="st11" cx="179.8" cy="156" r="9.3"/>
	<g>
		<path class="st10" d="M201.2,162.2L201.2,162.2c-0.4-0.4-0.4-1.1,0-1.5l10.8-10.9c0.4-0.4,1.1-0.4,1.5,0l0,0
			c0.4,0.4,0.4,1.1,0,1.5l-10.8,10.9C202.3,162.6,201.6,162.6,201.2,162.2z"/>
		<path class="st10" d="M262.2,162.2L262.2,162.2c-0.4-0.4-0.4-1.1,0-1.5l10.8-10.9c0.4-0.4,1.1-0.4,1.5,0l0,0
			c0.4,0.4,0.4,1.1,0,1.5l-10.8,10.9C263.3,162.6,262.6,162.6,262.2,162.2z"/>
		<path class="st10" d="M209,164.5L209,164.5c-0.4-0.4-0.4-1.1,0-1.5l15.4-15.5c0.4-0.4,1.1-0.4,1.5,0l0,0c0.4,0.4,0.4,1.1,0,1.5
			l-15.4,15.5C210.1,164.9,209.5,164.9,209,164.5z"/>
		<path class="st10" d="M219.2,164.5L219.2,164.5c-0.4-0.4-0.4-1.1,0-1.5l15.4-15.5c0.4-0.4,1.1-0.4,1.5,0l0,0
			c0.4,0.4,0.4,1.1,0,1.5l-15.4,15.5C220.3,164.9,219.6,164.9,219.2,164.5z"/>
		<path class="st10" d="M229.4,164.5L229.4,164.5c-0.4-0.4-0.4-1.1,0-1.5l15.4-15.5c0.4-0.4,1.1-0.4,1.5,0l0,0
			c0.4,0.4,0.4,1.1,0,1.5l-15.4,15.5C230.5,164.9,229.8,164.9,229.4,164.5z"/>
		<path class="st10" d="M239.6,164.5L239.6,164.5c-0.4-0.4-0.4-1.1,0-1.5l15.4-15.5c0.4-0.4,1.1-0.4,1.5,0l0,0
			c0.4,0.4,0.4,1.1,0,1.5l-15.4,15.5C240.7,164.9,240,164.9,239.6,164.5z"/>
		<path class="st10" d="M249.8,164.5L249.8,164.5c-0.4-0.4-0.4-1.1,0-1.5l15.4-15.5c0.4-0.4,1.1-0.4,1.5,0l0,0
			c0.4,0.4,0.4,1.1,0,1.5l-15.4,15.5C250.8,164.9,250.2,164.9,249.8,164.5z"/>
	</g>
	<path class="st8" d="M283.9,237.1H159.2c-2.2,0-4-1.8-4-4v-37.2c0-2.2,1.8-4,4-4h124.8c2.2,0,4,1.8,4,4v37.2
		C288,235.3,286.2,237.1,283.9,237.1z"/>
	<circle class="st11" cx="179.8" cy="214.5" r="9.3"/>
	<g>
		<path class="st10" d="M201.2,220.7L201.2,220.7c-0.4-0.4-0.4-1.1,0-1.5l10.8-10.9c0.4-0.4,1.1-0.4,1.5,0l0,0
			c0.4,0.4,0.4,1.1,0,1.5l-10.8,10.9C202.3,221.1,201.6,221.1,201.2,220.7z"/>
		<path class="st10" d="M262.2,220.7L262.2,220.7c-0.4-0.4-0.4-1.1,0-1.5l10.8-10.9c0.4-0.4,1.1-0.4,1.5,0l0,0
			c0.4,0.4,0.4,1.1,0,1.5l-10.8,10.9C263.3,221.1,262.6,221.1,262.2,220.7z"/>
		<path class="st10" d="M209,223L209,223c-0.4-0.4-0.4-1.1,0-1.5l15.4-15.5c0.4-0.4,1.1-0.4,1.5,0l0,0c0.4,0.4,0.4,1.1,0,1.5
			L210.5,223C210.1,223.4,209.5,223.4,209,223z"/>
		<path class="st10" d="M219.2,223L219.2,223c-0.4-0.4-0.4-1.1,0-1.5l15.4-15.5c0.4-0.4,1.1-0.4,1.5,0l0,0c0.4,0.4,0.4,1.1,0,1.5
			L220.7,223C220.3,223.4,219.6,223.4,219.2,223z"/>
		<path class="st10" d="M229.4,223L229.4,223c-0.4-0.4-0.4-1.1,0-1.5l15.4-15.5c0.4-0.4,1.1-0.4,1.5,0l0,0c0.4,0.4,0.4,1.1,0,1.5
			L230.9,223C230.5,223.4,229.8,223.4,229.4,223z"/>
		<path class="st10" d="M239.6,223L239.6,223c-0.4-0.4-0.4-1.1,0-1.5L255,206c0.4-0.4,1.1-0.4,1.5,0l0,0c0.4,0.4,0.4,1.1,0,1.5
			L241.1,223C240.7,223.4,240,223.4,239.6,223z"/>
		<path class="st10" d="M249.8,223L249.8,223c-0.4-0.4-0.4-1.1,0-1.5l15.4-15.5c0.4-0.4,1.1-0.4,1.5,0v0c0.4,0.4,0.4,1.1,0,1.5
			L251.2,223C250.8,223.4,250.2,223.4,249.8,223z"/>
	</g>
	<path class="st8" d="M283.9,295.6H159.2c-2.2,0-4-1.8-4-4v-37.2c0-2.2,1.8-4,4-4h124.8c2.2,0,4,1.8,4,4v37.2
		C288,293.8,286.2,295.6,283.9,295.6z"/>
	<circle class="st11" cx="179.8" cy="273" r="9.3"/>
	<g>
		<path class="st10" d="M201.2,279.2L201.2,279.2c-0.4-0.4-0.4-1.1,0-1.5l10.8-10.9c0.4-0.4,1.1-0.4,1.5,0l0,0
			c0.4,0.4,0.4,1.1,0,1.5l-10.8,10.9C202.3,279.6,201.6,279.6,201.2,279.2z"/>
		<path class="st10" d="M262.2,279.2L262.2,279.2c-0.4-0.4-0.4-1.1,0-1.5l10.8-10.9c0.4-0.4,1.1-0.4,1.5,0l0,0
			c0.4,0.4,0.4,1.1,0,1.5l-10.8,10.9C263.3,279.6,262.6,279.6,262.2,279.2z"/>
		<path class="st10" d="M209,281.5L209,281.5c-0.4-0.4-0.4-1.1,0-1.5l15.4-15.5c0.4-0.4,1.1-0.4,1.5,0l0,0c0.4,0.4,0.4,1.1,0,1.5
			l-15.4,15.5C210.1,281.9,209.5,281.9,209,281.5z"/>
		<path class="st10" d="M219.2,281.5L219.2,281.5c-0.4-0.4-0.4-1.1,0-1.5l15.4-15.5c0.4-0.4,1.1-0.4,1.5,0l0,0
			c0.4,0.4,0.4,1.1,0,1.5l-15.4,15.5C220.3,281.9,219.6,281.9,219.2,281.5z"/>
		<path class="st10" d="M229.4,281.5L229.4,281.5c-0.4-0.4-0.4-1.1,0-1.5l15.4-15.5c0.4-0.4,1.1-0.4,1.5,0l0,0
			c0.4,0.4,0.4,1.1,0,1.5l-15.4,15.5C230.5,281.9,229.8,281.9,229.4,281.5z"/>
		<path class="st10" d="M239.6,281.5L239.6,281.5c-0.4-0.4-0.4-1.1,0-1.5l15.4-15.5c0.4-0.4,1.1-0.4,1.5,0l0,0
			c0.4,0.4,0.4,1.1,0,1.5l-15.4,15.5C240.7,281.9,240,281.9,239.6,281.5z"/>
		<path class="st10" d="M249.8,281.5L249.8,281.5c-0.4-0.4-0.4-1.1,0-1.5l15.4-15.5c0.4-0.4,1.1-0.4,1.5,0l0,0
			c0.4,0.4,0.4,1.1,0,1.5l-15.4,15.5C250.8,281.9,250.2,281.9,249.8,281.5z"/>
	</g>
</g>
<g>
	<path class="st12" d="M428.1,273.9h-141c-6.6,0-12-5.4-12-12V92.5c0-6.6,5.4-12,12-12h141c6.6,0,12,5.4,12,12v169.4
		C440.1,268.5,434.7,273.9,428.1,273.9z"/>
	<path class="st13" d="M408,273.9H287.1c-6.6,0-12-5.4-12-12V92.5c0-6.6,5.4-12,12-12H408c6.6,0,12,5.4,12,12v169.4
		C420,268.5,414.6,273.9,408,273.9z"/>
	<g>
		<path class="st12" d="M442.3,101.4H274c-2.2,0-4-1.8-4-4V55.5c0-2.2,1.8-4,4-4h168.3c2.2,0,4,1.8,4,4v41.9
			C446.3,99.6,444.5,101.4,442.3,101.4z"/>
		<path class="st3" d="M411.8,101.4H273c-2.2,0-4-1.8-4-4V55.5c0-2.2,1.8-4,4-4h138.9c2.2,0,4,1.8,4,4v41.9
			C415.8,99.6,414,101.4,411.8,101.4z"/>
		<circle class="st4" cx="296.2" cy="76.5" r="10.2"/>
		<g>
			<path class="st5" d="M319.8,83.3L319.8,83.3c-0.5-0.5-0.5-1.2,0-1.7l11.9-12c0.5-0.5,1.2-0.5,1.7,0l0,0c0.5,0.5,0.5,1.2,0,1.7
				l-11.9,12C321,83.7,320.3,83.7,319.8,83.3z"/>
			<path class="st5" d="M387.4,83.3L387.4,83.3c-0.5-0.5-0.5-1.2,0-1.7l11.9-12c0.5-0.5,1.2-0.5,1.7,0l0,0c0.5,0.5,0.5,1.2,0,1.7
				l-11.9,12C388.6,83.7,387.8,83.7,387.4,83.3z"/>
			<path class="st5" d="M328.5,85.9L328.5,85.9c-0.5-0.5-0.5-1.2,0-1.7l17-17.2c0.5-0.5,1.2-0.5,1.7,0l0,0c0.5,0.5,0.5,1.2,0,1.7
				l-17,17.2C329.7,86.3,329,86.3,328.5,85.9z"/>
			<path class="st5" d="M339.8,85.9L339.8,85.9c-0.5-0.5-0.5-1.2,0-1.7l17-17.2c0.5-0.5,1.2-0.5,1.7,0l0,0c0.5,0.5,0.5,1.2,0,1.7
				l-17,17.2C341,86.3,340.3,86.3,339.8,85.9z"/>
			<path class="st5" d="M351.1,85.9L351.1,85.9c-0.5-0.5-0.5-1.2,0-1.7l17-17.2c0.5-0.5,1.2-0.5,1.7,0l0,0c0.5,0.5,0.5,1.2,0,1.7
				l-17,17.2C352.3,86.3,351.5,86.3,351.1,85.9z"/>
			<path class="st5" d="M362.3,85.9L362.3,85.9c-0.5-0.5-0.5-1.2,0-1.7l17-17.2c0.5-0.5,1.2-0.5,1.7,0l0,0c0.5,0.5,0.5,1.2,0,1.7
				l-17,17.2C363.5,86.3,362.8,86.3,362.3,85.9z"/>
			<path class="st5" d="M373.6,85.9L373.6,85.9c-0.5-0.5-0.5-1.2,0-1.7l17-17.2c0.5-0.5,1.2-0.5,1.7,0l0,0c0.5,0.5,0.5,1.2,0,1.7
				l-17,17.2C374.8,86.3,374,86.3,373.6,85.9z"/>
		</g>
	</g>
	<g>
		<path class="st12" d="M442.3,166.2H274c-2.2,0-4-1.8-4-4v-41.9c0-2.2,1.8-4,4-4h168.3c2.2,0,4,1.8,4,4v41.9
			C446.3,164.4,444.5,166.2,442.3,166.2z"/>
		<path class="st3" d="M411.8,166.2H273c-2.2,0-4-1.8-4-4v-41.9c0-2.2,1.8-4,4-4h138.9c2.2,0,4,1.8,4,4v41.9
			C415.8,164.4,414,166.2,411.8,166.2z"/>
		<circle class="st6" cx="296.2" cy="141.2" r="10.2"/>
		<g>
			<path class="st5" d="M319.8,148L319.8,148c-0.5-0.5-0.5-1.2,0-1.7l11.9-12c0.5-0.5,1.2-0.5,1.7,0l0,0c0.5,0.5,0.5,1.2,0,1.7
				l-11.9,12C321,148.5,320.3,148.5,319.8,148z"/>
			<path class="st5" d="M387.4,148L387.4,148c-0.5-0.5-0.5-1.2,0-1.7l11.9-12c0.5-0.5,1.2-0.5,1.7,0l0,0c0.5,0.5,0.5,1.2,0,1.7
				L389,148C388.6,148.5,387.8,148.5,387.4,148z"/>
			<path class="st5" d="M328.5,150.6L328.5,150.6c-0.5-0.5-0.5-1.2,0-1.7l17-17.2c0.5-0.5,1.2-0.5,1.7,0l0,0c0.5,0.5,0.5,1.2,0,1.7
				l-17,17.2C329.7,151,329,151,328.5,150.6z"/>
			<path class="st5" d="M339.8,150.6L339.8,150.6c-0.5-0.5-0.5-1.2,0-1.7l17-17.2c0.5-0.5,1.2-0.5,1.7,0l0,0c0.5,0.5,0.5,1.2,0,1.7
				l-17,17.2C341,151,340.3,151,339.8,150.6z"/>
			<path class="st5" d="M351.1,150.6L351.1,150.6c-0.5-0.5-0.5-1.2,0-1.7l17-17.2c0.5-0.5,1.2-0.5,1.7,0l0,0c0.5,0.5,0.5,1.2,0,1.7
				l-17,17.2C352.3,151,351.5,151,351.1,150.6z"/>
			<path class="st5" d="M362.3,150.6L362.3,150.6c-0.5-0.5-0.5-1.2,0-1.7l17-17.2c0.5-0.5,1.2-0.5,1.7,0l0,0c0.5,0.5,0.5,1.2,0,1.7
				l-17,17.2C363.5,151,362.8,151,362.3,150.6z"/>
			<path class="st5" d="M373.6,150.6L373.6,150.6c-0.5-0.5-0.5-1.2,0-1.7l17-17.2c0.5-0.5,1.2-0.5,1.7,0l0,0c0.5,0.5,0.5,1.2,0,1.7
				l-17,17.2C374.8,151,374,151,373.6,150.6z"/>
		</g>
	</g>
	<g>
		<path class="st12" d="M442.3,230.9H274c-2.2,0-4-1.8-4-4v-41.9c0-2.2,1.8-4,4-4h168.3c2.2,0,4,1.8,4,4v41.9
			C446.3,229.1,444.5,230.9,442.3,230.9z"/>
		<path class="st3" d="M411.8,230.9H273c-2.2,0-4-1.8-4-4v-41.9c0-2.2,1.8-4,4-4h138.9c2.2,0,4,1.8,4,4v41.9
			C415.8,229.1,414,230.9,411.8,230.9z"/>
		<circle class="st6" cx="296.2" cy="205.9" r="10.2"/>
		<g>
			<path class="st5" d="M319.8,212.7L319.8,212.7c-0.5-0.5-0.5-1.2,0-1.7l11.9-12c0.5-0.5,1.2-0.5,1.7,0v0c0.5,0.5,0.5,1.2,0,1.7
				l-11.9,12C321,213.2,320.3,213.2,319.8,212.7z"/>
			<path class="st5" d="M387.4,212.7L387.4,212.7c-0.5-0.5-0.5-1.2,0-1.7l11.9-12c0.5-0.5,1.2-0.5,1.7,0v0c0.5,0.5,0.5,1.2,0,1.7
				l-11.9,12C388.6,213.2,387.8,213.2,387.4,212.7z"/>
			<path class="st5" d="M328.5,215.3L328.5,215.3c-0.5-0.5-0.5-1.2,0-1.7l17-17.2c0.5-0.5,1.2-0.5,1.7,0v0c0.5,0.5,0.5,1.2,0,1.7
				l-17,17.2C329.7,215.8,329,215.8,328.5,215.3z"/>
			<path class="st5" d="M339.8,215.3L339.8,215.3c-0.5-0.5-0.5-1.2,0-1.7l17-17.2c0.5-0.5,1.2-0.5,1.7,0v0c0.5,0.5,0.5,1.2,0,1.7
				l-17,17.2C341,215.8,340.3,215.8,339.8,215.3z"/>
			<path class="st5" d="M351.1,215.3L351.1,215.3c-0.5-0.5-0.5-1.2,0-1.7l17-17.2c0.5-0.5,1.2-0.5,1.7,0v0c0.5,0.5,0.5,1.2,0,1.7
				l-17,17.2C352.3,215.8,351.5,215.8,351.1,215.3z"/>
			<path class="st5" d="M362.3,215.3L362.3,215.3c-0.5-0.5-0.5-1.2,0-1.7l17-17.2c0.5-0.5,1.2-0.5,1.7,0v0c0.5,0.5,0.5,1.2,0,1.7
				l-17,17.2C363.5,215.8,362.8,215.8,362.3,215.3z"/>
			<path class="st5" d="M373.6,215.3L373.6,215.3c-0.5-0.5-0.5-1.2,0-1.7l17-17.2c0.5-0.5,1.2-0.5,1.7,0v0c0.5,0.5,0.5,1.2,0,1.7
				l-17,17.2C374.8,215.8,374,215.8,373.6,215.3z"/>
		</g>
	</g>
	<g>
		<path class="st12" d="M442.3,295.6H274c-2.2,0-4-1.8-4-4v-41.9c0-2.2,1.8-4,4-4h168.3c2.2,0,4,1.8,4,4v41.9
			C446.3,293.8,444.5,295.6,442.3,295.6z"/>
		<path class="st3" d="M411.8,295.6H273c-2.2,0-4-1.8-4-4v-41.9c0-2.2,1.8-4,4-4h138.9c2.2,0,4,1.8,4,4v41.9
			C415.8,293.8,414,295.6,411.8,295.6z"/>
		<circle class="st6" cx="296.2" cy="270.6" r="10.2"/>
		<g>
			<path class="st5" d="M319.8,277.5L319.8,277.5c-0.5-0.5-0.5-1.2,0-1.7l11.9-12c0.5-0.5,1.2-0.5,1.7,0l0,0c0.5,0.5,0.5,1.2,0,1.7
				l-11.9,12C321,277.9,320.3,277.9,319.8,277.5z"/>
			<path class="st5" d="M387.4,277.5L387.4,277.5c-0.5-0.5-0.5-1.2,0-1.7l11.9-12c0.5-0.5,1.2-0.5,1.7,0l0,0c0.5,0.5,0.5,1.2,0,1.7
				l-11.9,12C388.6,277.9,387.8,277.9,387.4,277.5z"/>
			<path class="st5" d="M328.5,280L328.5,280c-0.5-0.5-0.5-1.2,0-1.7l17-17.2c0.5-0.5,1.2-0.5,1.7,0l0,0c0.5,0.5,0.5,1.2,0,1.7
				l-17,17.2C329.7,280.5,329,280.5,328.5,280z"/>
			<path class="st5" d="M339.8,280L339.8,280c-0.5-0.5-0.5-1.2,0-1.7l17-17.2c0.5-0.5,1.2-0.5,1.7,0l0,0c0.5,0.5,0.5,1.2,0,1.7
				l-17,17.2C341,280.5,340.3,280.5,339.8,280z"/>
			<path class="st5" d="M351.1,280L351.1,280c-0.5-0.5-0.5-1.2,0-1.7l17-17.2c0.5-0.5,1.2-0.5,1.7,0l0,0c0.5,0.5,0.5,1.2,0,1.7
				l-17,17.2C352.3,280.5,351.5,280.5,351.1,280z"/>
			<path class="st5" d="M362.3,280L362.3,280c-0.5-0.5-0.5-1.2,0-1.7l17-17.2c0.5-0.5,1.2-0.5,1.7,0l0,0c0.5,0.5,0.5,1.2,0,1.7
				L364,280C363.5,280.5,362.8,280.5,362.3,280z"/>
			<path class="st5" d="M373.6,280L373.6,280c-0.5-0.5-0.5-1.2,0-1.7l17-17.2c0.5-0.5,1.2-0.5,1.7,0l0,0c0.5,0.5,0.5,1.2,0,1.7
				l-17,17.2C374.8,280.5,374,280.5,373.6,280z"/>
		</g>
	</g>
</g>
<g>
	<path class="st3" d="M472.3,164.1L472.3,164.1c-5-13.2-17.6-22.5-32.5-22.5c-5.9,0-11.4,1.5-16.3,4.1c-6.1-9.5-16.9-15.9-29-15.9
		c-19.1,0-34.5,15.5-34.5,34.5c0,0.2,0,0.5,0,0.7c-10.5,3-18.2,12.7-18.2,24.1l0,0c0,13.8,11.3,25.1,25.1,25.1h105.5
		c13.8,0,25.1-11.3,25.1-25.1l0,0C497.4,175.3,486.1,164.1,472.3,164.1z"/>
	<path class="st3" d="M360,164.3c0-19.1,15.5-34.5,34.5-34.5c16.7,0,30.6,11.8,33.8,27.5"/>
	<path class="st14" d="M423.4,146c4.9-2.7,10.5-4.2,16.5-4.2c19.1,0,34.5,15.5,34.5,34.5"/>
</g>
<g class="st0">
	<path class="st3" d="M152.6,26L152.6,26c-3.2-8.6-11.5-14.7-21.2-14.7c-3.8,0-7.5,1-10.6,2.7c-4-6.2-11-10.3-18.9-10.3
		c-12.4,0-22.5,10.1-22.5,22.5c0,0.2,0,0.3,0,0.5c-6.8,2-11.9,8.3-11.9,15.7l0,0c0,9,7.4,16.3,16.3,16.3h68.8
		c9,0,16.3-7.4,16.3-16.3l0,0C169,33.4,161.6,26,152.6,26z"/>
	<path class="st3" d="M79.4,26.2c0-12.4,10.1-22.5,22.5-22.5c10.9,0,19.9,7.7,22.1,17.9"/>
	<path class="st14" d="M120.7,14.3c3.2-1.7,6.9-2.7,10.8-2.7c12.4,0,22.5,10.1,22.5,22.5"/>
</g>
<g>
	<path class="st3" d="M21.1,172.6L21.1,172.6c3.5-9.3,12.5-15.9,22.9-15.9c4.2,0,8.1,1,11.5,2.9c4.3-6.7,11.9-11.2,20.5-11.2
		c13.5,0,24.4,10.9,24.4,24.4c0,0.2,0,0.3,0,0.5c7.4,2.1,12.8,9,12.8,17l0,0c0,9.7-8,17.7-17.7,17.7H21.1c-9.7,0-17.7-8-17.7-17.7
		l0,0C3.4,180.5,11.4,172.6,21.1,172.6z"/>
	<path class="st3" d="M100.4,172.7c0-13.5-10.9-24.4-24.4-24.4c-11.8,0-21.6,8.3-23.9,19.4"/>
	<path class="st14" d="M55.7,159.8c-3.5-1.9-7.4-3-11.6-3c-13.5,0-24.4,10.9-24.4,24.4"/>
</g>
</svg>
